<svg width="211" height="262" fill="none" xmlns="http://www.w3.org/2000/svg"><g clip-path="url(#clip0_87585_8154)"><path d="M69.74 22.07c0-8.8 7.16-15.95 15.96-15.95 2.74 0 5.37.69 7.7 1.98 2.76-4.92 7.99-8.1 13.9-8.1s11.41 3.36 14.11 8.46a15.91 15.91 0 018.32-2.35c8.8 0 15.96 7.16 15.96 15.95 0 7.73-5.52 14.19-12.82 15.65V57.4h-6.28V34.89c0-1.73 1.4-3.14 3.14-3.14 5.34 0 9.68-4.34 9.68-9.68s-4.34-9.68-9.68-9.68a9.64 9.64 0 00-7.25 3.28 3.125 3.125 0 01-2.54 1.29 3.14 3.14 0 01-3.09-2.62 9.65 9.65 0 00-9.55-8.07c-4.75 0-8.42 3.09-9.43 7.51a3.146 3.146 0 01-3.76 2.36c-.67-.15-1.25-.52-1.67-1a9.61 9.61 0 00-6.74-2.74c-5.34 0-9.68 4.34-9.68 9.68s4.34 9.68 9.68 9.68c1.73 0 3.14 1.4 3.14 3.14v22.51h-6.28V37.72c-7.3-1.46-12.82-7.92-12.82-15.65z" fill="#462A00"/><path d="M115.13 30.95l-13.02-7.56c-2.09-1.21-4.71.3-4.71 2.71v15.11c0 2.42 2.62 3.93 4.71 2.71l13.02-7.56c2.08-1.21 2.08-4.22 0-5.43v.02zm-8.369 223.61c-57.03 0-103.26-46.231-103.26-103.26S49.73 48.04 106.76 48.04c57.028 0 103.26 46.231 103.26 103.26s-46.232 103.26-103.26 103.26z" fill="#F5A118"/><path d="M3.5 151.3c0 57.03 46.23 103.26 103.26 103.26 4.71 0 9.36-.32 13.91-.94 50.45-6.79 89.36-50.01 89.36-102.32 0-12.52-2.23-24.52-6.3-35.63l-99.97 46.21-94.82-43.73C5.41 128.55 3.5 139.7 3.5 151.3zm77.86-46.34c-8.704 0-15.76-7.056-15.76-15.76s7.056-15.76 15.76-15.76 15.76 7.056 15.76 15.76-7.056 15.76-15.76 15.76z" fill="#fff"/><path d="M55.74 104.96c-8.704 0-15.76-7.056-15.76-15.76s7.056-15.76 15.76-15.76S71.5 80.496 71.5 89.2s-7.056 15.76-15.76 15.76z" fill="#fff"/><path d="M55.74 97.44a8.24 8.24 0 110-16.48 8.24 8.24 0 010 16.48zm25.62 0a8.24 8.24 0 110-16.48 8.24 8.24 0 010 16.48z" fill="#231815"/><path d="M120.67 257.529v-82.23c0-3.42-1.99-6.53-5.1-7.97l-11.82-5.45-94.82-43.73m94.83 43.731l99.97-46.21.07-.03" stroke="#462A00" stroke-width="7" stroke-linecap="round" stroke-linejoin="round"/><path d="M101.811 192.85a7.75 7.75 0 110-15.5 7.75 7.75 0 010 15.5zm0 37.95a7.75 7.75 0 110-15.5 7.75 7.75 0 010 15.5zm-30.091 0a7.75 7.75 0 11.001-15.5 7.75 7.75 0 010 15.5zm0-37.95a7.75 7.75 0 11.001-15.5 7.75 7.75 0 010 15.5z" fill="#462A00"/></g><defs><clipPath id="clip0_87585_8154"><path fill="#fff" transform="matrix(-1 0 0 1 210.03 0)" d="M0 0h210.03v261.03H0z"/></clipPath></defs></svg>