<svg width="788" height="651" fill="none" xmlns="http://www.w3.org/2000/svg"><mask id="a" style="mask-type:alpha" maskUnits="userSpaceOnUse" x="0" y="0" width="788" height="651"><path fill="#D9D9D9" d="M0 0h788v651H0z"/></mask><g mask="url(#a)"><g filter="url(#filter0_b_87655_4874)"><rect x="605.733" y="57.457" width="80" height="80" rx="40" fill="#FFCB24"/><g clip-path="url(#clip0_87655_4874)"><path d="M660.405 108.869V86.045a3.27 3.27 0 00-3.26-3.26h-22.823a3.27 3.27 0 00-3.261 3.26v22.824a3.27 3.27 0 003.261 3.26h22.823a3.27 3.27 0 003.26-3.26zm-19.726-8.184l3.424 4.125 5.054-6.505a.818.818 0 011.304.016l5.722 7.63c.408.538.016 1.304-.652 1.304h-19.547a.812.812 0 01-.635-1.321l4.059-5.216a.803.803 0 011.271-.033z" fill="#fff"/></g></g><g filter="url(#filter1_b_87655_4874)"><rect x="698.751" y="307.457" width="80" height="80" rx="40" fill="#FFCB24"/><g clip-path="url(#clip1_87655_4874)" fill="#fff"><path d="M738.751 352.348a4.891 4.891 0 100-9.783 4.891 4.891 0 000 9.783z"/><path d="M751.793 334.415h-5.168l-2.022-2.201a3.245 3.245 0 00-2.396-1.059h-6.912c-.913 0-1.794.391-2.413 1.059l-2.005 2.201h-5.168a3.27 3.27 0 00-3.261 3.261v19.563a3.27 3.27 0 003.261 3.26h26.084a3.27 3.27 0 003.26-3.26v-19.563a3.27 3.27 0 00-3.26-3.261zm-13.042 21.193a8.154 8.154 0 01-8.152-8.151 8.155 8.155 0 018.152-8.151 8.154 8.154 0 018.151 8.151c0 4.5-3.652 8.151-8.151 8.151z"/></g></g></g><defs><clipPath id="clip0_87655_4874"><path fill="#fff" transform="translate(626.17 77.894)" d="M0 0h39.126v39.126H0z"/></clipPath><clipPath id="clip1_87655_4874"><path fill="#fff" transform="translate(719.188 327.894)" d="M0 0h39.126v39.126H0z"/></clipPath><filter id="filter0_b_87655_4874" x="604.311" y="56.035" width="82.846" height="82.846" filterUnits="userSpaceOnUse" color-interpolation-filters="sRGB"><feFlood flood-opacity="0" result="BackgroundImageFix"/><feGaussianBlur in="BackgroundImageFix" stdDeviation=".711"/><feComposite in2="SourceAlpha" operator="in" result="effect1_backgroundBlur_87655_4874"/><feBlend in="SourceGraphic" in2="effect1_backgroundBlur_87655_4874" result="shape"/></filter><filter id="filter1_b_87655_4874" x="697.328" y="306.034" width="82.846" height="82.846" filterUnits="userSpaceOnUse" color-interpolation-filters="sRGB"><feFlood flood-opacity="0" result="BackgroundImageFix"/><feGaussianBlur in="BackgroundImageFix" stdDeviation=".711"/><feComposite in2="SourceAlpha" operator="in" result="effect1_backgroundBlur_87655_4874"/><feBlend in="SourceGraphic" in2="effect1_backgroundBlur_87655_4874" result="shape"/></filter></defs></svg>