<svg width="788" height="651" fill="none" xmlns="http://www.w3.org/2000/svg"><mask id="a" style="mask-type:alpha" maskUnits="userSpaceOnUse" x="0" y="0" width="788" height="651"><path fill="#D9D9D9" d="M0 0h788v651H0z"/></mask><g mask="url(#a)"><g filter="url(#filter0_b_87655_4849)"><rect x="630.024" y="106.271" width="60.467" height="60.467" rx="12.597" transform="rotate(17.427 630.024 106.271)" fill="#F5A218"/><path d="M650.041 142.364c-3.242-2.027-4.08-3.332-3.616-4.809.532-1.696 2.474-2.385 5.103-1.56 2.208.694 3.049 1.88 3.034 3.345-.009.681.358 1.308 1.011 1.513l.467.147c1.026.322 2.075-.459 2.02-1.536-.078-2.04-1.123-4.043-3.364-5.396l.337-1.073a2.443 2.443 0 00-1.601-3.066 2.443 2.443 0 00-3.066 1.601l-.322 1.027c-3.222-.294-6.264.904-7.206 3.906-1.128 3.593 1.281 6.314 5.294 8.718 3.595 2.154 3.943 3.767 3.489 5.214-.337 1.073-1.636 2.545-5.073 1.466-2.567-.806-3.601-2.139-3.704-3.606-.043-.68-.435-1.282-1.073-1.482l-.435-.137c-1.042-.327-2.106.501-2.019 1.588.208 2.44 1.876 4.365 4.053 5.595l-.327 1.042a2.442 2.442 0 001.6 3.066 2.443 2.443 0 003.066-1.601l.317-1.011c3.214.377 6.177-.624 7.177-3.813 1.387-4.417-1.919-7.112-5.162-9.138z" fill="#fff"/></g><g filter="url(#filter1_b_87655_4849)"><path d="M142.915 228.608c0 20.068 18.358 36.337 41 36.337a45.89 45.89 0 0012.028-1.589c2.993 1.537 9.866 4.485 21.428 6.406 1.025.166 1.804-.913 1.399-1.879-1.814-4.34-3.454-10.122-3.946-15.396 6.278-6.385 10.091-14.743 10.091-23.879 0-20.068-18.358-36.337-41-36.337s-41 16.269-41 36.337zm56.375 0c0-1.377.54-2.697 1.501-3.67a5.091 5.091 0 013.624-1.521c1.359 0 2.663.547 3.624 1.521a5.223 5.223 0 011.501 3.67c0 1.377-.54 2.697-1.501 3.671a5.094 5.094 0 01-3.624 1.52 5.094 5.094 0 01-3.624-1.52 5.227 5.227 0 01-1.501-3.671zm-20.5 0c0-1.377.54-2.697 1.501-3.67a5.091 5.091 0 013.624-1.521c1.359 0 2.663.547 3.624 1.521a5.223 5.223 0 011.501 3.67c0 1.377-.54 2.697-1.501 3.671a5.094 5.094 0 01-3.624 1.52 5.094 5.094 0 01-3.624-1.52 5.227 5.227 0 01-1.501-3.671zm-15.375 5.191a5.094 5.094 0 01-3.624-1.52 5.227 5.227 0 01-1.501-3.671c0-1.377.54-2.697 1.501-3.67a5.091 5.091 0 013.624-1.521c1.359 0 2.663.547 3.624 1.521a5.223 5.223 0 011.501 3.67c0 1.377-.54 2.697-1.501 3.671a5.094 5.094 0 01-3.624 1.52z" fill="#F5A218"/></g></g><defs><filter id="filter0_b_87655_4849" x="610.492" y="104.849" width="78.647" height="78.647" filterUnits="userSpaceOnUse" color-interpolation-filters="sRGB"><feFlood flood-opacity="0" result="BackgroundImageFix"/><feGaussianBlur in="BackgroundImageFix" stdDeviation=".711"/><feComposite in2="SourceAlpha" operator="in" result="effect1_backgroundBlur_87655_4849"/><feBlend in="SourceGraphic" in2="effect1_backgroundBlur_87655_4849" result="shape"/></filter><filter id="filter1_b_87655_4849" x="138.915" y="188.271" width="90" height="85.508" filterUnits="userSpaceOnUse" color-interpolation-filters="sRGB"><feFlood flood-opacity="0" result="BackgroundImageFix"/><feGaussianBlur in="BackgroundImageFix" stdDeviation="2"/><feComposite in2="SourceAlpha" operator="in" result="effect1_backgroundBlur_87655_4849"/><feBlend in="SourceGraphic" in2="effect1_backgroundBlur_87655_4849" result="shape"/></filter></defs></svg>