<svg width="380" height="390" fill="none" xmlns="http://www.w3.org/2000/svg"><g opacity=".5" filter="url(#filter0_b_88602_3723)"><path d="M363.92 52.316c0 13.982-12.761 25.316-28.5 25.316a31.818 31.818 0 01-8.361-1.107c-2.081 1.07-6.858 3.125-14.895 4.463-.713.116-1.254-.636-.973-1.31 1.261-3.022 2.401-7.051 2.743-10.726-4.364-4.448-7.014-10.27-7.014-16.636 0-13.982 12.761-25.316 28.5-25.316s28.5 11.334 28.5 25.316zm-39.188 0c0-.96-.375-1.88-1.043-2.557a3.535 3.535 0 00-2.519-1.06c-.945 0-1.851.381-2.519 1.06a3.645 3.645 0 00-1.044 2.557c0 .96.376 1.879 1.044 2.557a3.535 3.535 0 002.519 1.06c.945 0 1.851-.382 2.519-1.06a3.645 3.645 0 001.043-2.557zm14.25 0c0-.96-.375-1.88-1.043-2.557a3.535 3.535 0 00-2.519-1.06c-.945 0-1.851.381-2.519 1.06a3.645 3.645 0 00-1.044 2.557c0 .96.376 1.879 1.044 2.557a3.535 3.535 0 002.519 1.06c.945 0 1.851-.382 2.519-1.06a3.645 3.645 0 001.043-2.557zm10.688 3.616c.945 0 1.851-.38 2.519-1.059a3.645 3.645 0 001.043-2.557c0-.96-.375-1.88-1.043-2.557a3.535 3.535 0 00-2.519-1.06c-.945 0-1.851.381-2.519 1.06a3.645 3.645 0 00-1.044 2.557c0 .96.376 1.879 1.044 2.557a3.535 3.535 0 002.519 1.06z" fill="#F5A218"/></g><path d="M123.961 60.569l7.739 10.019a41.265 41.265 0 017.325-.541l-10.311-13.35-4.753 3.871z" fill="#462A00"/><path d="M128.289 61.123c6.698-5.585 7.884-15.828 2.646-22.848-5.242-6.993-14.965-8.14-21.663-2.555-3.597 3-5.751 7.45-5.91 12.246-.073 1.773 1.237 3.236 2.925 3.268 1.684.06 3.087-1.334 3.16-3.107a10.162 10.162 0 013.582-7.427c4.066-3.39 9.957-2.695 13.138 1.55 3.182 4.245 2.46 10.478-1.606 13.868-1.316 1.097-1.548 3.102-.521 4.504a2.919 2.919 0 004.249.5z" fill="#462A00"/><path d="M108.512 50.539s.261-.22.357-.376c1.117-1.317 1.038-3.333-.182-4.508-5.514-5.305-13.777-5.555-19.677-.538-5.638 4.77-7.464 12.886-4.453 19.762.702 1.588 2.478 2.243 3.975 1.472 1.498-.77 2.135-2.674 1.458-4.259-1.837-4.173-.72-9.086 2.69-11.972 3.585-3.032 8.601-2.887 11.932.32a2.872 2.872 0 003.872.123M98.59 98.72a39.979 39.979 0 012.976-6.365l-5.869-7.965-4.728 3.984L98.59 98.72z" fill="#462A00"/><path d="M95.115 88.986c1.31-1.106 1.544-3.124.525-4.533-1.022-1.381-2.913-1.605-4.222-.498-4.047 3.417-9.901 2.726-13.083-1.544-3.156-4.266-2.433-10.513 1.616-13.958 1.95-1.647 4.4-2.395 6.861-2.104.803.095 1.639-.087 2.311-.68 1.31-1.106 1.544-3.124.522-4.505-.5-.676-1.212-1.096-1.99-1.188-4.093-.483-8.145.72-11.405 3.474-6.666 5.63-7.86 15.94-2.663 22.996 5.2 7.03 14.863 8.17 21.554 2.543" fill="#462A00"/><path d="M109.261 59.226L97.196 62.48c-1.93.52-2.585 3.05-1.18 4.543l8.772 9.28c1.405 1.494 3.805.83 4.318-1.164l3.293-12.533c.524-2.014-1.22-3.88-3.168-3.372" fill="#FFCB24"/><ellipse cx="137.286" cy="138.548" rx="137.286" ry="138.548" transform="matrix(-.80729 .59016 .56872 .82253 221.659 0)" fill="#FFCB24"/><path d="M264.289 100.567c2.831-10.863 13.699-17.315 24.264-14.405 10.564 2.911 16.839 14.086 14.008 24.949-2.831 10.863-13.699 17.315-24.263 14.405-10.565-2.911-16.84-14.086-14.009-24.949z" fill="#fff"/><path d="M278.693 96.625c1.478-5.67 7.207-9.072 12.721-7.552 5.515 1.52 8.823 7.41 7.345 13.08-1.478 5.671-7.206 9.072-12.721 7.553-5.515-1.52-8.823-7.41-7.345-13.081z" fill="#000"/><path d="M231.77 100.568c2.831-10.863 13.699-17.315 24.264-14.404 10.564 2.91 16.839 14.086 14.008 24.949-2.831 10.863-13.699 17.315-24.263 14.404-10.565-2.911-16.84-14.086-14.009-24.949z" fill="#fff"/><path d="M246.128 96.625c1.478-5.67 7.207-9.072 12.722-7.552 5.515 1.52 8.822 7.41 7.345 13.08-1.478 5.671-7.207 9.072-12.722 7.553-5.515-1.52-8.822-7.41-7.345-13.081z" fill="#000"/><defs><filter id="filter0_b_88602_3723" x="303.631" y="23.712" width="63.577" height="60.577" filterUnits="userSpaceOnUse" color-interpolation-filters="sRGB"><feFlood flood-opacity="0" result="BackgroundImageFix"/><feGaussianBlur in="BackgroundImageFix" stdDeviation="1.644"/><feComposite in2="SourceAlpha" operator="in" result="effect1_backgroundBlur_88602_3723"/><feBlend in="SourceGraphic" in2="effect1_backgroundBlur_88602_3723" result="shape"/></filter></defs></svg>