<svg width="600" height="140" fill="none" xmlns="http://www.w3.org/2000/svg"><path d="M153.808 10.288l8.008 1.848c-2.464 8.792-6.664 17.64-11.2 23.128-1.456-1.456-4.704-4.144-6.552-5.376 4.312-4.536 7.84-12.096 9.744-19.6zm-1.904 25.536l7.896 1.624c-1.512 7-4.312 14.168-7.336 18.648-1.512-1.288-4.984-3.416-6.888-4.368 2.968-3.752 5.208-9.968 6.328-15.904zm4.144-16.072h21.728v7.504h-24.752l3.024-7.504zm5.152 3.36h8.064v31.36c0 3.696-.56 5.936-2.856 7.28-2.24 1.288-5.096 1.624-8.792 1.624-.336-2.352-1.568-5.992-2.744-8.176 2.184.056 4.536.056 5.32.056.728 0 1.008-.168 1.008-.896V23.112zm8.904 14.504l7.28-2.464c2.744 5.712 4.928 13.048 5.656 18.032l-7.84 2.744c-.448-4.928-2.576-12.6-5.096-18.312zm5.544-17.864h1.064l1.232-.224 5.768 1.008c-.616 4.816-1.624 10.248-2.408 13.776l-6.944-1.232c.448-3.136 1.008-8.288 1.288-12.32v-1.008zm-34.216-9.408l7.672 2.408c-3.584 9.576-9.464 19.992-15.568 26.488-.728-2.016-2.912-6.552-4.256-8.568 4.816-4.872 9.464-12.6 12.152-20.328zm-5.152 16.072l7.728-7.728v44.576h-7.728V26.416zm59.92-7.168h17.304v38.36H196.2v-7.112h9.968V26.304H196.2v-7.056zm-4.704 0h7.336v42.336h-7.336V19.248zm4.48 14.616h13.664v7h-13.664v-7zm3.136-23.744l8.904 1.232c-1.344 3.976-2.8 8.008-3.92 10.696l-6.496-1.4c.672-3.024 1.344-7.336 1.512-10.528zm21.448 8.568h15.904v7.392H220.56v-7.392zm13.104 0h7.504s0 2.576-.056 3.528c-.672 24.92-1.232 33.992-3.584 37.072-1.736 2.464-3.472 3.136-5.936 3.584-2.24.392-5.712.336-9.072.224-.112-2.184-1.232-5.656-2.688-7.896 3.584.336 6.944.336 8.456.336 1.12 0 1.736-.224 2.464-1.008 1.792-1.904 2.408-11.704 2.912-34.328v-1.512zm-13.496-8.4l7.84 1.848c-2.296 8.232-6.104 16.912-9.912 22.288-1.456-1.344-4.816-3.696-6.664-4.76 3.696-4.592 6.944-12.152 8.736-19.376zm-2.856 25.48l6.384-3.584c2.52 3.808 6.16 9.128 7.84 12.432l-6.888 4.2c-1.456-3.416-4.816-8.904-7.336-13.048zm43.456.952h27.496v6.104h-27.496V36.72zm0 8.568h27.496v6.104h-27.496v-6.104zm0 8.736h27.496v7h-27.496v-7zM249.12 17.512h51.184v7.504H249.12v-7.504zm5.04 9.968h40.488v35.84h-8.512V34.48H262.28v28.84h-8.12V27.48zm16.184-5.32l10.472.112c-1.456 3.752-3.528 7.056-4.928 9.408l-7.952-.84c1.008-2.632 1.96-6.048 2.408-8.68zm12.992-12.208l9.464 1.904c-2.296 3.36-4.76 6.44-6.608 8.456l-7.28-1.96c1.624-2.408 3.416-5.824 4.424-8.4zm-25.984 2.912l7.28-3.248c2.128 1.96 4.424 4.648 5.6 6.608l-7.56 3.92c-1.008-1.96-3.304-5.096-5.32-7.28zm77.28 26.32h8.008v24.192h-8.008V39.184zm-14.504-12.376h38.864v6.496h-38.864v-6.496zm6.44-3.696h7.504V35.32h8.96V23.112h7.896v18.48h-24.36v-18.48zm-5.264 20.664h30.912v6.888H329.2v9.688h-7.896V43.776zm27.16 0h8.008v9.8c0 3.304-.56 5.208-2.8 6.328-2.128 1.064-4.872 1.064-8.232 1.064-.28-2.128-1.176-4.984-2.072-6.944 1.512.112 3.696.112 4.256.112.616 0 .84-.168.84-.728v-9.632zM315.256 15.16h44.128v7.224h-44.128V15.16zm-3.976 0h7.784v15.568c0 9.352-.896 23.744-6.16 32.592-1.4-1.344-4.816-3.64-6.664-4.48 4.704-7.952 5.04-19.824 5.04-28.112V15.16zm18.816-3.64l7.952-2.24c1.4 2.52 2.8 5.88 3.248 8.12l-8.456 2.52c-.336-2.184-1.512-5.712-2.744-8.4zM409 11.016l7.728 3.08c-3.92 5.6-9.408 10.472-14.84 13.888-1.288-1.736-3.696-4.144-5.712-5.656 4.648-2.52 10.08-6.888 12.824-11.312zm1.176 15.288l7.448 3.08C413.48 35.208 407.6 40.36 402 44c-1.232-1.792-3.584-4.2-5.6-5.712 4.872-2.688 10.808-7.336 13.776-11.984zm.84 15.4l7.56 2.744c-4.144 7.896-10.416 14.056-17.528 18.368-1.232-2.016-3.584-4.704-5.6-6.384 6.216-3.08 12.376-8.4 15.568-14.728zm-44.688-10.976h32.312v6.104h-32.312v-6.104zm10.976 12.544v1.904h10.584v-1.904h-10.584zM369.8 38.12h25.984v12.152H369.8V38.12zm16.408 14.112l5.656-2.408c1.68 2.912 3.752 6.776 4.592 9.24l-6.048 2.8c-.728-2.52-2.576-6.608-4.2-9.632zm-9.856-29.568v1.344h12.32v-1.344h-12.32zm0-5.824v1.344h12.32V16.84h-12.32zm-7.672-4.76h28.056v16.688H368.68V12.08zm9.744 35.28h7.952v9.184c0 3.192-.448 4.816-2.576 5.824-2.016.952-4.48 1.008-7.448 1.008-.336-2.016-1.288-4.648-2.184-6.44 1.288.056 3.024.056 3.528.056.56 0 .728-.168.728-.672v-8.96zm-7.28 2.52l6.664 2.016c-1.512 3.472-3.976 7.56-6.048 10.024-1.232-1.176-3.92-3.248-5.432-4.256 1.848-2.072 3.696-5.096 4.816-7.784zm7.056-20.272l7.784-1.512c.84 1.344 1.68 3.136 1.904 4.48l-8.176 1.624c-.168-1.232-.84-3.192-1.512-4.592zm50.568-15.288h45.136v7.168h-45.136V14.32zm-3.08 12.656h50.68V34.2h-50.68v-7.224zm11.872 19.096h26.992v6.048H437.56v-6.048zm0 8.848h26.992v6.664H437.56V54.92zm-5.376-18.088h38.304v26.544h-8.568v-19.88h-21.56v19.88h-8.176V36.832zm26.488-16.184l9.184 1.848c-1.344 2.8-2.464 5.208-3.36 6.944l-7.896-1.792c.784-2.016 1.68-4.872 2.072-7zm-23.408 1.792l8.12-1.512c1.232 2.016 2.296 4.816 2.632 6.72l-8.512 1.848c-.224-1.904-1.176-4.928-2.24-7.056zm10.192-11.816l8.568-1.232c1.232 2.016 2.296 4.76 2.632 6.72l-8.904 1.568c-.224-1.904-1.232-4.928-2.296-7.056zm38.752 26.152h51.184v7.112h-51.184v-7.112zm13.608-16.296h30.016v6.216h-30.016V20.48zm0 8.12h30.016v6.216h-30.016V28.6zm15.568 9.8c3.416 9.352 10.64 15.4 23.184 17.64-1.792 1.736-4.088 5.152-5.152 7.336-13.888-3.248-20.944-10.808-25.536-23.24l7.504-1.736zm14.168 4.088l6.552 4.592c-4.032 2.912-8.848 5.712-12.544 7.448l-5.376-4.2c3.64-1.904 8.456-5.208 11.368-7.84zm-34.216-30.632h35.896v6.608H501.68v20.888h-8.344V11.856zm-1.008 51.632l-.56-6.216 3.304-2.352 15.568-2.632c-.448 2.128-.784 5.544-.784 7.28-13.384 2.576-15.96 3.136-17.528 3.92zm-.392-21.896h8.008V57.44l-7.616 6.216c-.448-1.96-2.016-6.216-3.304-8.176 1.4-.728 2.912-2.128 2.912-4.424v-9.464zm73.192 1.512l-1.68-17.696-.336-9.296h10.976l-.336 9.296-1.68 17.696h-6.944zm3.472 15.568c-3.36 0-5.712-2.408-5.712-5.712s2.408-5.6 5.712-5.6 5.712 2.296 5.712 5.6-2.408 5.712-5.712 5.712zM210.78 138l-14.82-44.4h11.64l9 31.14 9.06-31.14h11.7L222.48 138h-11.7zm31.121-36.84V93.6h9.96v7.56h-9.96zm0 36.84v-33.3h9.96V138h-9.96zm51.848-44.4V138h-9.48v-3.6c-.96 1.38-3.36 4.68-10.08 4.68-10.08 0-16.68-7.8-16.68-17.82 0-11.28 8.04-17.7 16.5-17.7 5.88 0 8.7 2.88 9.78 3.96V93.6h9.96zm-26.28 27.6v.06c0 5.1 3.66 8.52 8.34 8.52 2.4 0 4.62-.96 6.18-2.52 1.56-1.56 2.46-3.72 2.34-6.18 0-2.4-.96-4.44-2.46-5.88-1.5-1.5-3.6-2.34-5.94-2.34-5.76 0-8.46 4.5-8.46 8.34zm66.434 3.6h-24.78c.42 3.54 3.78 5.88 7.68 5.88 3.18 0 4.86-1.38 6.06-3.12h10.2c-1.62 3.72-3.96 6.6-6.78 8.52-2.76 1.98-6.06 3-9.48 3-9.54 0-17.64-7.74-17.64-17.64 0-9.3 7.32-17.88 17.46-17.88 5.1 0 9.48 1.98 12.6 5.28 4.2 4.5 5.46 9.84 4.68 15.96zm-24.66-7.56h14.88c-.24-1.56-2.28-5.28-7.44-5.28s-7.2 3.72-7.44 5.28zm28.949 4.08v-.06c0-8.1 5.82-17.64 17.94-17.64 12.12 0 17.94 9.54 17.94 17.7s-5.82 17.7-17.94 17.7c-12.12 0-17.94-9.54-17.94-17.7zm9.96 0v.06c0 4.8 3.66 8.34 7.98 8.34s7.98-3.54 7.98-8.4-3.66-8.4-7.98-8.4-7.98 3.54-7.98 8.4zm48.577-4.98v-.06c0-14.52 11.16-23.52 23.4-23.52 13.68 0 23.46 10.68 23.46 23.04s-9.72 23.04-23.52 23.04c-13.98 0-23.34-11.1-23.34-22.5zm11.34-.66v.06c0 6.78 4.62 13.14 12.24 13.14 8.04 0 11.94-7.32 11.94-13.02 0-5.76-3.9-13.14-12.06-13.14-7.86 0-12.12 6.72-12.12 12.96zM449.624 138v-25.74h-3.72v-7.56h3.72v-1.44c0-9.66 7.14-10.5 14.16-10.5v7.5c-1.86 0-4.2 0-4.2 3.18v1.26h4.2v7.56h-4.2V138h-9.96zm37.407-25.74h-8.58V138h-9.96v-25.74h-3.72v-7.56h3.72v-1.44c0-9.66 7.14-10.5 14.16-10.5v7.5c-1.86 0-4.2 0-4.2 3.18v1.26h18.54V138h-9.96v-25.74zm9.96-11.1h-9.96V93.6h9.96v7.56zm30.695 24.18h10.14c-1.8 7.56-8.46 13.74-17.46 13.74-10.08 0-17.82-7.92-17.82-17.82 0-9.78 7.62-17.7 17.58-17.7 8.82 0 15.96 5.82 17.64 13.98h-10.08c-1.08-2.28-3.06-4.68-7.2-4.68-2.34-.12-4.32.78-5.76 2.34-1.38 1.56-2.16 3.72-2.16 6.12 0 4.86 3.18 8.46 7.92 8.46 4.14 0 6.12-2.4 7.2-4.44zm48.561-.54h-24.78c.42 3.54 3.78 5.88 7.68 5.88 3.18 0 4.86-1.38 6.06-3.12h10.2c-1.62 3.72-3.96 6.6-6.78 8.52-2.76 1.98-6.06 3-9.48 3-9.54 0-17.64-7.74-17.64-17.64 0-9.3 7.32-17.88 17.46-17.88 5.1 0 9.48 1.98 12.6 5.28 4.2 4.5 5.46 9.84 4.68 15.96zm-24.66-7.56h14.88c-.24-1.56-2.28-5.28-7.44-5.28s-7.2 3.72-7.44 5.28zM582.036 138v-33.3h9.36v3.72c.96-1.8 2.7-4.86 8.46-4.86v10.02h-.36c-5.1 0-7.5 1.86-7.5 6.54V138h-9.96z" fill="#000"/><path d="M102.853 107.263H91.318c-.843-3.582-4.086-6.251-7.935-6.251a8.131 8.131 0 00-6.819 3.677v32.979H63.58v-59.86h12.984v13.037a19.412 19.412 0 016.819-1.222c10.145 0 18.519 7.759 19.47 17.64z" fill="#37B5FE"/><path d="M69.437 107.845c-.048 7.948-3.172 15.421-8.814 21.044-5.857 5.849-13.555 8.779-21.252 8.779-7.698 0-15.408-2.93-21.264-8.779-4.894-4.899-7.757-11.08-8.54-17.474a12.508 12.508 0 01-.108-.937c-.024-.107-.024-.202-.024-.296-.047-.344-.059-.688-.083-1.044v-.095a27.088 27.088 0 01-.035-1.388c0-.404.011-.807.035-1.21 0-.178 0-.356.024-.534a17.28 17.28 0 01.154-1.744 29.817 29.817 0 018.577-17.735c5.643-5.647 13.15-8.767 21.133-8.79h.024c5.844 0 10.596 4.733 10.608 10.57.024 5.848-4.716 10.605-10.572 10.629a8.67 8.67 0 00-6.19 2.574c-3.444 3.44-3.444 9.051 0 12.491 3.445 3.441 9.064 3.441 12.521 0a8.766 8.766 0 002.578-6.192c.035-5.825 4.787-10.534 10.608-10.534h.071c5.857.035 10.584 4.804 10.549 10.665z" fill="#FFCB24"/><path d="M120.731 118.853c.701 4.923 4.846 8.209 10.18 8.209 3.516 0 5.785-1.328 7.9-4.069h13.304c-4.145 9.455-12.057 14.995-21.204 14.995-12.52 0-23.01-10.083-23.01-22.966 0-12.883 10.014-23.287 22.773-23.287 12.758 0 22.926 10.238 22.926 23.678 0 1.258-.083 2.266-.309 3.44h-32.56zm19.874-8.754c-1.022-4.449-4.93-7.427-9.931-7.427-4.693 0-8.767 2.812-9.789 7.427h19.72zm18.923 27.569v-34.592h-4.847V93.23h4.847v-1.792c0-7.189 2.827-13.749 16.666-13.749H178v9.763h-.463c-3.374 0-5.013.866-5.013 4.46v1.33H178v9.846h-5.476v34.592h-12.996v-.012z" fill="#37B5FE"/><path d="M102.948 121.677H91.532v15.991h11.416v-15.991zm0-11.578H91.532v8.731h11.416v-8.731z" fill="#395EF7"/><path d="M41.556 85.97a4.955 4.955 0 01-9.907 0 4.955 4.955 0 019.907 0z" fill="#fff"/><path d="M41.07 85.97a2.586 2.586 0 01-2.59 2.586 2.594 2.594 0 01-2.59-2.587 2.594 2.594 0 012.59-2.586 2.594 2.594 0 012.59 2.587z" fill="#000"/><path d="M28.16 51.21h-9.255v13.257h9.254V51.209z" fill="#395EF7"/><path d="M23.536 55.764C10.558 55.764 0 45.364 0 32.578c0-12.785 10.558-23.17 23.536-23.17 6.939 0 13.488 2.996 17.961 8.222a4.508 4.508 0 01-.554 6.422c-1.956 1.624-4.878 1.38-6.52-.546-2.712-3.167-6.683-4.982-10.887-4.982-7.875 0-14.282 6.303-14.282 14.054s6.407 14.07 14.282 14.07c2.555 0 4.623 2.037 4.623 4.561 0 2.525-2.075 4.555-4.623 4.555z" fill="#395EF7"/><path d="M37.968 25.16a4.6 4.6 0 01-.772-.06c-2.518-.413-4.219-2.768-3.8-5.248C35.3 8.647 45.065.52 56.612.52s20.47 7.396 22.936 17.989c.57 2.45-.989 4.901-3.477 5.462-2.495.561-4.975-.974-5.545-3.425-1.49-6.422-7.216-10.903-13.914-10.903-6.7 0-12.933 4.931-14.087 11.723-.383 2.229-2.338 3.801-4.556 3.801" fill="#37B5FE"/><path d="M93.095 51.21H83.84v13.257h9.254V51.209z" fill="#FFCB24"/><path d="M88.464 55.764c-2.555 0-4.63-2.045-4.63-4.555s2.075-4.561 4.63-4.561c7.875 0 14.282-6.312 14.282-14.07s-6.407-14.054-14.282-14.054c-3.799 0-7.373 1.454-10.07 4.096a4.647 4.647 0 01-3.365 1.432c-2.555 0-4.63-2.037-4.63-4.554a4.53 4.53 0 011.34-3.219c4.459-4.436 10.4-6.872 16.725-6.872C101.442 9.407 112 19.801 112 32.586c0 12.785-10.558 23.185-23.536 23.185M42.77 60.407V38.454c0-3.514 3.867-5.706 6.947-3.942L68.914 45.49c3.073 1.757 3.073 6.127 0 7.883L49.717 64.35c-3.087 1.764-6.946-.428-6.946-3.942z" fill="#FFCB24"/></svg>