<svg width="249" height="375" fill="none" xmlns="http://www.w3.org/2000/svg"><mask id="a" style="mask-type:alpha" maskUnits="userSpaceOnUse" x="0" y="0" width="249" height="375"><path fill="#D9D9D9" d="M0 0h249v375H0z"/></mask><g mask="url(#a)"><path d="M16 355.429c15.99-8.817 35.924-18.555 46.43-34.217 12.66-18.873 8.464-49.102 9.02-70.543.373-14.375 1.071-28.734 4.174-42.837 2.872-13.05 12.424-22.282 23.013-29.831 11.69-8.335 26.812-10.925 39.966-16.075 18.379-7.195 37.063-16.152 51.189-30.299C225.813 95.554 216.09 42.164 237.496-.499c7.191-14.33 16.564-17.854 31.587-21.552 16.925-4.167 32.922-11.797 50.63-11.338" stroke="#fff" stroke-width="8" stroke-linecap="round"/><path d="M209.41 96.572c-7.321-2.486-11.241-10.436-8.755-17.758 2.486-7.321 10.436-11.241 17.758-8.755 7.321 2.486 11.241 10.436 8.755 17.758-2.486 7.321-10.436 11.241-17.758 8.755z" fill="#FFCB24"/></g></svg>