<svg width="557" height="321" fill="none" xmlns="http://www.w3.org/2000/svg"><mask id="a" style="mask-type:alpha" maskUnits="userSpaceOnUse" x="0" y="0" width="557" height="321"><path fill="#D9D9D9" d="M0 0h557v321H0z"/></mask><g mask="url(#a)"><path d="M-206 355.169c19.75 11.081 42.392 11.994 64.017 17.377 19.194 4.777 31.895 6.384 48.574-5.534 49.653-35.478 70.5-101.653 132.75-120.962 24.412-7.573 50.883-6.558 75.959-3.733 17.947 2.022 36.593 8.112 54.784 5.659 16.477-2.222 32.785-6.965 43.815-20.009 11.921-14.098 21.274-29.92 30.27-45.953 13.417-23.915 26.702-60.601 52.275-74.393 21.222-11.446 72.913-11.003 72.913-11.003C413.405 97.745 514.7 81 567.5 5" stroke="#F5A218" stroke-width="8" stroke-linecap="round"/><circle cx="292" cy="112" r="14" fill="#fff"/></g></svg>