<svg width="202" height="324" fill="none" xmlns="http://www.w3.org/2000/svg"><mask id="a" style="mask-type:alpha" maskUnits="userSpaceOnUse" x="0" y="0" width="202" height="324"><path fill="#D9D9D9" d="M0 0h202v324H0z"/></mask><g mask="url(#a)"><ellipse cx="182" cy="65.841" rx="180" ry="206.66" fill="#FFEBD3"/><path d="M293.335 448.161c.01-21.999 1.345-48.695-9.058-68.895-12.536-24.342-46.863-37.517-69.155-50.588-14.945-8.763-29.684-17.86-42.753-29.344-12.093-10.627-16.269-26.077-18.066-41.641-1.985-17.184 4.087-34.642 6.314-51.516 3.112-23.575 12.848-67.856 6.152-90.992C149.692 56.187 88.685 51.604 55.181-12.062c-33.504-63.666-.243-72.428 10.282-95.626" stroke="#F5A218" stroke-width="8" stroke-linecap="round"/><circle cx="164" cy="194.007" r="14" fill="#462A00"/></g></svg>