<svg width="180" height="40" fill="none" xmlns="http://www.w3.org/2000/svg"><mask id="a" style="mask-type:alpha" maskUnits="userSpaceOnUse" x="0" y="0" width="180" height="40"><path fill="#D9D9D9" d="M0 0h180v40H0z"/></mask><g mask="url(#a)"><circle cx="20" cy="19.692" r="17" stroke="#757575" stroke-width="6"/><path d="M24.167 18.442v-2.917a.836.836 0 00-.834-.833h-10a.836.836 0 00-.833.833v8.334c0 .458.375.833.833.833h10a.836.836 0 00.834-.833v-2.917l1.908 1.908c.525.525 1.425.15 1.425-.591v-5.142c0-.742-.9-1.117-1.425-.592l-1.908 1.917z" fill="#37B5FE"/><rect x="44" y="-.308" width="136" height="40" rx="20" fill="#37B5FE"/><path d="M65 7.192c-6.9 0-12.5 5.6-12.5 12.5s5.6 12.5 12.5 12.5 12.5-5.6 12.5-12.5-5.6-12.5-12.5-12.5zm-2.5 16.875v-8.75a.625.625 0 011-.5l5.838 4.375a.62.62 0 010 1L63.5 24.567a.625.625 0 01-1-.5z" fill="#fff"/><path stroke="#000" d="M84.5 12.692v14m64-8v3m-12-3v3m-44-4v5m64-5v5m-60-6v7m64-7v7m-40-8v9m8-9v9m12-9v9m-16-13v17m-12-14v11m4-8v5m16-5v5m-32-8v11m64-11v11m-56-13v15m36-15v15m-40-17v19m-16-13v8m64-8v8"/></g></svg>