<svg width="190" height="235" fill="none" xmlns="http://www.w3.org/2000/svg"><path d="M82.553 44.155l6.87 15.257c3.306.395 6.589 1.04 9.79 1.986L90.061 41.07l-7.508 3.085z" fill="#462A00"/><path d="M88.053 46.414c10.623-4.508 15.542-16.804 10.97-27.428C94.44 8.396 82.056 3.44 71.433 7.949c-5.706 2.421-9.994 7.17-11.777 13.072-.678 2.176.562 4.47 2.766 5.122a4.115 4.115 0 005.168-2.713c1.086-3.581 3.693-6.44 7.139-7.93 6.448-2.735 13.952.266 16.734 6.695 2.783 6.428-.21 13.912-6.659 16.648-2.087.886-3.05 3.292-2.162 5.406a4.144 4.144 0 005.412 2.165z" fill="#462A00"/><path d="M65.57 26.086s.414-.179.592-.337c1.899-1.232 2.456-3.765 1.24-5.668-5.495-8.592-16.258-11.901-25.649-7.81-8.964 3.88-14.025 13.303-12.33 22.94a4.044 4.044 0 004.735 3.271c2.218-.414 3.68-2.547 3.31-4.762a12.657 12.657 0 017.461-13.9c5.7-2.467 12.235-.465 15.555 4.73 1.104 1.704 3.248 2.332 5.04 1.556M36.736 82.351a49.49 49.49 0 015.993-6.828L37.64 63.496l-7.513 3.234 6.608 15.621z" fill="#462A00"/><path d="M35.368 68.995c2.083-.899 3.052-3.321 2.177-5.442a4.081 4.081 0 00-5.379-2.151c-6.431 2.778-13.889-.206-16.664-6.666-2.742-6.447.258-13.945 6.703-16.756a12.574 12.574 0 019.696-.125c1.022.41 2.178.487 3.256-.006a4.136 4.136 0 002.163-5.409 4.054 4.054 0 00-2.222-2.197c-5.213-2.085-10.926-2.061-16.109.177C8.393 34.996 3.443 47.372 7.947 58.027 12.464 68.647 24.772 73.57 35.4 69.008" fill="#462A00"/><path d="M50.057 39.593l16.898.522c2.702.084 4.244 3.071 2.771 5.365l-9.203 14.266c-1.472 2.293-4.838 2.168-6.047-.187L46.78 44.771c-1.23-2.377.594-5.24 3.319-5.176" fill="#FFCB24"/><ellipse cx="89.5" cy="90" rx="89.5" ry="90" transform="matrix(-1 0 0 1 190 55)" fill="#37B5FE"/><g clip-path="url(#clip0_87584_6992)"><path d="M168.718 101.395c-.921 10.737-10.379 18.701-21.116 17.78-10.737-.921-18.701-10.38-17.779-21.117.921-10.737 10.379-18.7 21.116-17.78 10.737.922 18.701 10.38 17.779 21.117z" fill="#fff"/><path d="M143.335 99.823c.481 5.604 3.717-4.736 9.322-5.217 5.605-.481 11.552 9.071 11.071 3.467-.48-5.605-5.466-9.803-11.071-9.322-5.605.48-9.803 5.467-9.322 11.072z" fill="#000"/></g><g clip-path="url(#clip1_87584_6992)"><path d="M137.175 107.012c-.922 10.737-10.38 18.701-21.117 17.779-10.737-.921-18.7-10.379-17.78-21.116.922-10.737 10.38-18.7 21.117-17.78 10.737.922 18.701 10.38 17.78 21.117z" fill="#fff"/><path d="M111.582 105.345c.481 5.604 3.717-5.297 9.322-5.778 5.605-.48 11.552 9.633 11.071 4.028-.48-5.605-5.466-9.803-11.071-9.322-5.605.48-9.803 5.467-9.322 11.072z" fill="#000"/></g><defs><clipPath id="clip0_87584_6992"><path fill="#fff" transform="rotate(4.904 -852.109 1574.599)" d="M0 0h39.039v39.039H0z"/></clipPath><clipPath id="clip1_87584_6992"><path fill="#fff" transform="rotate(4.904 -933.461 1209.102)" d="M0 0h39.039v39.039H0z"/></clipPath></defs></svg>