<svg width="1142" height="386" fill="none" xmlns="http://www.w3.org/2000/svg"><mask id="a" style="mask-type:alpha" maskUnits="userSpaceOnUse" x="0" y="0" width="1142" height="386"><path fill="#241A00" d="M0 0h1142v386H0z"/></mask><g mask="url(#a)"><path fill="#241A00" d="M0 0h1142v386H0z"/><circle cx="166" cy="233" r="197" fill="#F5A218"/><g clip-path="url(#clip0_88591_11166)"><path d="M296.357 123.76c-3.993 15.749-20.01 25.288-35.759 21.295-15.749-3.992-25.288-20.009-21.296-35.759 3.993-15.75 20.01-25.288 35.759-21.295 15.75 3.992 25.289 20.009 21.296 35.759z" fill="#fff"/><path d="M282.706 120.54c-2.084 8.222-10.527 13.25-18.749 11.166-8.221-2.084-13.249-10.527-11.165-18.749 2.084-8.221 10.527-13.25 18.749-11.165 8.221 2.084 13.249 10.527 11.165 18.748z" fill="#000"/></g><g clip-path="url(#clip1_88591_11166)"><path d="M248.056 124.413c-3.993 15.75-20.01 25.289-35.76 21.296-15.749-3.993-25.288-20.01-21.295-35.759 3.992-15.75 20.01-25.288 35.759-21.296 15.749 3.993 25.288 20.01 21.296 35.759z" fill="#fff"/><path d="M234.706 120.541c-2.084 8.221-10.527 13.249-18.749 11.165-8.221-2.084-13.249-10.527-11.165-18.749 2.084-8.221 10.527-13.25 18.749-11.165 8.221 2.084 13.249 10.527 11.165 18.749z" fill="#000"/></g><path d="M1229.5 233.5c0 61.304-49.7 111-111 111s-111-49.696-111-111 49.7-111 111-111 111 49.696 111 111z" fill="#462A00"/><path d="M688.87 406.508c21.952-1.456 48.677-1.904 68.139-13.63 23.452-14.131 34.31-49.259 45.866-72.372 7.747-15.497 15.842-30.809 26.429-44.614 9.797-12.775 24.935-17.971 40.345-20.802 17.013-3.126 34.837 1.77 51.822 2.867 23.73 1.534 68.562 8.297 91.199.073 57.73-20.971 58.24-82.148 119.53-119.821s72.25-5.07 96.1 3.885" stroke="#F5A218" stroke-width="8" stroke-linecap="round"/><circle cx="1019.5" cy="126.5" r="11.5" fill="#FFDF91"/></g><defs><clipPath id="clip0_88591_11166"><path fill="#fff" transform="rotate(14.225 -200.383 1028.274)" d="M0 0h58.859v58.859H0z"/></clipPath><clipPath id="clip1_88591_11166"><path fill="#fff" transform="rotate(14.225 -227.153 835.053)" d="M0 0h58.859v58.859H0z"/></clipPath></defs></svg>