<svg id="_圖層_1" data-name="圖層 1" xmlns="http://www.w3.org/2000/svg" width="2500" height="50"><defs><mask id="mask" x="26.38" y="26.14" width="9.74" height="5.53" maskUnits="userSpaceOnUse"><path class="cls-4" d="M31.22 30.93c-1.45 0-2.89-.45-4.09-1.35-.83-.62-1-1.8-.38-2.63.62-.83 1.8-1 2.63-.38 1.02.76 2.42.81 3.49.13a1.875 1.875 0 112.02 3.16 6.831 6.831 0 01-3.67 1.06z" id="mask0_85715_3718" data-name="mask0 85715 3718"/></mask><mask id="mask-1" x="6.51" y="4.55" width="3.43" height="6.85" maskUnits="userSpaceOnUse"><path class="cls-4" d="M9.13 4.55l-2.62 6.52.81.32 2.62-6.52-.81-.32z" id="mask1_85715_3718" data-name="mask1 85715 3718"/></mask><mask id="mask-2" x="5.82" y="10.93" width="4.52" height="3.37" maskUnits="userSpaceOnUse"><path class="cls-4" d="M6.57 10.93l-.74 1.85 3.77 1.51.74-1.85-3.77-1.51z" id="mask2_85715_3718" data-name="mask2 85715 3718"/></mask><mask id="mask-3" x="119.02" y="23.92" width="8.18" height="8.19" maskUnits="userSpaceOnUse"><path class="cls-4" d="M123.45 29.32c-2.07 0-3.76-1.68-3.76-3.76v-.08c.02-.87.73-1.56 1.59-1.56h.03c.88.02 1.57.74 1.56 1.62v.02a.58.58 0 001.16 0c0-.88.71-1.59 1.59-1.59s1.59.71 1.59 1.59c0 2.07-1.68 3.76-3.76 3.76z" id="mask4_85715_3718" data-name="mask4 85715 3718"/></mask><mask id="mask-4" x="175.11" y="16.74" width="8.94" height="7.42" maskUnits="userSpaceOnUse"><path class="cls-4" d="M184.04 19.7c0 2.47-2 4.47-4.47 4.47a4.468 4.468 0 01-3.48-7.27l7.89 2.11c.04.23.06.46.06.69z" id="mask6_85715_3718" data-name="mask6 85715 3718"/></mask><mask id="mask-5" x="184.04" y="16.74" width="8.94" height="7.42" maskUnits="userSpaceOnUse"><path class="cls-4" d="M184.04 19.7c0 2.47 2 4.47 4.47 4.47a4.468 4.468 0 003.48-7.27l-7.89 2.11c-.04.23-.06.46-.06.69z" id="mask7_85715_3718" data-name="mask7 85715 3718"/></mask><mask id="mask-6" x="267.8" y="26.83" width="8.94" height="4.67" maskUnits="userSpaceOnUse"><path class="cls-4" d="M275.67 27.78h-6.79c-.59 0-1.07.48-1.07 1.07v.62c0 .59.48 1.07 1.07 1.07h6.79c.59 0 1.07-.48 1.07-1.07v-.62c0-.59-.48-1.07-1.07-1.07z" id="mask10_85715_3718" data-name="mask10 85715 3718"/></mask><mask id="mask-7" x="367.39" y="17.86" width="8.94" height="6.8" maskUnits="userSpaceOnUse"><path class="cls-4" d="M376.33 20.19c0 .97-.31 1.87-.84 2.6a4.47 4.47 0 01-3.63 1.87c-2.47 0-4.47-2-4.47-4.47h8.94z" id="mask12_85715_3718" data-name="mask12 85715 3718"/></mask><mask id="mask-8" x="375.95" y="17.86" width="8.94" height="6.8" maskUnits="userSpaceOnUse"><path class="cls-4" d="M384.89 20.19c0 .97-.31 1.87-.84 2.6a4.47 4.47 0 01-3.63 1.87c-2.47 0-4.47-2-4.47-4.47h8.94z" id="mask13_85715_3718" data-name="mask13 85715 3718"/></mask><mask id="mask-9" x="380.24" y="39.8" width="4.76" height="2.72" maskUnits="userSpaceOnUse"><path class="cls-4" d="M385 39.8h-4.76v2.72H385V39.8z" id="mask14_85715_3718" data-name="mask14 85715 3718"/></mask><mask id="mask-10" x="414.36" y="13.04" width="8.94" height="7.43" maskUnits="userSpaceOnUse"><path class="cls-4" d="M423.29 16c0 2.47-2 4.47-4.47 4.47s-4.47-2-4.47-4.47c0-1.06.37-2.04.99-2.81l7.89 2.11c.04.23.06.46.06.69z" id="mask18_85715_3718" data-name="mask18 85715 3718"/></mask><mask id="mask-11" x="423.29" y="13.04" width="8.94" height="7.43" maskUnits="userSpaceOnUse"><path class="cls-4" d="M423.29 16c0 2.47 2 4.47 4.47 4.47s4.47-2 4.47-4.47c0-1.06-.37-2.04-.99-2.81l-7.89 2.11c-.04.23-.06.46-.06.69z" id="mask19_85715_3718" data-name="mask19 85715 3718"/></mask><mask id="mask-12" x="415.06" y="17.76" width="5.75" height="7.16" maskUnits="userSpaceOnUse"><path class="cls-4" d="M416.34 19.79c.5-.68 1.12-1.27 1.85-1.75a1.7 1.7 0 012.34.48c.51.78.3 1.83-.48 2.34-.86.57-1.43 1.41-1.65 2.45-.19.91-1.08 1.51-2 1.31-.92-.19-1.5-1.08-1.31-2 .21-1.05.63-2 1.25-2.83z" id="mask20_85715_3718" data-name="mask20 85715 3718"/></mask><mask id="mask-13" x="433.9" y="31.48" width="5.14" height="6.04" maskUnits="userSpaceOnUse"><path class="cls-4" d="M437.07 34.9a5.6 5.6 0 01-.65 1.92c-.36.65-1.17.89-1.82.53-.65-.36-.89-1.17-.53-1.82a3 3 0 00.24-2.33c-.21-.71.2-1.46.91-1.66.71-.21 1.46.2 1.67.91.24.82.3 1.64.18 2.46z" id="mask21_85715_3718" data-name="mask21 85715 3718"/></mask><mask id="mask-14" x="541.35" y="3.76" width=".83" height="6.71" maskUnits="userSpaceOnUse"><path class="cls-4" d="M542.18 3.76h-.83v6.71h.83V3.76z" id="mask26_85715_3718" data-name="mask26 85715 3718"/></mask><mask id="mask-15" x="541.35" y="10.32" width="3.88" height="1.91" maskUnits="userSpaceOnUse"><path class="cls-4" d="M545.23 10.32h-3.88v1.91h3.88v-1.91z" id="mask27_85715_3718" data-name="mask27 85715 3718"/></mask><mask id="mask-16" x="503.78" y="18.42" width="35.01" height="23.58" maskUnits="userSpaceOnUse"><path class="cls-4" d="M538.8 18.42h-35.01V42h35.01V18.42z" id="mask28_85715_3718" data-name="mask28 85715 3718"/></mask><mask id="mask-17" x="566.69" y="40.63" width="13.95" height="2.75" maskUnits="userSpaceOnUse"><path class="cls-4" d="M580.64 40.63h-13.95v2.73h13.95v-2.73z" id="mask30_85715_3718" data-name="mask30 85715 3718"/></mask><mask id="mask-18" x="576.94" y="10.42" width="9.65" height="13.79" maskUnits="userSpaceOnUse"><path class="cls-4" d="M581.41 24.22c2.47 0 4.47-3.09 4.47-6.9s-2-6.9-4.47-6.9-4.47 3.09-4.47 6.9 2 6.9 4.47 6.9z" id="mask31_85715_3718" data-name="mask31 85715 3718"/></mask><mask id="mask-19" x="569.77" y="10.42" width="9.73" height="13.79" maskUnits="userSpaceOnUse"><path class="cls-4" d="M574.24 24.22c2.47 0 4.47-3.09 4.47-6.9s-2-6.9-4.47-6.9-4.47 3.09-4.47 6.9 2 6.9 4.47 6.9z" id="mask32_85715_3718" data-name="mask32 85715 3718"/></mask><mask id="mask-20" x="573.37" y="22.84" width="5.68" height="5.26" maskUnits="userSpaceOnUse"><path class="cls-4" d="M576.94 26.73c-.46.5-1 .91-1.61 1.23a1.344 1.344 0 11-1.23-2.39 3.02 3.02 0 001.51-1.79c.23-.7.98-1.1 1.69-.86.71.23 1.1.98.87 1.69-.26.8-.68 1.52-1.23 2.13z" id="mask33_85715_3718" data-name="mask33 85715 3718"/></mask><mask id="mask-21" x="764.03" y="28.19" width="9.15" height="10.05" maskUnits="userSpaceOnUse"><path class="cls-4" d="M766.12 28.19h4.98c1.13 0 2.05.92 2.05 2.05s-.92 2.05-2.05 2.05h-4.98c-1.13 0-2.05-.92-2.05-2.05s.92-2.05 2.05-2.05z" id="mask0_86643_14603" data-name="mask0 86643 14603"/></mask><mask id="mask-22" x="777.61" y="28.44" width="13.38" height="10.2" maskUnits="userSpaceOnUse"><path class="cls-4" d="M777.61 36.05l1.69-7.61 11.69 2.59-1.69 7.61-11.69-2.59z" id="mask1_86643_14603" data-name="mask1 86643 14603"/></mask><mask id="mask-23" x="879.59" y="13.93" width="8.85" height="7.35" maskUnits="userSpaceOnUse"><path class="cls-4" d="M888.44 16.85c0 2.44-1.98 4.42-4.42 4.42a4.421 4.421 0 01-3.44-7.2l7.82 2.09c.04.22.06.46.06.69z" id="mask0_86663_15801" data-name="mask0 86663 15801"/></mask><mask id="mask-24" x="888.44" y="13.93" width="8.85" height="7.35" maskUnits="userSpaceOnUse"><path class="cls-4" d="M888.44 16.85c0 2.44 1.98 4.42 4.43 4.42s4.42-1.98 4.42-4.42c0-1.05-.37-2.02-.98-2.78l-7.82 2.09c-.04.22-.06.46-.06.69z" id="mask1_86663_15801" data-name="mask1 86663 15801"/></mask><clipPath id="clippath"><path class="cls-43" d="M250.07-.37h49.64v49.64h-49.64z"/></clipPath><clipPath id="clippath-1"><path class="cls-43" d="M298.07-.37h49.64v49.64h-49.64z"/></clipPath><clipPath id="clippath-2"><path class="cls-43" d="M352.07-.37h49.64v49.64h-49.64z"/></clipPath><clipPath id="clippath-3"><path class="cls-43" d="M400.07-.37h49.64v49.64h-49.64z"/></clipPath><clipPath id="clippath-4"><path class="cls-43" d="M548.07-.37h49.64v49.64h-49.64z"/></clipPath><clipPath id="clippath-5"><path class="cls-43" d="M602.07-.37h49.64v49.64h-49.64z"/></clipPath><clipPath id="clippath-6"><path class="cls-43" d="M649.07-.37h49.64v49.64h-49.64z"/></clipPath><clipPath id="clippath-7"><path class="cls-43" d="M758.21 0H793v49.95h-34.79z"/></clipPath><clipPath id="clippath-8"><path class="cls-43" d="M800.61 4.53H849v45.24h-48.39z"/></clipPath><clipPath id="clippath-9"><path class="cls-43" d="M851.11 0h47.84v50h-47.84z"/></clipPath><style>.cls-1{fill:#00aeff}.cls-2{fill:#ffcb24}.cls-4{fill:#fff}.cls-5{fill:#ea49b5}.cls-6{fill:#b431d3}.cls-7{fill:#f59bc8}.cls-11{fill:#dd2a2a}.cls-19{fill:#002189}.cls-21{fill:#705cff}.cls-24{fill:#00bc95}.cls-28{fill:#028014}.cls-30{fill:#13e8c5}.cls-33{fill:#ea3d07}.cls-34{fill:#cf60ea}.cls-37{fill:#00ad36}.cls-40{fill:#ae5bff}.cls-43{fill:none}.cls-45{fill:#056da0}.cls-47{fill:#d8a209}.cls-51{fill:#02b2a1}.cls-53{fill:#c9c427}.cls-54{fill:#c6960e}.cls-55{fill:#02916f}.cls-59{fill:#ff7ecf}.cls-63{fill:#231815}.cls-64{fill:#ce7000}.cls-65{fill:#7a38c6}.cls-68{fill:#82d353}.cls-71{fill:#ff9100}</style></defs><path class="cls-19" d="M43.16 48.03c-.48 0-.95-.2-1.28-.59l-6.56-7.78c-.59-.71-.5-1.76.2-2.36.71-.6 1.76-.51 2.36.2l5.48 6.51 2.61-2.2c.71-.59 1.76-.5 2.36.2.59.71.5 1.76-.2 2.36l-3.89 3.28c-.31.26-.7.39-1.08.39zm-31.58.67c-.56 0-1.11-.28-1.43-.8l-2.66-4.34c-.23-.38-.3-.83-.2-1.26.1-.43.37-.8.75-1.04l8.68-5.31a1.68 1.68 0 012.3.55c.48.79.23 1.82-.55 2.3l-7.26 4.44 1.78 2.91c.48.79.24 1.82-.55 2.3-.27.17-.57.25-.87.25z"/><path class="cls-4" d="M16.51 9.09l1.12 2.9 6.51-2.52-1.12-2.9c.93-.48 1.37-1.61.98-2.61a2.102 2.102 0 00-3.19-.94 3.013 3.013 0 00-3.15-.61 2.99 2.99 0 00-1.92 2.57 2.102 2.102 0 00-1.73 2.84c.39 1 1.47 1.54 2.49 1.27z"/><path d="M27.8 42.7c-6.04 6.68-11.51 4.23-10.75-4.45-8.68.76-11.13-4.71-4.45-10.75-6.68-6.04-4.23-11.51 4.45-10.75-.76-8.68 4.71-11.13 10.75-4.45 6.04-6.68 11.51-4.23 10.75 4.45 8.68-.76 11.13 4.71 4.45 10.75 6.68 6.04 4.23 11.51-4.45 10.75.76 8.68-4.71 11.13-10.75 4.45z" fill="#224ce7"/><path class="cls-4" d="M31.22 30.93c-1.45 0-2.89-.45-4.09-1.35-.83-.62-1-1.8-.38-2.63.62-.83 1.8-1 2.63-.38 1.02.76 2.42.81 3.49.13a1.875 1.875 0 112.02 3.16 6.831 6.831 0 01-3.67 1.06z"/><g mask="url(#mask)"><path transform="rotate(-53.75 28.344 28.389)" d="M26.04 28.29h4.6v.21h-4.6z"/><path d="M31.42 31.67l-.46-5.12.21-.02.45 5.12-.2.02zm4.52-.83l-3.1-4.58.17-.12 3.11 4.58-.18.12z"/></g><path class="cls-4" d="M35.53 25.1c2.47 0 4.47-2 4.47-4.47s-2-4.47-4.47-4.47-4.47 2-4.47 4.47 2 4.47 4.47 4.47z"/><path class="cls-4" d="M27.67 25.1c2.47 0 4.47-2 4.47-4.47s-2-4.47-4.47-4.47-4.47 2-4.47 4.47 2 4.47 4.47 4.47z"/><path class="cls-63" d="M27.97 22.04c-.9 1.87-1.72 1.5-.99-.41-1.91.73-2.28-.09-.41-.99-1.87-.9-1.5-1.72.41-.99-.73-1.91.09-2.28.99-.41.9-1.87 1.72-1.5.99.41 1.91-.73 2.28.09.41.99 1.87.9 1.5 1.72-.41.99.73 1.91-.09 2.28-.99.41zm7.87 0c-.9 1.87-1.72 1.5-.99-.41-1.91.73-2.28-.09-.41-.99-1.87-.9-1.5-1.72.41-.99-.73-1.91.09-2.28.99-.41.9-1.87 1.72-1.5.99.41 1.91-.73 2.28.09.41.99 1.87.9 1.5 1.72-.41.99.73 1.91-.09 2.28-.99.41z"/><path class="cls-19" d="M9.4 39.02c-1.82-.88-3.37-2.45-3.19-4.61.15-1.86 1.54-3.36 3.17-4.11.7-.32.09-1.35-.6-1.03-2.03.94-3.59 2.87-3.76 5.14-.2 2.56 1.6 4.58 3.78 5.64.69.33 1.29-.7.6-1.03zm4.07 1.33c-.78-.19-1.55-.43-2.3-.73-.14-.05-.34 0-.46.06-.12.07-.24.21-.27.36-.04.15-.03.32.06.46s.2.21.36.27c.75.3 1.52.54 2.3.73.3.08.66-.1.73-.42s-.09-.65-.42-.73z"/><path d="M7.27 12.96l1.11.44-3.82 9.53-1.11-.44 3.82-9.53zm1.86-8.41l-2.62 6.52.81.32 2.62-6.52-.81-.32z"/><g mask="url(#mask-1)"><path d="M9.13 4.59l.74.3-2.59 6.44-.74-.3 2.59-6.44z"/></g><path d="M10.61 5.18l.74.3-2.59 6.44-.74-.3 2.59-6.44zm1.49.59l.8.32-2.59 6.44-.8-.32 2.59-6.44z"/><path d="M6.57 10.93l-.74 1.85 3.77 1.51.74-1.85-3.77-1.51z"/><g mask="url(#mask-2)"><path d="M6.57 10.96l3.71 1.49a1.98 1.98 0 01-2.56 1.1l-.05-.02a1.98 1.98 0 01-1.1-2.56z"/></g><path d="M5.82 20.32l-3.19 7.95c-.16.41-.63.61-1.04.44a.791.791 0 01-.44-1.04l3.19-7.95 1.49.6z"/><path class="cls-19" d="M5.79 22.89c-.5 0-1.05-.1-1.61-.32C2.4 21.89 1.5 20.5 2 19.2c.5-1.3 2.09-1.73 3.87-1.05.61.24 1.15.57 1.54.96.71.7.94 1.6.63 2.41-.34.89-1.19 1.37-2.26 1.37zm-.86-2.57c-.07.18-.09.36-.09.52.11-.12.21-.26.28-.45s.09-.36.09-.52c-.11.12-.21.26-.28.45z"/><path class="cls-19" d="M5.12 24.66c-.51 0-1.07-.11-1.62-.32-.61-.24-1.15-.57-1.54-.96-.71-.7-.94-1.6-.63-2.41.31-.8 1.09-1.31 2.08-1.36.56-.03 1.18.08 1.79.32.61.24 1.15.57 1.54.96.71.7.94 1.6.63 2.41-.31.8-1.09 1.31-2.08 1.36h-.17zm-.74-1.41zm.15-1.61c-.11.12-.21.26-.28.45s-.09.36-.09.52c.11-.12.21-.26.28-.45s.09-.36.09-.52z"/><path class="cls-19" d="M11.13 28.67c-.95 0-1.96-.09-2.99-.5-1.58-.64-4.2-3.23-4.46-5.22a1.668 1.668 0 113.31-.43c.14.64 1.66 2.26 2.39 2.56.74.3 1.62.27 2.64.23.27 0 .55-.02.82-.02h.02c.91 0 1.66.74 1.67 1.65.01.92-.73 1.68-1.65 1.69-.25 0-.5.01-.75.02-.33.01-.67.02-1.02.02z"/><path d="M17.47 12.2c-.25 0-.49-.15-.58-.4l-.94-2.43c-1.15.05-2.24-.63-2.67-1.74-.54-1.4.16-2.98 1.56-3.52.07-.02.13-.05.2-.07a3.646 3.646 0 012.25-2.63c1.16-.45 2.44-.28 3.43.43a2.726 2.726 0 012.91 4.56l.94 2.43c.12.32-.04.69-.36.81a.624.624 0 01-.81-.36l-1.12-2.9c-.12-.3.01-.64.3-.78.66-.34.96-1.13.69-1.83a1.474 1.474 0 00-1.9-.84c-.11.05-.23.11-.33.18-.24.18-.58.16-.8-.05a2.39 2.39 0 00-2.5-.48 2.36 2.36 0 00-1.52 2.03.62.62 0 01-.56.57c-.13.01-.25.04-.38.09-.74.29-1.12 1.14-.83 1.9.27.7 1.02 1.08 1.74.89.31-.08.63.08.74.38l1.12 2.9c.12.32-.04.69-.36.81-.07.03-.15.04-.23.04z"/><path d="M19.14 10.11c-.25 0-.49-.15-.58-.4l-.28-.73c-.13-.32.03-.69.36-.81.32-.12.69.03.81.36l.28.73c.13.32-.03.69-.36.81-.07.03-.15.04-.23.04zm2.17-.83c-.25 0-.49-.15-.59-.4l-.28-.73c-.12-.32.04-.69.36-.81.32-.12.69.04.81.36l.28.73c.12.32-.04.69-.36.81-.07.03-.15.04-.23.04z"/><path class="cls-4" d="M60.59 18.47L62 21.24l6.22-3.16-1.41-2.77c.88-.58 1.2-1.74.72-2.7a2.1 2.1 0 00-2.82-.92c-.16.08-.31.19-.45.31a3.02 3.02 0 00-3.19-.29 3.016 3.016 0 00-1.66 2.74 2.1 2.1 0 00-1.43 3c.49.96 1.62 1.38 2.6 1.01z"/><path class="cls-5" d="M79.58 48.6h-4.57c-.52 0-1.02-.24-1.33-.66-.32-.42-.42-.96-.28-1.46.03-.12 3.22-11.79.14-17.49-.44-.81-.14-1.83.68-2.27.81-.44 1.83-.14 2.27.68 2.85 5.28 1.5 13.88.65 17.86h2.45c.92 0 1.67.75 1.67 1.67s-.75 1.67-1.67 1.67zm-9.54 0h-4.57c-.52 0-1.02-.24-1.33-.66-.32-.42-.42-.96-.28-1.46.03-.12 3.22-11.79.14-17.49-.44-.81-.14-1.83.68-2.27.81-.44 1.83-.14 2.27.68 2.85 5.28 1.5 13.88.65 17.86h2.45c.92 0 1.67.75 1.67 1.67s-.75 1.67-1.67 1.67z"/><path class="cls-59" d="M90.93 31.5H54.88s-2.8-.55-2.3-3.42c.5-2.88 19.21-13.46 25.33-13.24 6.12.23 18.57 3.4 18.57 9.53s-5.54 7.13-5.54 7.13"/><path class="cls-59" d="M78.6 12.48h-2.61v3.41h2.61v-3.41z"/><path class="cls-63" d="M85.96 29.31l-6.42-3.08v3.08h6.42zm-9.06 0v-3.04l-6.6 3.04h6.6z"/><path class="cls-4" d="M74.5 27.58c2.47 0 4.47-2 4.47-4.47s-2-4.47-4.47-4.47-4.47 2-4.47 4.47 2 4.47 4.47 4.47z"/><path class="cls-4" d="M81.76 27.58c2.47 0 4.47-2 4.47-4.47s-2-4.47-4.47-4.47-4.47 2-4.47 4.47 2 4.47 4.47 4.47z"/><path class="cls-63" d="M83.55 26.65c1.29 0 2.34-1.05 2.34-2.34s-1.05-2.34-2.34-2.34-2.34 1.05-2.34 2.34 1.05 2.34 2.34 2.34zm-7.39-.02c1.29 0 2.34-1.05 2.34-2.34s-1.05-2.34-2.34-2.34-2.34 1.05-2.34 2.34 1.05 2.34 2.34 2.34z"/><path class="cls-5" d="M90.47 36.6h-.1c-1.98-.05-3.97-1.31-4.63-2.93-.35-.85.06-1.81.91-2.17.85-.35 1.83.05 2.19.9.1.24.8.83 1.62.85.16 0 .34-.03.55-.27.39-.44.52-1.15.49-1.35-.18-.91.41-1.78 1.32-1.96.91-.18 1.79.42 1.96 1.32.25 1.29-.24 2.99-1.19 4.12-.81.96-1.91 1.48-3.11 1.48z"/><path d="M92.41 15.91l1.24 5.91c.06.29-.12.56-.41.62l-1.76.37.81 3.86-1.37.29-.81-3.86-1.76.37a.518.518 0 01-.62-.41l-1.24-5.91c-.31-1.49.64-2.95 2.13-3.26l.52-.11c1.49-.31 2.95.64 3.26 2.13z"/><path d="M90.18 25.23l2.59 12.36c.06.29.24.53.46.68.23.15.52.21.81.15.58-.12.95-.7.83-1.27l-2.59-12.36-2.11.44z"/><path class="cls-5" d="M92.54 31.9c-1.91 0-3.24-.97-3.24-2.37s1.33-2.37 3.24-2.37 3.24.97 3.24 2.37-1.33 2.37-3.24 2.37zm0-2.88c-.06.15-.1.32-.1.52s.04.37.1.52c.06-.15.1-.32.1-.52s-.04-.37-.1-.52z"/><path class="cls-5" d="M92.54 33.8c-1.91 0-3.24-.97-3.24-2.37s1.33-2.37 3.24-2.37 3.24.97 3.24 2.37-1.33 2.37-3.24 2.37zm0-2.88c-.06.15-.1.32-.1.52s.04.37.1.52c.06-.15.1-.32.1-.52s-.04-.37-.1-.52zm1.22-21.37c.14 4.08-3.05 4.08-2.92 0-4.08.14-4.08-3.05 0-2.92-.14-4.08 3.05-4.08 2.92 0 4.08-.14 4.08 3.05 0 2.92z"/><path d="M61.8 21.49c-.23 0-.45-.13-.56-.34l-1.18-2.32c-1.14.17-2.29-.4-2.83-1.46a2.726 2.726 0 011.2-3.66c.06-.03.13-.06.19-.09.14-1.21.86-2.27 1.98-2.84 1.11-.56 2.4-.52 3.45.08a2.723 2.723 0 013.84 1.1c.54 1.07.32 2.33-.49 3.14l1.18 2.32c.16.31.03.69-.28.84a.62.62 0 01-.84-.28l-1.41-2.77a.633.633 0 01.22-.81c.62-.41.84-1.22.5-1.89a1.461 1.461 0 00-1.97-.64c-.11.06-.22.13-.31.21-.22.2-.56.22-.8.04a2.39 2.39 0 00-2.53-.23c-.83.42-1.33 1.25-1.31 2.17 0 .3-.21.57-.5.63a1.479 1.479 0 00-1 2.1c.34.67 1.12.97 1.82.71.3-.11.63.02.78.3l1.41 2.77c.16.31.03.69-.28.84-.09.05-.19.07-.28.07z"/><path d="M63.98 20.56c-.23 0-.45-.13-.56-.34l-.35-.7a.62.62 0 01.28-.84.62.62 0 01.84.28l.35.7c.16.31.03.69-.28.84-.09.05-.19.07-.28.07zm2.07-1.05c-.23 0-.45-.13-.56-.34l-.35-.7a.624.624 0 011.11-.57l.35.7a.624.624 0 01-.55.91z"/><path class="cls-4" d="M121.16 6.82v3.09h6.93V6.82a2.08 2.08 0 00-.23-4.15c-.18 0-.36.02-.54.07-.5-1.03-1.54-1.69-2.7-1.69s-2.2.66-2.7 1.69a2.085 2.085 0 00-2.62 2.01c0 1.07.81 1.95 1.85 2.07z"/><path class="cls-2" d="M122.61 49.27h-5.05c-.92 0-1.66-.74-1.66-1.66s.74-1.66 1.66-1.66h3.39v-8.06c0-.92.74-1.66 1.66-1.66s1.66.74 1.66 1.66v9.72c0 .92-.74 1.66-1.66 1.66zm9.18 0h-5.05c-.92 0-1.66-.74-1.66-1.66v-9.72c0-.92.74-1.66 1.66-1.66s1.66.74 1.66 1.66v8.06h3.39c.92 0 1.66.74 1.66 1.66s-.74 1.66-1.66 1.66z"/><path class="cls-4" d="M121.55 34.48h-1.6v4.11h9.58v-4.11h-7.98z"/><path class="cls-2" d="M136.65 20.98c0 3.09-1.18 6.02-3.31 8.26-.3.32-.6.61-.87.9-1.49 1.51-2.45 2.49-2.86 4.36h-9.84c-.33-1.91-1.24-2.79-2.68-4.19-.29-.28-.6-.58-.92-.9-2.34-2.37-3.57-5.5-3.46-8.83.21-6.27 5.49-11.47 11.77-11.57 3.26-.05 6.29 1.17 8.6 3.44 2.3 2.27 3.58 5.3 3.58 8.54z"/><path class="cls-54" d="M121.59 38.6h-1.63c.4 2.25 2.36 3.96 4.72 3.96s4.32-1.71 4.72-3.96h-7.8zm-.11-2.88h-1.59v1.63h9.58v-1.63h-7.98z"/><path class="cls-4" d="M121.13 23.96c2.45 0 4.44-1.99 4.44-4.44s-1.99-4.44-4.44-4.44-4.44 1.99-4.44 4.44 1.99 4.44 4.44 4.44z"/><path class="cls-4" d="M128.35 23.96c2.45 0 4.44-1.99 4.44-4.44s-1.99-4.44-4.44-4.44-4.44 1.99-4.44 4.44 1.99 4.44 4.44 4.44z"/><path d="M128.35 19.72c1.28 0 2.32-1.04 2.32-2.32s-1.04-2.32-2.32-2.32-2.32 1.04-2.32 2.32 1.04 2.32 2.32 2.32zm-7.22 0c1.28 0 2.32-1.04 2.32-2.32s-1.04-2.32-2.32-2.32-2.32 1.04-2.32 2.32 1.04 2.32 2.32 2.32z"/><path class="cls-54" d="M131.68 8.46c.09.06.18.11.28.14.3.08.64-.02.84-.28l1.95-2.53a.79.79 0 00-.15-1.12.79.79 0 00-1.12.15l-1.95 2.53a.79.79 0 00.15 1.12zm-14.1 0c-.09.06-.18.11-.28.14-.3.08-.64-.02-.84-.28l-1.95-2.53a.79.79 0 01.15-1.12.79.79 0 011.12.15l1.95 2.53c.27.35.21.85-.15 1.12zm20.37 7.02c.1 0 .21-.02.3-.06l2.95-1.22c.41-.17.6-.64.43-1.04a.794.794 0 00-1.04-.43l-2.95 1.22c-.41.17-.6.64-.43 1.04.13.31.42.49.74.49zm3.26 10.69l-2.95-1.22c-.41-.17-.87.02-1.04.43s.02.88.43 1.04l2.95 1.22c.1.04.21.06.3.06.31 0 .61-.19.74-.49a.79.79 0 00-.43-1.04zm-30.12-1.23l-2.95 1.22c-.41.17-.6.64-.43 1.04a.8.8 0 001.04.43l2.95-1.22c.41-.17.6-.64.43-1.04a.794.794 0 00-1.04-.43zm.62-11l-2.95-1.22a.787.787 0 00-1.04.43c-.17.41.02.88.43 1.04l2.95 1.22c.1.04.21.06.3.06.31 0 .61-.19.74-.49a.79.79 0 00-.43-1.04z"/><path d="M123.45 29.32c-2.07 0-3.76-1.68-3.76-3.76v-.08c.02-.87.73-1.56 1.59-1.56h.03c.88.02 1.57.74 1.56 1.62v.02a.58.58 0 001.16 0c0-.88.71-1.59 1.59-1.59s1.59.71 1.59 1.59c0 2.07-1.68 3.76-3.76 3.76z"/><g mask="url(#mask-3)"><path class="cls-7" d="M121.96 32.11c1.63 0 2.94-1.32 2.94-2.94s-1.32-2.94-2.94-2.94-2.94 1.32-2.94 2.94 1.32 2.94 2.94 2.94z"/></g><path d="M133.68 33.03c-.59 0-1.07.48-1.07 1.07v8.29c0 .3.12.56.31.75.19.19.47.31.75.31.59 0 1.07-.48 1.07-1.07v-8.29c0-.59-.48-1.07-1.07-1.07z"/><path d="M136.86 25.82c0-4.22-1.38-7.54-3.14-7.58h-.06c-1.76.04-3.14 3.35-3.14 7.58s1.38 7.54 3.14 7.58h.06c1.77-.04 3.14-3.35 3.14-7.58zm-3.17 7.04c-.09-.11-.33-.54-.54-2.12-.19-1.34-.28-3.09-.28-4.92s.1-3.58.28-4.92c.21-1.57.46-2.01.54-2.12.09.11.33.54.54 2.12.19 1.34.28 3.09.28 4.92s-.1 3.58-.28 4.92c-.22 1.57-.46 2.01-.54 2.12zm-2.66-7.04c0-3.5.94-6.04 1.99-6.82-.12.36-.24.86-.35 1.6-.21 1.39-.32 3.25-.32 5.22s.11 3.82.32 5.22c.11.74.22 1.25.35 1.6-1.05-.78-1.99-3.32-1.99-6.82zm3.33 6.82c.12-.36.24-.86.35-1.6.21-1.39.32-3.25.32-5.22s-.11-3.82-.32-5.22c-.11-.74-.22-1.25-.35-1.6 1.05.78 1.99 3.32 1.99 6.82s-.94 6.04-1.99 6.82z"/><path class="cls-2" d="M133.69 38.18c-1.9 0-3.22-.97-3.22-2.35s1.32-2.35 3.22-2.35 3.22.97 3.22 2.35-1.32 2.35-3.22 2.35zm0-2.87a1.363 1.363 0 000 1.02 1.363 1.363 0 000-1.02z"/><path class="cls-2" d="M133.69 40.06c-1.9 0-3.22-.97-3.22-2.35s1.32-2.35 3.22-2.35 3.22.97 3.22 2.35-1.32 2.35-3.22 2.35zm0-2.87a1.363 1.363 0 000 1.02 1.363 1.363 0 000-1.02z"/><path d="M128.1 10.1c-.34 0-.62-.28-.62-.62V6.39c0-.32.24-.58.55-.62.74-.08 1.3-.7 1.3-1.45a1.462 1.462 0 00-1.84-1.41.616.616 0 01-.72-.33c-.4-.82-1.22-1.34-2.14-1.34s-1.74.51-2.14 1.34c-.13.27-.44.41-.73.33-.12-.03-.24-.05-.37-.05-.8 0-1.46.65-1.46 1.46 0 .74.56 1.37 1.3 1.45.32.03.56.3.56.62v3.09c0 .34-.28.62-.62.62s-.62-.28-.62-.62V6.89a2.697 2.697 0 01-1.85-2.57c0-1.49 1.21-2.7 2.7-2.7h.21c.66-1.01 1.79-1.63 3.03-1.63s2.36.61 3.03 1.63h.21c1.49 0 2.7 1.21 2.7 2.7 0 1.19-.76 2.21-1.85 2.57v2.59c0 .34-.28.62-.62.62z"/><path d="M123.51 10.25c-.34 0-.62-.28-.62-.62v-.77c0-.34.28-.62.62-.62s.62.28.62.62v.77c0 .34-.28.62-.62.62zm2.3 0c-.34 0-.62-.28-.62-.62v-.77c0-.34.28-.62.62-.62s.62.28.62.62v.77c0 .34-.28.62-.62.62z"/><path class="cls-4" d="M163.62 14.27l.84 2.99 6.72-1.88-.84-2.99c.98-.39 1.52-1.47 1.23-2.51a2.097 2.097 0 00-3.08-1.24 2.983 2.983 0 00-3.07-.9 3.028 3.028 0 00-2.16 2.37 2.097 2.097 0 00-1.99 2.66 2.092 2.092 0 002.36 1.5z"/><path class="cls-33" d="M173.56 49.27h-4.57c-.92 0-1.67-.75-1.67-1.67V37.42c0-.92.75-1.67 1.67-1.67s1.67.75 1.67 1.67v8.51h2.9c.92 0 1.67.75 1.67 1.67s-.75 1.67-1.67 1.67zm8.09 0h-4.57c-.92 0-1.67-.75-1.67-1.67v-9.06c0-.92.75-1.67 1.67-1.67s1.67.75 1.67 1.67v7.39h2.9c.92 0 1.67.75 1.67 1.67s-.75 1.67-1.67 1.67z"/><path class="cls-33" d="M178.79 35.75c-.25.9-1.18 1.43-2.09 1.17l-7.64-2.14c-.9-.25-1.43-1.18-1.17-2.09l.38-1.35-2.77-.79-.93 3.31c-.38 1.36.41 2.76 1.77 3.15l11.52 3.22c1.36.38 2.76-.41 3.15-1.77l.91-3.25-2.77-.79-.37 1.32"/><path d="M164.97 16.56V30.4l.54.15 2.77.79 10.88 3.09 2.77.79 12.7 3.6V8.15l-29.66 8.41z" fill="#ff6a00"/><path class="cls-33" d="M164.97 16.56l-9.91 2.81v8.22l9.91 2.81V16.56zm31.76 22.76V7.65a1.05 1.05 0 10-2.1 0v31.68a1.05 1.05 0 102.1 0z"/><path class="cls-4" d="M184.04 19.7c0 2.47-2 4.47-4.47 4.47a4.468 4.468 0 01-3.48-7.27l7.89 2.11c.04.23.06.46.06.69z"/><g mask="url(#mask-4)"><path class="cls-63" d="M181.71 21.41c1.29 0 2.34-1.05 2.34-2.34s-1.05-2.34-2.34-2.34-2.34 1.05-2.34 2.34 1.05 2.34 2.34 2.34z"/></g><path class="cls-4" d="M184.04 19.7c0 2.47 2 4.47 4.47 4.47a4.468 4.468 0 003.48-7.27l-7.89 2.11c-.04.23-.06.46-.06.69z"/><g mask="url(#mask-5)"><path class="cls-63" d="M186.38 21.41c1.29 0 2.34-1.05 2.34-2.34s-1.05-2.34-2.34-2.34-2.34 1.05-2.34 2.34 1.05 2.34 2.34 2.34z"/></g><path d="M184.05 29.56c-.3 0-.6-.03-.89-.08a5.089 5.089 0 01-4.2-5.36c.02-.35.32-.6.67-.58.35.02.61.32.58.67-.06.87.18 1.74.69 2.46.59.84 1.47 1.4 2.48 1.58 1.01.18 2.03-.05 2.87-.64a.625.625 0 01.72 1.02c-.87.61-1.88.92-2.91.92zm-31.56-16.62l.85 5.82c.27 1.86 1.86 3.2 3.68 3.21l1.22 8.42 1.12-.16-1.22-8.42a3.747 3.747 0 002.61-4.13l-.85-5.82-7.42 1.08zm3.33 6.14l-1.08.15-.76-5.21 1.08-.15.76 5.21zm1.88-.27l-1.07.15-.76-5.21 1.07-.15.76 5.21zm1.83-.27l-1.08.15-.76-5.21 1.08-.15.76 5.21z"/><path d="M157.7 29.23l1.07 7.37c.08.51.54.86 1.06.79.51-.08.86-.54.79-1.06l-1.07-7.37-1.84.27z"/><path class="cls-33" d="M159.22 34.92c-1.91 0-3.24-.97-3.24-2.37s1.33-2.37 3.24-2.37 3.24.97 3.24 2.37-1.33 2.37-3.24 2.37zm0-2.88c-.06.15-.1.32-.1.52s.04.37.1.52c.06-.15.1-.32.1-.52s-.04-.37-.1-.52z"/><path class="cls-33" d="M159.22 36.81c-1.91 0-3.24-.97-3.24-2.37s1.33-2.37 3.24-2.37 3.24.97 3.24 2.37-1.33 2.37-3.24 2.37zm0-2.88c-.06.15-.1.32-.1.52s.04.37.1.52c.06-.15.1-.32.1-.52s-.04-.37-.1-.52z"/><path d="M164.35 17.47c-.27 0-.53-.18-.6-.46l-.7-2.51a2.707 2.707 0 01-2.49-1.98c-.2-.7-.11-1.43.25-2.07.36-.63.94-1.09 1.64-1.29.07-.02.14-.03.21-.05a3.637 3.637 0 012.49-2.4c1.2-.34 2.45-.05 3.37.75.07-.03.14-.05.21-.07.69-.2 1.43-.11 2.06.25.63.36 1.09.94 1.29 1.64.32 1.15-.14 2.35-1.1 2.99l.7 2.51c.09.33-.1.68-.43.77-.33.09-.68-.1-.77-.43l-.84-2.99c-.09-.31.07-.63.37-.75a1.463 1.463 0 00.17-2.63c-.34-.19-.74-.24-1.11-.13-.12.03-.23.08-.36.15-.26.15-.58.09-.78-.13-.61-.69-1.54-.97-2.43-.71-.89.25-1.55.97-1.71 1.88-.05.3-.31.52-.62.52-.12 0-.25.02-.38.05-.37.1-.69.35-.88.69-.19.34-.24.74-.13 1.11.2.72.91 1.18 1.65 1.05.31-.05.62.14.71.45l.84 2.99c.09.33-.1.68-.43.77-.06.02-.11.02-.17.02z"/><path d="M166.66 16.99c-.27 0-.53-.18-.6-.46l-.21-.75c-.09-.33.1-.68.44-.77.33-.09.68.1.77.44l.21.75c.09.33-.1.68-.44.77-.06.02-.11.02-.17.02zm2.23-.63c-.27 0-.53-.18-.6-.46l-.21-.75c-.09-.33.1-.68.43-.77.33-.09.68.1.77.43l.21.75c.09.33-.1.68-.43.77-.06.02-.11.02-.17.02z"/><path class="cls-4" d="M207.05 26.83l.97 2.95 6.63-2.18-.97-2.95a2.1 2.1 0 001.12-2.56c-.36-1.1-1.54-1.7-2.64-1.34-.17.06-.34.14-.49.23-.8-.83-2-1.13-3.11-.77-1.11.37-1.9 1.32-2.05 2.46-.18 0-.36.04-.54.1-1.1.36-1.7 1.54-1.34 2.64.33 1.02 1.39 1.61 2.42 1.4z"/><path d="M244.99 21.48l-.07 11.55-2.19-.02-.02 2.73h-1.2l.11-17.68c.94 0 1.78.39 2.39 1.01.61.62.98 1.47.98 2.41z"/><path d="M243.39 35.02h-1.87l-.05 7.47c0 .51.41.94.93.94s.94-.41.94-.93l.05-7.48z"/><path class="cls-28" d="M218.08 49.27h-4.57c-.92 0-1.67-.75-1.67-1.67V37.42c0-.92.75-1.67 1.67-1.67s1.67.75 1.67 1.67v8.51h2.9c.92 0 1.67.75 1.67 1.67s-.75 1.67-1.67 1.67zm18.31-.07h-4.57c-.92 0-1.67-.75-1.67-1.67V37.35c0-.92.75-1.67 1.67-1.67s1.67.75 1.67 1.67v8.51h2.9c.92 0 1.67.75 1.67 1.67s-.75 1.67-1.67 1.67z"/><path class="cls-28" d="M229.42 36.66v-.8c0-1.07.8-2.14 1.87-2.68.54 0 1.34 0 1.87.27.54.27 1.07.8 1.34 1.6.53 1.33-.27 2.94-1.6 3.48-.8 0-1.33 0-2.14-.27-.54-.27-1.07-.8-1.34-1.6zm-13.1 0c-.27.8-.8 1.34-1.34 1.6-.8.27-1.6.27-2.14.27-1.07-.54-1.87-1.6-1.87-2.67v-.8c.27-.8.8-1.34 1.33-1.6.8-.27 1.6-.27 2.14-.27 1.33.54 2.14 2.14 1.87 3.48zm8.02 1.6c.8 2.14 2.14 3.74 4.01 4.81 1.87.8 4.01 1.07 6.15.53 3.2-1.07 5.61-4.01 5.61-7.75 0-.8 0-1.6-.27-2.41-.54-2.14-2.14-3.75-4.01-4.81-2.14-.8-4.27-1.07-6.15-.53-1.07.53-1.87.8-2.4 1.33l-1.6-4.81 6.15-19.52c.53-1.87-.54-2.94-1.6-3.48-1.34-.54-2.94.27-3.48 1.6l-4.01 12.3L219 3.49c-.54-1.34-1.87-2.14-3.48-1.6-1.34.54-2.14 1.87-1.87 3.21l6.41 19.52-1.6 4.81c-.8-.54-1.6-1.07-2.4-1.33-1.87-.54-4.28-.27-6.15.53-1.87 1.07-3.21 2.67-4.01 4.81-.27.8-.27 1.6-.27 2.4 0 3.48 2.14 6.68 5.61 7.75 1.87.54 4.28.27 6.15-.53 1.87-1.07 3.21-2.67 4.01-4.81l1.6-4.81 1.33 4.81z"/><path class="cls-4" d="M232.05 40.29c2.47 0 4.47-2 4.47-4.47s-2-4.47-4.47-4.47-4.47 2-4.47 4.47 2 4.47 4.47 4.47z"/><path class="cls-37" d="M232.05 44.35c-4.7 0-8.53-3.83-8.53-8.53s3.83-8.53 8.53-8.53 8.53 3.83 8.53 8.53-3.83 8.53-8.53 8.53zm0-12.88c-2.4 0-4.35 1.95-4.35 4.35s1.95 4.35 4.35 4.35 4.35-1.95 4.35-4.35-1.95-4.35-4.35-4.35z"/><path class="cls-63" d="M234.16 38.15c1.29 0 2.34-1.05 2.34-2.34s-1.05-2.34-2.34-2.34-2.34 1.05-2.34 2.34 1.05 2.34 2.34 2.34z"/><path class="cls-4" d="M213.68 40.29c2.47 0 4.47-2 4.47-4.47s-2-4.47-4.47-4.47-4.47 2-4.47 4.47 2 4.47 4.47 4.47z"/><path class="cls-37" d="M213.68 44.35c-4.7 0-8.53-3.83-8.53-8.53s3.83-8.53 8.53-8.53 8.53 3.83 8.53 8.53-3.83 8.53-8.53 8.53zm0-12.88c-2.4 0-4.35 1.95-4.35 4.35s1.95 4.35 4.35 4.35 4.35-1.95 4.35-4.35-1.95-4.35-4.35-4.35z"/><path class="cls-63" d="M215.79 38.15c1.29 0 2.34-1.05 2.34-2.34s-1.05-2.34-2.34-2.34-2.34 1.05-2.34 2.34 1.05 2.34 2.34 2.34z"/><path class="cls-28" d="M243.69 41.03c-.51 0-1.07-.11-1.62-.32-1.78-.68-2.68-2.07-2.18-3.37.5-1.3 2.09-1.73 3.87-1.05 1.78.68 2.68 2.07 2.18 3.37-.31.8-1.09 1.31-2.08 1.36h-.17zm-.87-2.57c-.07.18-.09.36-.09.52.11-.12.21-.26.28-.45s.09-.36.09-.52c-.11.12-.21.26-.28.45z"/><path class="cls-28" d="M243 42.8c-.51 0-1.07-.11-1.62-.32-1.78-.68-2.68-2.07-2.18-3.37.31-.8 1.09-1.31 2.08-1.36.56-.03 1.18.08 1.79.32.61.24 1.15.57 1.54.96.71.7.94 1.6.63 2.41-.31.8-1.09 1.31-2.08 1.36h-.17zm-.87-2.57c-.07.18-.09.36-.09.52.11-.12.21-.26.28-.45s.09-.36.09-.52c-.11.12-.21.26-.28.45z"/><path d="M207.88 29.99c-.26 0-.51-.17-.6-.43l-.81-2.47c-1.15 0-2.2-.74-2.58-1.87-.46-1.42.32-2.96 1.74-3.43l.21-.06a3.62 3.62 0 012.38-2.5c1.19-.39 2.45-.16 3.41.6.07-.03.13-.05.2-.07 1.42-.46 2.96.32 3.43 1.74.37 1.14-.04 2.35-.96 3.03l.81 2.47c.11.33-.07.68-.4.79a.624.624 0 01-.79-.4l-.97-2.95c-.1-.3.04-.63.34-.77.68-.31 1.02-1.08.78-1.79a1.468 1.468 0 00-2.19-.78c-.25.17-.59.13-.8-.09-.64-.66-1.59-.9-2.47-.61-.88.29-1.5 1.04-1.63 1.95a.62.62 0 01-.59.54c-.12 0-.24.03-.37.07-.76.25-1.18 1.08-.93 1.85.23.71.96 1.13 1.69.98.31-.07.62.12.72.42l.97 2.95a.624.624 0 01-.6.82z"/><path d="M210.17 29.41c-.26 0-.51-.17-.6-.43l-.24-.74c-.11-.33.07-.68.4-.79.33-.11.68.07.79.4l.24.74a.624.624 0 01-.59.82zm2.21-.72c-.26 0-.51-.17-.6-.43l-.25-.74c-.11-.33.07-.68.4-.79.33-.11.68.07.79.4l.25.74a.624.624 0 01-.6.82z"/><g clip-path="url(#clippath)"><path class="cls-4" d="M268.78 8.47v3.11h6.98V8.47a2.1 2.1 0 001.86-2.08 2.09 2.09 0 00-2.63-2.02c-.5-1.04-1.55-1.7-2.72-1.7s-2.21.66-2.72 1.7c-.17-.05-.36-.07-.54-.07-1.16 0-2.09.94-2.09 2.09 0 1.08.81 1.97 1.86 2.08z"/><path class="cls-45" d="M293.31 27.62c-.72 0-1.39-.47-1.6-1.2-.26-.88.24-1.82 1.13-2.08 1.5-.45 2.7-1.49 2.9-2.52.19-.95-.47-2.05-1.64-2.73-.8-.47-1.07-1.49-.6-2.29s1.49-1.07 2.29-.6c2.43 1.42 3.7 3.88 3.23 6.26-.44 2.28-2.5 4.27-5.23 5.09-.16.05-.32.07-.48.07z"/><path d="M291.75 4.08c.86 1.99.69 4.04-.32 4.94l3.97 9.17-1.1.48-3.97-9.17c-1.35.12-2.96-1.16-3.82-3.15-.86-1.99-.62-4.64.83-5.27 1.45-.63 3.42.71 4.41 3z"/><path d="M294.44 15.47l3.4 7.86a.8.8 0 01-1.47.63l-3.4-7.86 1.47-.64z"/><path class="cls-45" d="M270.88 49.51h-4.57c-.92 0-1.67-.75-1.67-1.67V37.66c0-.92.75-1.67 1.67-1.67s1.67.75 1.67 1.67v8.51h2.9c.92 0 1.67.75 1.67 1.67s-.75 1.67-1.67 1.67zm9.61 0h-4.57c-.92 0-1.67-.75-1.67-1.67V37.66c0-.92.75-1.67 1.67-1.67s1.67.75 1.67 1.67v8.51h2.9c.92 0 1.67.75 1.67 1.67s-.75 1.67-1.67 1.67z"/><path class="cls-4" d="M287 22.62c.9 0 1.64-.73 1.64-1.64s-.73-1.63-1.64-1.63-1.64.73-1.64 1.63.73 1.64 1.64 1.64zm-14.73-4.91c6.31 0 11.45 5.13 11.45 11.45s-5.14 11.45-11.45 11.45-11.45-5.14-11.45-11.45 5.14-11.45 11.45-11.45zm8.18 11.45v-.4c0-.13-.02-.26-.03-.4a5.46 5.46 0 00-.05-.4c-.02-.13-.04-.26-.07-.4-.02-.13-.06-.26-.09-.39s-.07-.26-.11-.39c-.04-.13-.08-.25-.12-.38-.05-.12-.1-.25-.15-.37-.05-.13-.1-.25-.16-.37l-.18-.36c-.06-.12-.13-.23-.2-.35-.07-.11-.14-.23-.21-.34-.08-.11-.15-.22-.23-.33-.08-.11-.16-.21-.25-.31-.08-.1-.17-.21-.26-.3-.09-.1-.18-.2-.27-.29-.1-.1-.19-.19-.29-.28-.1-.09-.2-.18-.3-.26-.1-.08-.21-.17-.32-.25s-.22-.16-.33-.23c-.11-.08-.22-.15-.34-.22-.12-.07-.23-.14-.35-.2l-.36-.18c-.12-.06-.25-.11-.37-.16s-.25-.1-.37-.15c-.13-.04-.25-.09-.38-.13-.13-.04-.26-.07-.39-.11l-.39-.09c-.13-.02-.26-.05-.4-.07a5.46 5.46 0 00-.4-.05c-.14 0-.27-.02-.4-.03h-.8c-.14 0-.27.02-.4.03-.13.02-.27.03-.4.05-.14.02-.27.04-.4.07l-.39.09c-.13.03-.26.07-.39.11-.13.04-.25.08-.38.13s-.25.09-.37.15c-.12.05-.25.11-.37.16l-.36.18c-.12.06-.23.13-.35.2-.12.07-.23.14-.34.22-.11.07-.22.15-.33.23-.11.08-.21.17-.32.25-.1.09-.2.17-.3.26-.1.09-.2.18-.29.28-.09.1-.19.19-.27.29-.09.1-.18.2-.26.3-.09.1-.17.21-.25.31-.08.11-.15.22-.23.33-.07.11-.15.23-.21.34-.07.12-.14.23-.2.35l-.18.36c-.06.12-.11.24-.16.37-.05.12-.1.25-.14.37-.05.13-.09.25-.13.38-.04.13-.08.26-.11.39l-.09.39c-.03.14-.05.26-.07.4-.02.13-.04.26-.05.4l-.03.4c0 .14-.01.27-.01.4s0 .27.01.4c0 .14.02.27.03.4.01.13.03.26.05.4.02.13.04.26.07.39.02.13.06.26.09.39s.07.26.11.39.08.26.13.38c.04.13.09.25.14.38.05.12.1.24.16.36l.18.36c.06.12.13.23.2.35.07.12.14.23.21.34.08.11.15.22.23.33.08.11.16.21.25.32.08.1.17.21.26.3.09.1.18.2.27.29.1.09.19.19.29.28.1.09.2.17.3.26.1.08.21.17.32.24.11.08.22.16.33.23s.22.15.34.22c.12.07.23.13.35.2l.36.18c.12.06.25.11.37.16s.25.1.37.15c.13.04.25.09.38.12.13.04.26.08.39.11.13.04.26.06.39.09s.26.05.4.07c.13.02.27.04.4.05l.4.03h.8c.14 0 .27-.02.4-.03.13 0 .27-.03.4-.05.14-.02.27-.04.4-.07.13-.02.26-.05.39-.09.13-.03.26-.07.39-.11.13-.03.25-.08.38-.12.13-.05.25-.1.37-.15.12-.05.25-.1.37-.16l.36-.18c.12-.07.23-.13.35-.2.12-.07.23-.14.34-.22.11-.08.22-.15.33-.23s.21-.16.32-.24c.1-.09.2-.18.3-.26.1-.09.2-.19.29-.28.1-.1.19-.19.27-.29.09-.1.18-.2.26-.3.09-.11.17-.21.25-.32.08-.11.15-.22.23-.33.08-.11.15-.23.21-.34.07-.12.14-.23.2-.35.06-.11.12-.24.18-.36s.11-.24.16-.36c.05-.13.1-.25.15-.38.04-.12.08-.25.12-.38.04-.13.08-.26.11-.39l.09-.39c.03-.13.05-.26.07-.39.02-.14.04-.27.05-.4l.03-.4v-.4z"/><path class="cls-45" d="M280.44 28.76v.8c0 .14-.02.27-.03.4-.01.13-.03.26-.05.4-.02.13-.04.26-.07.39-.02.13-.06.26-.09.39s-.07.26-.11.39-.08.26-.12.38c-.05.13-.1.25-.15.38-.05.12-.1.24-.16.36l-.18.36c-.06.12-.13.23-.2.35-.07.12-.14.23-.21.34-.08.11-.15.22-.23.33-.08.11-.16.21-.25.32-.08.1-.17.21-.26.3-.09.1-.18.2-.27.29-.1.09-.19.19-.29.28-.1.09-.2.17-.3.26-.1.08-.21.17-.32.24s-.22.16-.33.23c-.11.08-.22.15-.34.22-.12.07-.23.13-.35.2l-.36.18c-.12.06-.25.11-.37.16s-.25.1-.37.15c-.13.04-.25.09-.38.12-.13.04-.26.08-.39.11-.13.04-.26.06-.39.09s-.26.05-.4.07c-.13.02-.27.04-.4.05l-.4.03h-.8c-.14 0-.27-.02-.4-.03-.13 0-.27-.03-.4-.05a4.75 4.75 0 01-.4-.07c-.13-.02-.26-.05-.39-.09-.13-.03-.26-.07-.39-.11-.13-.03-.25-.08-.38-.12-.13-.05-.25-.1-.37-.15-.12-.05-.25-.1-.37-.16l-.36-.18c-.12-.07-.23-.13-.35-.2-.12-.07-.23-.14-.34-.22-.11-.08-.22-.15-.33-.23-.11-.08-.21-.16-.32-.24-.1-.09-.2-.18-.3-.26-.1-.09-.2-.19-.29-.28-.09-.1-.19-.19-.27-.29-.09-.1-.18-.2-.26-.3-.09-.11-.17-.21-.25-.32-.08-.11-.15-.22-.23-.33-.07-.11-.15-.23-.21-.34-.07-.12-.14-.23-.2-.35-.06-.11-.12-.24-.18-.36s-.11-.24-.16-.36c-.05-.13-.1-.25-.14-.38-.05-.12-.09-.25-.13-.38s-.08-.26-.11-.39l-.09-.39c-.03-.13-.05-.26-.07-.39-.02-.14-.04-.27-.05-.4l-.03-.4c0-.13-.01-.26-.01-.4s0-.26.01-.4c0-.13.02-.26.03-.4.01-.13.03-.27.05-.4.02-.13.04-.26.07-.4.02-.13.06-.26.09-.39s.07-.26.11-.39c.04-.13.08-.25.13-.38.04-.12.09-.25.14-.37.05-.13.1-.25.16-.37l.18-.36c.06-.12.13-.23.2-.35.07-.11.14-.23.21-.34.08-.11.15-.22.23-.33.08-.11.16-.21.25-.31.08-.1.17-.21.26-.3.09-.1.18-.2.27-.29.1-.1.19-.19.29-.28.1-.09.2-.18.3-.26.1-.08.21-.17.32-.25.11-.08.22-.16.33-.23.11-.08.22-.15.34-.22.12-.07.23-.14.35-.2l.36-.18c.12-.06.25-.11.37-.16s.25-.1.37-.15c.13-.04.25-.09.38-.13.13-.04.26-.07.39-.11l.39-.09c.13-.02.26-.05.4-.07.13-.02.27-.04.4-.05.14 0 .27-.02.4-.03h.8c.14 0 .27.02.4.03.13.02.27.03.4.05.14.02.27.04.4.07l.39.09c.13.03.26.07.39.11.13.04.25.08.38.13s.25.09.37.15c.12.05.25.11.37.16l.36.18c.12.06.23.13.35.2.12.07.23.14.34.22.11.07.22.15.33.23s.21.17.32.25c.1.09.2.17.3.26.1.09.2.18.29.28s.19.19.27.29c.09.1.18.2.26.3.09.1.17.21.25.31.08.11.15.22.23.33.08.11.15.23.21.34.07.12.14.23.2.35l.18.36c.06.12.11.24.16.37.05.12.1.25.15.37.04.13.08.25.12.38.04.13.08.26.11.39l.09.39c.03.14.05.26.07.4.02.13.04.26.05.4l.03.4zm-19.62-14.32h-4.91c0-.91.73-1.64 1.64-1.64h1.64c.91 0 1.64.73 1.64 1.64z"/><path class="cls-4" d="M275.35 27.78h-6.16c-.77 0-1.39.62-1.39 1.38s.62 1.38 1.39 1.38h6.16c.77 0 1.39-.62 1.39-1.38s-.62-1.38-1.39-1.38z"/><g mask="url(#mask-6)"><path class="cls-63" d="M272.16 31.49c1.29 0 2.34-1.05 2.34-2.34s-1.05-2.33-2.34-2.33-2.34 1.05-2.34 2.33 1.05 2.34 2.34 2.34z"/></g><path class="cls-45" d="M292.75 17.79c-.37 0-.71-.06-1.02-.18-.53-.21-.94-.6-1.15-1.1a2.04 2.04 0 010-1.59c.3-.76 1.05-1.44 2.05-1.87 1.75-.76 3.35-.39 3.91.88.55 1.28-.28 2.7-2.03 3.46-.6.26-1.2.39-1.74.39zm.6-3.04c0 .16.03.34.11.51.08.18.19.32.3.44s-.41-.95-.41-.95zm0 0l.41.95c0-.16-.03-.34-.11-.52s-.18-.32-.3-.43z"/><path class="cls-45" d="M293.51 19.53c-1 0-1.81-.44-2.17-1.28a2.04 2.04 0 01-.01-1.59c.3-.76 1.04-1.44 2.04-1.87 1-.43 2.01-.51 2.76-.21.53.21.94.6 1.15 1.1.21.49.22 1.05 0 1.58-.3.76-1.04 1.44-2.04 1.87-.61.26-1.2.39-1.74.39zm.6-3.04c0 .16.03.34.11.52s.18.32.3.43-.41-.95-.41-.95zm0 0l.41.95c0-.16-.03-.34-.11-.52s-.18-.32-.3-.43z"/><path class="cls-1" d="M290.27 16.07h-6.98c-1.24 0-2.37-.7-2.93-1.81l-.64-1.29a3.281 3.281 0 00-2.93-1.81h-9.05c-1.24 0-2.37.7-2.93 1.81l-.64 1.29a3.281 3.281 0 01-2.93 1.81h-6.98c-1.81 0-3.27 1.46-3.27 3.27v21.27c0 1.81 1.47 3.27 3.27 3.27h36c1.81 0 3.27-1.47 3.27-3.27V19.34c0-1.81-1.47-3.27-3.27-3.27zm-18 24.54c-6.31 0-11.45-5.14-11.45-11.45s5.14-11.45 11.45-11.45 11.45 5.13 11.45 11.45-5.14 11.45-11.45 11.45zM287 22.62c-.9 0-1.64-.73-1.64-1.64s.73-1.63 1.64-1.63 1.64.73 1.64 1.63-.73 1.64-1.64 1.64z"/><path d="M275.76 11.77c-.35 0-.63-.28-.63-.63V8.03c0-.32.24-.59.56-.62.74-.08 1.3-.71 1.3-1.46 0-.81-.66-1.47-1.47-1.47-.13 0-.25.02-.37.05-.29.08-.6-.06-.73-.33-.4-.83-1.23-1.35-2.15-1.35s-1.75.52-2.15 1.35c-.13.27-.44.41-.74.33-.11-.03-.24-.05-.37-.05-.81 0-1.47.66-1.47 1.47 0 .75.56 1.38 1.3 1.46.32.03.56.3.56.62v3.11c0 .35-.28.63-.63.63s-.63-.28-.63-.63v-2.6a2.719 2.719 0 01.86-5.3h.21c.67-1.02 1.8-1.64 3.04-1.64s2.38.62 3.04 1.64h.21c1.5 0 2.72 1.22 2.72 2.72 0 1.2-.77 2.22-1.86 2.58v2.6c0 .35-.28.63-.63.63z"/><path d="M271.14 11.93c-.35 0-.63-.28-.63-.63v-.78c0-.35.28-.63.63-.63s.63.28.63.63v.78c0 .35-.28.63-.63.63zm2.32 0c-.35 0-.63-.28-.63-.63v-.78c0-.35.28-.63.63-.63s.63.28.63.63v.78c0 .35-.28.63-.63.63z"/></g><g clip-path="url(#clippath-1)"><path class="cls-53" d="M339.42 32.05a1.671 1.671 0 01-1.38-2.61c.12-.18.27-.33.46-.54.76-.81 2.55-2.7 2.81-6.32.07-.92.86-1.61 1.79-1.55.92.06 1.62.86 1.55 1.79-.34 4.81-2.79 7.4-3.71 8.38-.07.07-.12.13-.16.17-.33.44-.83.68-1.35.68zm1.39-.73s-.02.02-.02.03c0-.01.02-.02.02-.03z"/><path d="M339.7 13.06c0 .26.21.47.47.47h1.56v4.05h1.4v-4.05h1.56c.26 0 .47-.21.47-.47V9.79a4.98 4.98 0 00-4.98-4.98"/><path d="M343.51 15.97h-2.16V28.6a1.082 1.082 0 001.84.77c.19-.2.32-.46.32-.76V15.97z"/><path class="cls-53" d="M342.41 22.31c-.99 0-1.86-.28-2.41-.79-.42-.38-.67-.9-.69-1.44-.02-.54.18-1.07.56-1.49.55-.6 1.49-.97 2.58-1.01 1.08-.05 2.05.24 2.65.79.42.38.67.9.69 1.44.02.54-.18 1.07-.56 1.49-.55.6-1.49.97-2.57 1.01h-.24zm.11-2.89c-.06.15-.09.33-.08.52 0 .2.06.37.13.51.06-.15.09-.33.08-.52 0-.2-.06-.37-.13-.51z"/><path class="cls-53" d="M342.5 24.21c-1.78 0-3.05-.9-3.11-2.23-.06-1.39 1.23-2.42 3.13-2.51 1.92-.08 3.28.83 3.34 2.22.06 1.39-1.23 2.42-3.13 2.51h-.23zm.15-1.85c.06-.15.09-.33.08-.52 0-.19-.06-.36-.12-.51l.04 1.03zm-.05-1.03c-.05.15-.09.32-.08.51 0 .19.06.37.13.51l-.05-1.03zm-20.55 28h-6.24c-.92 0-1.67-.75-1.67-1.67s.75-1.67 1.67-1.67h2.9v-6.92c0-.92.75-1.67 1.67-1.67s1.67.75 1.67 1.67v10.26zm7.93 0h-6.24V39.07c0-.92.75-1.67 1.67-1.67s1.67.75 1.67 1.67v6.92h2.9c.92 0 1.67.75 1.67 1.67s-.75 1.67-1.67 1.67z"/><path d="M343.3 34.14c-.12-1.64-1.25-3.13-2.79-3.71-5.38-2.05-10.73-4.15-16.12-6.18 0-.77-.19-1.78.6-2.24.83-.39 1.64-.86 2.24-1.56 1.45-1.56 1.92-3.94 1.16-5.94-.87-2.52-3.63-4.18-6.27-3.77-2.9.34-5.28 3.15-5 6.08.2 1.02 1.58 1.49 2.35.79.75-.56.37-1.61.79-2.34.6-1.37 2.33-2.12 3.73-1.54 1.36.48 2.16 2.07 1.8 3.46-.21.92-.91 1.68-1.79 2.03a4.201 4.201 0 00-2.39 2.76c-.22.73-.13 1.5-.17 2.25-5.37 2.01-10.72 4.11-16.08 6.16-1.56.57-2.71 2.09-2.82 3.75-.04 1-.09 2.05.32 2.98.65 1.59 2.3 2.71 4.02 2.68h19.83v-2.91h-19.85c-.77.02-1.45-.68-1.43-1.44 0-.59-.11-1.24.25-1.75.27-.43.78-.57 1.22-.74 5.17-1.98 10.34-3.98 15.52-5.96.35-.14.73-.1 1.07.04 5.29 2.04 10.59 4.07 15.89 6.11.58.19 1.01.76 1 1.38 0 .58.11 1.24-.25 1.75-.3.45-.85.67-1.38.63h-13.11v2.91h13.29c1.72.03 3.38-1.09 4.03-2.68.41-.94.36-1.99.32-2.99z" fill="#dddd45"/><path class="cls-4" d="M319.44 8.64v3.1h6.98v-3.1a2.107 2.107 0 001.86-2.08 2.09 2.09 0 00-2.63-2.02c-.5-1.04-1.55-1.7-2.72-1.7s-2.21.66-2.72 1.7c-.17-.05-.36-.07-.54-.07-1.16 0-2.09.94-2.09 2.09 0 1.08.81 1.97 1.86 2.08z"/><path d="M326.41 11.94c-.35 0-.63-.28-.63-.63v-3.1c0-.32.24-.59.56-.62.74-.08 1.3-.71 1.3-1.46a1.464 1.464 0 00-1.85-1.41.616.616 0 01-.72-.33c-.4-.83-1.23-1.34-2.15-1.34s-1.75.52-2.15 1.34c-.13.27-.44.41-.73.33a1.47 1.47 0 00-1.85 1.41c0 .75.56 1.38 1.3 1.46.32.03.56.3.56.62v3.1c0 .35-.28.63-.63.63s-.63-.28-.63-.63v-2.6a2.719 2.719 0 01.86-5.3h.21c.67-1.02 1.8-1.64 3.05-1.64s2.38.62 3.05 1.64h.21a2.719 2.719 0 01.86 5.3v2.6c0 .35-.28.63-.63.63z"/><path d="M321.8 12.1c-.35 0-.63-.28-.63-.63v-.78c0-.35.28-.63.63-.63s.63.28.63.63v.78c0 .35-.28.63-.63.63zm2.31 0c-.35 0-.63-.28-.63-.63v-.78c0-.35.28-.63.63-.63s.63.28.63.63v.78c0 .35-.28.63-.63.63z"/><path class="cls-4" d="M319.23 30.63c2.47 0 4.47-2 4.47-4.47s-2-4.47-4.47-4.47-4.47 2-4.47 4.47 2 4.47 4.47 4.47z"/><path class="cls-4" d="M326.49 30.63c2.47 0 4.47-2 4.47-4.47s-2-4.47-4.47-4.47-4.47 2-4.47 4.47 2 4.47 4.47 4.47z"/><path class="cls-63" d="M326.49 28.5c1.29 0 2.34-1.05 2.34-2.34s-1.05-2.33-2.34-2.33-2.34 1.05-2.34 2.33 1.05 2.34 2.34 2.34zm-7.26 0c1.29 0 2.34-1.05 2.34-2.34s-1.05-2.33-2.34-2.33-2.34 1.05-2.34 2.33 1.05 2.34 2.34 2.34z"/><path d="M314.79 26.16h-2.09c0-.17 0-.33.02-.49l2.08.16c0 .11-.01.22-.01.34zm.05-.67l-2.07-.31c.03-.17.06-.33.09-.49l2.04.47c-.03.11-.05.22-.06.33zm.15-.66L313 24.2c.05-.16.11-.31.17-.47l1.94.78c-.04.1-.08.21-.11.32zm.25-.63l-1.88-.92c.07-.15.15-.3.24-.44l1.8 1.06c-.06.1-.11.2-.16.3zm.34-.58l-1.71-1.2c.09-.14.19-.27.3-.39l1.62 1.32c-.07.09-.14.18-.2.27zm.43-.52l-1.51-1.44c.11-.12.23-.24.36-.35l1.4 1.55c-.08.08-.16.15-.24.23zm.5-.45L315.23 21c.13-.1.27-.2.4-.29l1.15 1.75c-.09.06-.18.13-.27.2zm.56-.37l-1.02-1.82c.14-.08.29-.16.44-.23l.87 1.9-.3.15zm.61-.28l-.73-1.96c.15-.06.31-.11.47-.15l.58 2.01c-.11.03-.22.07-.32.11zm.65-.19l-.42-2.05c.16-.03.33-.06.49-.08l.26 2.07c-.11.01-.22.03-.33.05zm.67-.09l-.11-2.09h.34v2.09H319z"/></g><g clip-path="url(#clippath-2)"><path class="cls-55" d="M361.87 32.05c-2.57 0-4.89-1.11-6.02-2.92-1.29-2.06-.98-4.8.79-7a1.68 1.68 0 012.35-.26c.72.58.83 1.63.26 2.35-.85 1.05-1.07 2.31-.56 3.13.56.9 2.05 1.45 3.61 1.33a1.669 1.669 0 11.25 3.33c-.23.02-.45.03-.67.03z"/><path d="M357.25 13.21v6.96h1.18v-6.96h-1.18z"/><path d="M359.09 18.83h-1.83v7.33c0 .51.41.91.91.91s.91-.4.91-.91v-7.33zm-1.84-1.91c1.43 0 2.6-3.29 2.6-7.35s-1.16-7.35-2.6-7.35v14.7z"/><path class="cls-55" d="M358.5 22.8h-.23c-1.09-.05-2.03-.42-2.58-1.01-.38-.42-.58-.95-.56-1.49.06-1.39 1.43-2.31 3.34-2.23 1.91.09 3.2 1.12 3.14 2.51-.06 1.33-1.32 2.23-3.11 2.23zm-.23-2.37c0 .2.03.37.08.52.07-.14.12-.32.13-.51h-.21zm1.67.07zm-1.55-.58c-.07.14-.12.32-.13.51h.21c0-.19-.03-.36-.08-.51z"/><path class="cls-55" d="M358.43 24.7h-.24c-1.08-.05-2.02-.42-2.57-1.01-.38-.42-.58-.95-.56-1.49.02-.54.27-1.05.69-1.44.6-.55 1.57-.83 2.66-.79 1.08.05 2.02.42 2.57 1.01.38.42.58.95.56 1.49-.02.54-.27 1.05-.69 1.44-.56.51-1.43.79-2.41.79zm-.24-2.37c0 .2.03.37.08.52.07-.14.12-.32.13-.51h-.21zm1.67.07zm-1.55-.58c-.07.14-.12.32-.13.51h.21c0-.19-.03-.36-.08-.51zm17.74 27.52h-6.24c-.92 0-1.67-.75-1.67-1.67s.75-1.67 1.67-1.67h2.9v-6.92c0-.92.75-1.67 1.67-1.67s1.67.75 1.67 1.67v10.26zm7.93 0h-6.24V39.08c0-.92.75-1.67 1.67-1.67s1.67.75 1.67 1.67V46h2.9c.92 0 1.67.75 1.67 1.67s-.75 1.67-1.67 1.67zm-7.06-38.16c-7.74 0-14.07 6.33-14.07 14.07v7.03c0 .85.56 1.41 1.41 1.41h1.41v-8.44c0-6.19 5.06-11.25 11.26-11.25s11.25 5.06 11.25 11.25v8.44h1.41c.85 0 1.41-.56 1.41-1.41v-7.03c0-7.73-6.33-14.06-14.07-14.06z"/><path class="cls-4" d="M376.33 20.19c0 .97-.31 1.87-.84 2.6a4.47 4.47 0 01-3.63 1.87c-2.47 0-4.47-2-4.47-4.47h8.94z"/><g mask="url(#mask-7)"><path class="cls-63" d="M373.99 22.53c1.29 0 2.34-1.05 2.34-2.33s-1.05-2.34-2.34-2.34-2.34 1.05-2.34 2.34 1.05 2.33 2.34 2.33z"/></g><path class="cls-4" d="M384.89 20.19c0 .97-.31 1.87-.84 2.6a4.47 4.47 0 01-3.63 1.87c-2.47 0-4.47-2-4.47-4.47h8.94z"/><g mask="url(#mask-8)"><path class="cls-63" d="M382.56 22.53c1.29 0 2.34-1.05 2.34-2.33s-1.05-2.34-2.34-2.34-2.34 1.05-2.34 2.34 1.05 2.33 2.34 2.33z"/></g><path class="cls-24" d="M361.16 35.82c0 .66.53 1.19 1.06 1.33l3.82.26c.13 0 .27-.14.27-.26V25.71c0-.13-.14-.27-.27-.27l-3.82.27c-.67.14-1.06.67-1.06 1.33v8.78z"/><path class="cls-55" d="M367.5 24.79l-.93.14c-.13 0-.27.13-.27.26v12.5c0 .13.13.26.27.26l.93.13c.8.13 1.6-.53 1.6-1.33V26.11c0-.8-.8-1.46-1.6-1.33z"/><path class="cls-24" d="M391.57 25.72l-3.76-.27c-.13 0-.27.13-.27.27v11.44c0 .13.14.26.27.26l3.76-.26c.67-.13 1.06-.67 1.06-1.33v-8.78c0-.67-.53-1.19-1.06-1.33z"/><path class="cls-55" d="M387.15 24.92l-.8-.14c-.8-.13-1.59.53-1.59 1.33v10.64c0 .8.79 1.46 1.59 1.33l.93-.13c.13 0 .27-.13.27-.26v-12.5c-.14-.13-.27-.26-.4-.26z"/><path class="cls-24" d="M385 39.8h-4.76v2.72H385V39.8z"/><g mask="url(#mask-9)"><path class="cls-24" d="M384.95 42c0 .28-.23.52-.51.52h-3.63c-.29 0-.51-.23-.51-.52v-1.6c0-.28.23-.52.51-.52h3.63c.29 0 .51.23.51.52V42z"/></g><path class="cls-24" d="M384.84 41.79v-.92c1.76 0 3.04-.8 3.79-2.39.58-1.23.62-2.46.62-2.48l.92.02c0 .06-.05 1.44-.71 2.84-.9 1.92-2.5 2.93-4.62 2.93z"/><path class="cls-4" d="M374.03 8.86v3.1h6.98v-3.1a2.107 2.107 0 001.86-2.08 2.09 2.09 0 00-2.63-2.02c-.5-1.04-1.55-1.7-2.72-1.7s-2.21.66-2.72 1.7c-.17-.05-.36-.07-.54-.07-1.16 0-2.09.94-2.09 2.09 0 1.08.81 1.97 1.86 2.08z"/><path d="M381.01 12.16c-.35 0-.63-.28-.63-.63v-3.1c0-.32.24-.59.56-.62.74-.08 1.3-.71 1.3-1.46a1.464 1.464 0 00-1.85-1.41.616.616 0 01-.72-.33c-.4-.83-1.23-1.34-2.15-1.34s-1.75.52-2.15 1.34c-.13.27-.44.41-.73.33a1.47 1.47 0 00-1.85 1.41c0 .75.56 1.38 1.3 1.46.32.03.56.3.56.62v3.1c0 .35-.28.63-.63.63s-.63-.28-.63-.63v-2.6a2.719 2.719 0 01.86-5.3h.21c.67-1.02 1.8-1.64 3.05-1.64s2.38.62 3.05 1.64h.21a2.719 2.719 0 01.86 5.3v2.6c0 .35-.28.63-.63.63z"/><path d="M376.39 12.31c-.35 0-.63-.28-.63-.63v-.78c0-.35.28-.63.63-.63s.63.28.63.63v.78c0 .35-.28.63-.63.63zm2.32 0c-.35 0-.63-.28-.63-.63v-.78c0-.35.28-.63.63-.63s.63.28.63.63v.78c0 .35-.28.63-.63.63z"/></g><g clip-path="url(#clippath-3)"><path class="cls-21" d="M435.94 49.33h-6.24c-.92 0-1.67-.75-1.67-1.67s.75-1.67 1.67-1.67h2.9v-7.4c0-.92.75-1.67 1.67-1.67s1.67.75 1.67 1.67v10.74zm7.94 0h-6.24V38.59c0-.92.75-1.67 1.67-1.67s1.67.75 1.67 1.67v7.4h2.9c.92 0 1.67.75 1.67 1.67s-.75 1.67-1.67 1.67z"/><path d="M413.64 29.07l-1.21.42-.98-2.82-4.92 1.7-5.01-14.43 6.13-2.12 5.99 17.25z"/><path d="M411.49 28.64l2.48 7.16c.17.5.71.75 1.2.58.49-.17.75-.71.58-1.2l-2.48-7.16-1.79.62z"/><path class="cls-21" d="M412.24 34.09a2.8 2.8 0 01-.98-.17c-.53-.2-.95-.59-1.17-1.08-.57-1.27.25-2.7 1.99-3.48 1.75-.78 3.36-.43 3.93.84.22.5.23 1.06.03 1.59-.29.76-1.03 1.45-2.02 1.89-.61.27-1.22.41-1.78.41zm.6-3.04c0 .16.04.34.12.51.08.18.19.32.31.43 0-.16-.04-.34-.12-.51s-.19-.32-.3-.43z"/><path class="cls-21" d="M413.01 35.82c-.35 0-.68-.06-.98-.17-.53-.2-.95-.59-1.17-1.08-.22-.5-.23-1.06-.03-1.59.29-.76 1.03-1.45 2.02-1.89.99-.44 1.99-.53 2.75-.24.53.2.95.59 1.17 1.08.22.5.23 1.06.03 1.59-.29.76-1.03 1.44-2.02 1.89-.61.27-1.22.41-1.78.41zm.61-3.04c0 .16.04.34.12.51.08.18.19.32.31.43 0-.16-.04-.34-.12-.51-.08-.18-.19-.32-.31-.43z"/><path d="M437.26 41.01h-.89c-5.89 0-10.68-4.79-10.68-10.67v-1.87c0-.29.23-.52.52-.52.05 0 .1 0 .15.02 1.16-1.43 3.84-4.4 5.88-5.67 1.46.32 2.99.48 4.57.48 4.15 0 7.97-1.13 10.23-3 .15-.13.35-.15.53-.09.21.07.36.27.36.5v10.15c0 5.88-4.79 10.67-10.68 10.67z" fill-rule="evenodd" fill="#5348e0"/><path d="M422.78 29.59h-.89c-5.88 0-10.66-4.78-10.66-10.66V8.8c0-.28.23-.52.52-.52h.02c.13 0 .25.03.36.12 2.26 1.87 6.07 2.99 10.2 2.99s7.96-1.12 10.21-3c.15-.13.35-.15.52-.08.21.07.36.26.36.5v10.13c0 5.88-4.78 10.66-10.66 10.66z" fill="#705cff" fill-rule="evenodd"/><path d="M427.41 11.97s-.06.03-.1.04c-.12.06.14-.06.04-.02-.02 0-.05.02-.07.03-.14.06-.28.11-.42.16-.37.14-.74.28-1.12.41-.72.27-1.48.49-2.17.84-.29.15-.37.55-.21.81.17.29.52.36.81.22.03-.02.06-.03.09-.04-.06.03-.08.03-.04.02.02 0 .05-.02.07-.03.06-.03.13-.05.19-.07.16-.07.33-.13.49-.19.39-.14.77-.28 1.16-.43.62-.23 1.27-.42 1.85-.72.29-.15.37-.55.21-.81a.61.61 0 00-.81-.21z"/><path class="cls-4" d="M423.29 16c0 2.47-2 4.47-4.47 4.47s-4.47-2-4.47-4.47c0-1.06.37-2.04.99-2.81l7.89 2.11c.04.23.06.46.06.69z"/><g mask="url(#mask-10)"><path class="cls-63" d="M420.96 17.71c1.29 0 2.34-1.05 2.34-2.34s-1.05-2.33-2.34-2.33-2.34 1.05-2.34 2.33 1.05 2.34 2.34 2.34z"/></g><path class="cls-4" d="M423.29 16c0 2.47 2 4.47 4.47 4.47s4.47-2 4.47-4.47c0-1.06-.37-2.04-.99-2.81l-7.89 2.11c-.04.23-.06.46-.06.69z"/><g mask="url(#mask-11)"><path class="cls-63" d="M425.63 17.71c1.29 0 2.34-1.05 2.34-2.34s-1.05-2.33-2.34-2.33-2.34 1.05-2.34 2.33 1.05 2.34 2.34 2.34z"/></g><path d="M420.58 20.68c.81.27 1.56.67 2.24 1.22a1.686 1.686 0 11-2.1 2.64c-.81-.65-1.79-.92-2.84-.8-.93.11-1.77-.56-1.87-1.49-.11-.93.56-1.77 1.49-1.87 1.06-.12 2.1-.02 3.08.3z"/><g mask="url(#mask-12)"><path class="cls-7" d="M420.49 24.03c.27-.84-.69-1.91-2.15-2.38-1.46-.48-2.86-.19-3.14.65s.69 1.9 2.15 2.38 2.86.19 3.14-.65z"/></g><path class="cls-4" d="M433.32 33c2.47 0 4.47-2 4.47-4.47s-2-4.47-4.47-4.47-4.47 2-4.47 4.47 2 4.47 4.47 4.47z"/><path class="cls-4" d="M440.59 33c2.47 0 4.47-2 4.47-4.47s-2-4.47-4.47-4.47-4.47 2-4.47 4.47 2 4.47 4.47 4.47z"/><path class="cls-63" d="M440.59 30.87c1.29 0 2.34-1.05 2.34-2.33s-1.05-2.34-2.34-2.34-2.34 1.05-2.34 2.34 1.05 2.33 2.34 2.33zm-7.27 0c1.29 0 2.34-1.05 2.34-2.33s-1.05-2.34-2.34-2.34-2.34 1.05-2.34 2.34 1.05 2.33 2.34 2.33z"/><path class="cls-4" d="M419.14 8.39v3.11h6.98V8.39a2.092 2.092 0 10-.77-4.1c-.5-1.04-1.55-1.7-2.72-1.7s-2.21.66-2.72 1.7c-.17-.05-.36-.07-.54-.07a2.091 2.091 0 00-.23 4.17z"/><path d="M426.12 11.69c-.35 0-.63-.28-.63-.63v-3.1c0-.32.24-.59.56-.62.74-.08 1.3-.71 1.3-1.46 0-.81-.66-1.47-1.47-1.47-.12 0-.25.02-.38.05a.616.616 0 01-.72-.33c-.4-.83-1.23-1.35-2.15-1.35s-1.75.52-2.15 1.35a.62.62 0 01-.72.33c-.13-.03-.26-.05-.38-.05-.81 0-1.47.66-1.47 1.47 0 .75.56 1.38 1.3 1.46.32.04.56.3.56.62v3.1c0 .35-.28.63-.63.63s-.63-.28-.63-.63v-2.6a2.719 2.719 0 01-1.86-2.58c0-1.57 1.35-2.85 2.93-2.71.67-1.02 1.8-1.64 3.04-1.64s2.37.62 3.04 1.64a2.719 2.719 0 011.07 5.29v2.6c0 .35-.28.63-.63.63z"/><path d="M421.5 11.85c-.35 0-.63-.28-.63-.63v-.78c0-.35.28-.63.63-.63s.63.28.63.63v.78c0 .35-.28.63-.63.63zm2.32 0c-.35 0-.63-.28-.63-.63v-.78c0-.35.28-.63.63-.63s.63.28.63.63v.78c0 .35-.28.63-.63.63zm12.68 22.96c-.67-.05-1.33-.22-1.96-.51-.68-.31-.97-1.1-.66-1.78.31-.68 1.1-.97 1.78-.67.75.34 1.56.37 2.34.07.7-.26 1.47.1 1.73.78.26.69-.09 1.47-.79 1.73-.8.3-1.62.42-2.44.36z"/><g mask="url(#mask-13)"><path class="cls-7" d="M439.04 34.71c.05-.7-.89-1.33-2.11-1.42-1.22-.09-2.24.41-2.29 1.11-.05.69.89 1.33 2.11 1.42 1.22.09 2.24-.41 2.29-1.11z"/></g></g><path class="cls-64" d="M487.13 30.07h-.4c-.92-.04-1.64-.81-1.61-1.74s.81-1.65 1.74-1.61c2.33.09 2.74-.73 2.95-3.61.06-.92.86-1.62 1.79-1.55.92.06 1.62.86 1.55 1.78-.14 2.03-.47 6.73-6.01 6.73z"/><path d="M492.94 18.77c-.54-.15-1.11.17-1.25.71l-2.11 7.63c-.08.27-.03.55.1.77.13.23.35.41.62.48.54.15 1.11-.17 1.25-.71l2.11-7.63c.15-.55-.17-1.11-.71-1.25z"/><path d="M497.7 12.93c1.08-3.89.65-7.29-.96-7.78h-.06c-1.63-.41-3.74 2.29-4.82 6.18-1.08 3.89-.65 7.29.96 7.77h.06c1.64.41 3.74-2.29 4.82-6.18zm-4.71 5.68c-.05-.12-.17-.59.04-2.09.17-1.28.52-2.92.99-4.6.46-1.68 1-3.27 1.51-4.46.6-1.39.93-1.73 1.04-1.81.05.12.17.59-.04 2.09-.17 1.28-.52 2.92-.99 4.6-.46 1.68-1 3.27-1.51 4.45-.6 1.4-.93 1.74-1.04 1.82zm-.66-7.16c.89-3.22 2.4-5.32 3.57-5.77-.2.29-.44.73-.73 1.38-.55 1.23-1.12 2.91-1.62 4.72-.5 1.81-.87 3.55-1.03 4.88-.09.7-.11 1.21-.09 1.57-.77-.98-.99-3.56-.1-6.78zm1.33 7.13c.2-.29.44-.73.73-1.39.55-1.23 1.12-2.91 1.62-4.72s.87-3.55 1.03-4.88c.09-.71.11-1.21.09-1.57.77.99.99 3.57.1 6.78-.89 3.21-2.4 5.32-3.57 5.77z"/><path class="cls-64" d="M492.08 24.54c-.32 0-.65-.03-1-.11-.64-.13-1.22-.37-1.68-.7-.81-.58-1.19-1.43-1.02-2.27.11-.53.43-.99.91-1.31.68-.45 1.68-.58 2.75-.36 1.87.39 2.98 1.61 2.7 2.97-.11.53-.43 1-.91 1.31-.46.3-1.07.46-1.75.46zm-.62-2.44c-.04.19-.03.37 0 .53.09-.13.17-.3.21-.49.04-.19.03-.37 0-.53-.09.13-.17.29-.21.49z"/><path class="cls-64" d="M491.7 26.4c-.31 0-.65-.03-.99-.1-1.87-.39-2.98-1.61-2.7-2.97.28-1.36 1.78-2.04 3.65-1.67 1.87.39 2.98 1.61 2.7 2.97-.23 1.11-1.27 1.77-2.66 1.77zm-.62-2.44c-.04.19-.03.37 0 .52.09-.13.17-.29.2-.48l-.2-.04zm1.64.34zm-1.43-.82c-.09.13-.17.29-.21.48l.2.04c.04-.19.03-.37 0-.53zm-10.83 25.79h-4.57c-.92 0-1.67-.75-1.67-1.67v-8.67c0-.92.75-1.67 1.67-1.67s1.67.75 1.67 1.67v7h2.9c.92 0 1.67.75 1.67 1.67s-.75 1.67-1.67 1.67zm-9.11 0h-4.57c-.92 0-1.67-.75-1.67-1.67v-8.67c0-.92.75-1.67 1.67-1.67s1.67.75 1.67 1.67v7h2.9c.92 0 1.67.75 1.67 1.67s-.75 1.67-1.67 1.67z"/><path class="cls-71" d="M484.3 10.95h-26.74c-.1 0-.2 0-.3.01-.1 0-.2.02-.3.04-.1.02-.2.04-.29.07-.1.03-.19.06-.29.1-.1.03-.18.08-.27.13-.09.05-.17.1-.26.16-.08.06-.17.12-.24.18-.08.06-.15.13-.23.2-.07.07-.14.15-.2.22l-.18.24c-.06.09-.11.17-.15.26-.05.09-.09.18-.13.27-.04.09-.07.19-.1.29-.03.09-.06.19-.08.29-.02.1-.04.2-.04.3-.01.1-.02.21-.02.3v22.13c0 .1 0 .2.02.3.01.1.02.2.04.3.02.1.04.2.08.29.03.1.06.19.1.29.04.09.08.18.13.27.05.09.1.18.15.26.06.09.12.17.18.24.06.08.13.15.2.22s.15.14.23.2l.24.18c.08.06.17.11.26.16s.18.09.27.13a3.32 3.32 0 00.58.17c.1.02.2.04.3.04.1 0 .2.02.3.01h26.74c.1 0 .2 0 .3-.02.1 0 .2-.02.3-.04.1-.02.19-.05.29-.07.1-.03.19-.06.28-.1s.18-.08.27-.13c.09-.05.17-.1.26-.15l.24-.18c.08-.07.15-.13.22-.21.07-.07.14-.15.2-.22l.18-.24c.06-.08.11-.17.15-.26.05-.09.09-.18.13-.27.04-.09.07-.19.1-.28.03-.1.06-.2.08-.29.02-.1.04-.2.04-.3.01-.1.02-.2.02-.3V14.02c0-.1 0-.2-.02-.3 0-.1-.02-.2-.04-.3-.02-.1-.04-.2-.08-.29-.03-.1-.06-.19-.1-.28-.04-.09-.08-.19-.13-.27-.05-.09-.1-.18-.15-.26s-.12-.16-.18-.24c-.06-.08-.13-.15-.2-.23-.07-.07-.15-.14-.22-.2l-.24-.18c-.08-.06-.17-.11-.26-.16s-.18-.09-.27-.13c-.09-.04-.19-.07-.28-.1-.1-.03-.19-.06-.29-.07-.1-.02-.2-.04-.3-.04-.1-.01-.2-.02-.3-.02zm-20.26 3.44s.06-.05.09-.07c.03-.02.07-.04.1-.05.04-.02.07-.02.11-.03.04 0 .08-.01.11-.01h.12c.04 0 .08.02.11.03.04.01.07.03.1.05a.669.669 0 01.23.26c.03.07.05.15.04.23 0 .08-.02.15-.04.22-.03.07-.07.14-.12.19-.06.06-.12.1-.19.14a.593.593 0 01-.45.01.586.586 0 01-.19-.13.497.497 0 01-.13-.19.593.593 0 01-.01-.45c.03-.07.07-.14.13-.19zm-2.71 0s.06-.05.09-.07c.03-.02.07-.04.1-.05.04-.02.07-.02.11-.03.04 0 .08-.01.12-.01s.08 0 .12.01c.04 0 .08.02.11.03.04.02.07.03.1.05a.55.55 0 01.26.48c0 .04 0 .08-.01.12 0 .04-.02.08-.04.11-.02.04-.03.07-.06.1-.02.03-.05.06-.07.09a.55.55 0 01-.09.07c-.03.02-.07.04-.1.06-.04.02-.07.03-.11.04-.04 0-.08.01-.12.01-.08 0-.16-.01-.24-.05a.533.533 0 01-.2-.13.724.724 0 01-.11-.19c-.03-.07-.04-.14-.04-.22s.02-.15.05-.22c.03-.08.07-.14.12-.19zm-2.72.01s.06-.05.09-.08c.03-.02.06-.04.1-.06.04-.01.07-.03.11-.03.04 0 .08-.01.11-.01h.12c.04 0 .08.02.11.03.04 0 .07.03.1.05.03.02.06.05.09.07.03.02.05.06.08.08.02.03.04.06.06.1.02.04.03.07.04.11 0 .04.02.08.02.11v.12c0 .04-.02.08-.03.11-.01.04-.03.07-.05.11a.55.55 0 01-.07.09c-.03.03-.06.05-.09.08-.03.02-.07.04-.1.06-.04.02-.08.03-.11.04h-.24c-.04 0-.08-.02-.12-.03-.04-.02-.07-.03-.1-.05-.03-.02-.06-.05-.09-.07a.587.587 0 01-.17-.43c0-.08 0-.14.04-.22a.36.36 0 01.12-.18zm25.86 21.31v.12c0 .04-.02.08-.03.11-.02.04-.03.07-.06.1-.02.03-.05.06-.07.09a.55.55 0 01-.09.07c-.03.02-.07.04-.1.06-.04.02-.08.02-.11.03h-26.03s-.08 0-.12-.01c-.04 0-.08-.02-.11-.03-.04-.02-.07-.03-.1-.06-.03-.02-.06-.05-.09-.07-.03-.03-.05-.05-.07-.09-.02-.03-.04-.07-.06-.1-.02-.04-.02-.07-.03-.11s-.01-.08-.01-.12V17.98s0-.08.01-.12.02-.08.04-.11c.02-.04.03-.07.06-.1.02-.03.05-.07.07-.09a.55.55 0 01.09-.07c.03-.02.07-.04.1-.06.04-.02.07-.03.11-.04.04 0 .08-.01.12-.01h25.91s.08 0 .12.01c.04 0 .08.02.11.03.04.01.07.03.1.05.03.02.06.05.09.07.03.03.05.06.07.09.02.03.04.07.06.1.02.04.03.07.03.11 0 .04.01.08.01.12v17.72z"/><path class="cls-64" d="M458.86 18.69h11.77v6.17h-11.77v-6.17zm0 6.79h11.77v6.16h-11.77v-6.16z"/><path class="cls-63" d="M458.86 32.43H483v2.53h-24.14v-2.53z"/><path class="cls-71" d="M470.93 35.52a1.82 1.82 0 100-3.64 1.82 1.82 0 000 3.64z"/><path class="cls-4" d="M470.93 34.3c.33 0 .6-.27.6-.6s-.27-.6-.6-.6-.6.27-.6.6.27.6.6.6z"/><path class="cls-71" d="M467.9 34.12h-6.6c-.23 0-.42-.19-.42-.42s.19-.42.42-.42h6.6c.23 0 .42.19.42.42s-.19.42-.42.42zm12.65 0h-6.6c-.23 0-.42-.19-.42-.42s.19-.42.42-.42h6.6c.23 0 .42.19.42.42s-.19.42-.42.42z"/><path class="cls-64" d="M471.24 18.69h11.75v6.17h-11.75v-6.17zm0 6.79h11.75v6.16h-11.75v-6.16z"/><path class="cls-4" d="M467.44 8.23v3.11h6.98V8.23a2.092 2.092 0 10-.77-4.1c-.5-1.04-1.55-1.7-2.72-1.7s-2.21.66-2.72 1.7c-.17-.05-.36-.07-.54-.07-1.16 0-2.09.94-2.09 2.09 0 1.08.81 1.97 1.86 2.08z"/><path d="M474.41 11.54c-.35 0-.63-.28-.63-.63v-3.1c0-.32.24-.59.56-.62.74-.08 1.3-.71 1.3-1.46 0-.81-.66-1.47-1.47-1.47-.12 0-.25.02-.38.05a.627.627 0 01-.72-.33c-.4-.83-1.23-1.35-2.15-1.35s-1.75.52-2.15 1.35a.62.62 0 01-.72.33c-.13-.03-.26-.05-.38-.05-.81 0-1.47.66-1.47 1.47 0 .75.56 1.38 1.3 1.46.32.03.56.3.56.62v3.1c0 .35-.28.63-.63.63s-.63-.28-.63-.63v-2.6a2.719 2.719 0 011.07-5.29c.67-1.02 1.8-1.64 3.04-1.64s2.37.62 3.04 1.64a2.719 2.719 0 011.07 5.29v2.6c0 .35-.28.63-.63.63z"/><path d="M469.8 11.69c-.35 0-.63-.28-.63-.63v-.78c0-.35.28-.63.63-.63s.63.28.63.63v.78c0 .35-.28.63-.63.63zm2.31 0c-.35 0-.63-.28-.63-.63v-.78c0-.35.28-.63.63-.63s.63.28.63.63v.78c0 .35-.28.63-.63.63z"/><path class="cls-4" d="M474.26 21.56c2.47 0 4.47-2 4.47-4.47s-2-4.47-4.47-4.47-4.47 2-4.47 4.47 2 4.47 4.47 4.47z"/><path class="cls-4" d="M481.53 21.56c2.47 0 4.47-2 4.47-4.47s-2-4.47-4.47-4.47-4.47 2-4.47 4.47 2 4.47 4.47 4.47z"/><path class="cls-63" d="M480.06 20.98c1.29 0 2.34-1.05 2.34-2.33s-1.05-2.34-2.34-2.34-2.34 1.05-2.34 2.34 1.05 2.33 2.34 2.33zm-7.33-.11c1.29 0 2.34-1.05 2.34-2.34s-1.05-2.33-2.34-2.33-2.34 1.05-2.34 2.33 1.05 2.34 2.34 2.34z"/><path class="cls-11" d="M537.61 31.86c-.82 0-1.54-.61-1.66-1.45a1.67 1.67 0 011.44-1.88c1.32-.18 2.37-.8 3.12-1.85.9-1.27 1.11-2.8.91-3.76-.19-.9.4-1.79 1.3-1.97.9-.18 1.79.4 1.97 1.3.42 2.06-.14 4.5-1.46 6.36-1.29 1.81-3.15 2.93-5.4 3.23-.08.01-.15.02-.22.02z"/><path d="M542.7 11.86h1.14v9.8h-1.14v-9.8zm-.52-8.1h-.83v6.71h.83V3.76z"/><g mask="url(#mask-14)"><path d="M541.36 3.79h.76v6.62h-.76V3.79z"/></g><path d="M542.88 3.79h.76v6.62h-.76V3.79zm1.59 0h.76v6.62h-.76V3.79z"/><path d="M545.23 10.32h-3.88v1.91h3.88v-1.91z"/><g mask="url(#mask-15)"><path d="M541.36 10.34h3.81c0 1.04-.85 1.88-1.88 1.88h-.05c-1.04 0-1.88-.85-1.88-1.88z"/></g><path d="M544.18 17.09v9.83c0 .51-.41.92-.92.92s-.92-.41-.92-.92v-9.83h1.83z"/><path class="cls-11" d="M542.64 23.87c-1.71 0-2.93-.85-3.03-2.14-.1-1.39 1.16-2.45 3.06-2.59 1.09-.08 2.06.18 2.68.71.43.37.69.88.73 1.42.1 1.39-1.16 2.45-3.06 2.59-.13 0-.25.01-.37.01zm.17-2.88c-.05.15-.08.33-.06.52.01.19.07.37.14.51l-.07-1.03zm0 0l.07 1.02c.05-.15.08-.33.07-.52-.01-.19-.07-.36-.14-.5z"/><path class="cls-11" d="M542.77 25.76c-.93 0-1.75-.26-2.3-.73a2.08 2.08 0 01-.73-1.42c-.1-1.39 1.16-2.45 3.06-2.59 1.91-.13 3.3.74 3.4 2.13.04.54-.15 1.08-.52 1.51-.53.61-1.46 1.01-2.55 1.08-.13 0-.25.01-.38.01zm.17-2.89a1.322 1.322 0 00.07 1.03c.05-.15.08-.33.07-.52-.01-.2-.07-.37-.14-.51zm-11.45 26.4h-6.24V38.93c0-.92.75-1.67 1.67-1.67s1.67.75 1.67 1.67v7h2.9c.92 0 1.67.75 1.67 1.67s-.75 1.67-1.67 1.67zm-9.11 0h-6.24V38.93c0-.92.75-1.67 1.67-1.67s1.67.75 1.67 1.67v7h2.9c.92 0 1.67.75 1.67 1.67s-.75 1.67-1.67 1.67z"/><g mask="url(#mask-16)"><path d="M538.8 18.47v22.15c0 .76-.62 1.38-1.38 1.38h-32.24c-.76 0-1.38-.62-1.38-1.38V18.47h35.01zm-3.66 5.34l2.11-4.49h-6.16l-2.11 4.49h6.16zm-11.89 0l2.11-4.49h-6.16l-2.11 4.49h6.16zm-11.9 0l2.11-4.49h-6.15l-2.11 4.49h6.15z" fill="#f93a3a"/><path class="cls-4" d="M537.25 19.32l-2.11 4.49h-6.16l2.11-4.49h6.16zm-11.9 0l-2.11 4.49h-6.16l2.11-4.49h6.16zm-11.9 0l-2.11 4.49h-6.15l2.11-4.49h6.15z"/></g><path class="cls-4" d="M531.25 35c1.74 0 3.16-2 3.16-4.47s-1.41-4.47-3.16-4.47-3.16 2-3.16 4.47S529.5 35 531.25 35zm-7.09 0c1.74 0 3.16-2 3.16-4.47s-1.41-4.47-3.16-4.47-3.16 2-3.16 4.47 1.41 4.47 3.16 4.47z"/><path class="cls-11" d="M537.65 8.35l.74 4.81-7.61 1.17-.13-.84 6.08-.93-2.76-4.12-.14-.88 2.25-.35c.75-.12 1.46.4 1.58 1.16z"/><path class="cls-4" d="M533.96 8.43l2.76 4.12-6.08.93-2.76-4.12 6.08-.93z"/><path class="cls-11" d="M533.83 7.55l.14.88-6.08.93 2.76 4.12.13.84-11.76 1.8-.13-.84 6.08-.93-2.77-4.12-.14-.89 11.76-1.8z"/><path class="cls-4" d="M522.2 10.23l2.77 4.12-6.08.93-2.77-4.12 6.08-.93z"/><path class="cls-11" d="M522.07 9.35l.13.89-6.08.93 2.77 4.12.13.84-5.68.87-.13-.85-2.76-4.12-6.08.93-.14-.89 17.84-2.74z"/><path class="cls-11" d="M513.21 16.16l.13.85-9.56 1.47-.74-4.81c-.12-.75.4-1.46 1.16-1.58h.03l.14.88 2.76 4.12 6.08-.93z"/><path class="cls-4" d="M510.45 12.04l2.76 4.12-6.08.93-2.76-4.12 6.08-.93z"/><path class="cls-63" d="M531.25 27.37a3.16 3.16 0 003.16 3.16 3.16 3.16 0 00-3.16 3.16 3.16 3.16 0 00-3.16-3.16c1.75 0 3.16-1.41 3.16-3.16zm-7.09 0a3.16 3.16 0 003.16 3.16 3.16 3.16 0 00-3.16 3.16 3.16 3.16 0 00-3.16-3.16 3.16 3.16 0 003.16-3.16z"/><path d="M524.09 37.86c-1.61 0-3.19-.76-4.18-2.17-.67-.95-.99-2.11-.91-3.26.02-.35.32-.6.67-.58.35.02.61.32.58.67-.06.87.18 1.74.69 2.46 1.21 1.73 3.61 2.15 5.35.94a.625.625 0 01.72 1.02c-.89.62-1.91.92-2.92.92z"/><path class="cls-4" d="M508.85 8.49l.44 3.07 6.91-.99-.44-3.07c1.02-.26 1.7-1.26 1.55-2.32a2.097 2.097 0 00-2.37-1.78c-.18.02-.36.08-.52.15a3.003 3.003 0 00-2.93-1.3c-1.16.17-2.1.97-2.45 2.07-.18-.02-.37-.02-.54 0a2.11 2.11 0 00-1.78 2.37 2.09 2.09 0 002.13 1.8z"/><path d="M509.23 11.76c-.31 0-.58-.23-.62-.54l-.37-2.58a2.719 2.719 0 01-1.69-4.31 2.7 2.7 0 011.79-1.06c.07 0 .14-.02.21-.02a3.64 3.64 0 012.78-2.05c1.23-.18 2.44.27 3.25 1.19a2.703 2.703 0 012.23.48 2.718 2.718 0 01-.42 4.61l.37 2.58a.63.63 0 01-.53.71.63.63 0 01-.71-.53l-.44-3.07a.64.64 0 01.46-.7c.72-.19 1.19-.89 1.08-1.63-.05-.39-.26-.73-.57-.96-.31-.23-.7-.33-1.08-.28-.13.02-.25.05-.36.1-.28.12-.6.03-.77-.22a2.355 2.355 0 00-2.32-1.03c-.92.13-1.66.76-1.94 1.64a.63.63 0 01-.69.43c-.11-.02-.23-.01-.37 0-.38.05-.72.26-.96.57-.24.31-.34.7-.28 1.09.11.74.76 1.28 1.49 1.26.33-.01.6.22.64.54l.44 3.07a.63.63 0 01-.53.71h-.09z"/><path d="M511.59 11.59c-.31 0-.57-.23-.62-.54l-.11-.77a.63.63 0 01.53-.71c.34-.05.66.19.71.53l.11.77a.63.63 0 01-.53.71h-.09zm2.3-.33c-.31 0-.57-.23-.62-.54l-.11-.77a.63.63 0 01.53-.71c.34-.05.66.19.71.53l.11.77a.63.63 0 01-.53.71h-.09z"/><g clip-path="url(#clippath-4)"><path class="cls-51" d="M571.15 49.33h-4.57c-.92 0-1.67-.75-1.67-1.67s.75-1.67 1.67-1.67h2.9v-3.42c0-.92.75-1.67 1.67-1.67s1.67.75 1.67 1.67v5.1c0 .92-.75 1.67-1.67 1.67zm9.61 0h-4.57c-.92 0-1.67-.75-1.67-1.67v-5.1c0-.92.75-1.67 1.67-1.67s1.67.75 1.67 1.67v3.42h2.9c.92 0 1.67.75 1.67 1.67s-.75 1.67-1.67 1.67z"/><g mask="url(#mask-17)"><path class="cls-51" d="M579.97 43.39h-12.59c-.34 0-.61-.27-.61-.61v-.37c0-.93.75-1.68 1.68-1.68h10.44c.93 0 1.68.75 1.68 1.68v.37c0 .34-.27.61-.61.61z"/></g><path class="cls-30" d="M564.95 23.28v2.68h-3.79c-.39 0-.71-.32-.71-.72V24c0-.39.32-.71.71-.71h3.79zm21.96.72v1.24c0 .4-.32.72-.71.72h-3.79v-2.68h3.79c.39 0 .71.32.71.72zm-20.65 3.61c1.88 7.8 12.94 7.81 14.82 0h-14.82zm12.79-16.98c-4.38-4.44-11.93-1.79-12.89 4.1h6.68c.45 0 .82.36.82.82 0 .23-.09.43-.24.58-.15.15-.35.24-.58.24h-6.79V18h6.78c.45 0 .82.36.82.82 0 .23-.09.43-.24.58-.15.15-.35.24-.58.24h-6.79v2.02c.26-.04 14.81 0 15.05-.01.06 0 .12 0 .17.01v-5.63c0-2.1-.85-4-2.23-5.38z"/><path class="cls-51" d="M585.97 25.96c-.09 6.71-5.74 12.11-12.29 12.07-6.55.04-12.21-5.36-12.3-12.07h2.12c.8 13.2 19.56 13.2 20.35 0h2.12z"/><path class="cls-51" d="M582.4 22.92v3.41c0 .71-.58 1.28-1.29 1.28h-14.88c-.71 0-1.29-.57-1.29-1.28v-3.41c0-.71.59-1.29 1.29-1.29h14.88a1.276 1.276 0 011.29 1.28z"/><path class="cls-30" d="M575.91 37.82v2.9h-4.47v-2.9c1.44.27 3.03.27 4.47 0z"/><path class="cls-4" d="M574.24 24.22c2.47 0 4.47-3.09 4.47-6.9s-2-6.9-4.47-6.9-4.47 3.09-4.47 6.9 2 6.9 4.47 6.9z"/><path class="cls-4" d="M581.5 24.22c2.47 0 4.47-3.09 4.47-6.9s-2-6.9-4.47-6.9-4.47 3.09-4.47 6.9 2 6.9 4.47 6.9z"/><g mask="url(#mask-18)"><path class="cls-63" d="M584.26 20.23c1.29 0 2.34-1.05 2.34-2.34s-1.05-2.34-2.34-2.34-2.34 1.05-2.34 2.34 1.05 2.34 2.34 2.34z"/></g><g mask="url(#mask-19)"><path class="cls-63" d="M577.16 20.21c1.29 0 2.34-1.04 2.34-2.33s-1.05-2.34-2.34-2.34-2.34 1.05-2.34 2.34 1.05 2.33 2.34 2.33z"/></g><path d="M576.55 26.46c-.63-.24-1.21-.6-1.73-1.06-.56-.49-.6-1.34-.11-1.9.49-.56 1.34-.61 1.9-.11.62.55 1.38.81 2.22.76a1.343 1.343 0 01.16 2.68c-.84.05-1.66-.08-2.43-.38z"/><g mask="url(#mask-20)"><path class="cls-7" d="M579 27.1c.25-.65-.46-1.54-1.6-1.98-1.14-.44-2.26-.27-2.52.38-.25.65.46 1.54 1.6 1.98 1.14.44 2.26.27 2.52-.38z"/></g><path class="cls-4" d="M570.18 6.67v3.1h6.98v-3.1a2.107 2.107 0 001.86-2.08 2.09 2.09 0 00-2.63-2.02c-.5-1.04-1.55-1.7-2.72-1.7s-2.21.66-2.72 1.7c-.17-.05-.36-.07-.54-.07-1.16 0-2.09.94-2.09 2.09 0 1.08.81 1.97 1.86 2.08z"/><path d="M577.16 9.97c-.35 0-.63-.28-.63-.63v-3.1c0-.32.24-.59.56-.62.74-.08 1.3-.71 1.3-1.46a1.464 1.464 0 00-1.85-1.41.627.627 0 01-.72-.33c-.4-.83-1.23-1.34-2.15-1.34s-1.75.52-2.15 1.34a.62.62 0 01-.72.33 1.47 1.47 0 00-1.85 1.41c0 .75.56 1.38 1.3 1.46.32.04.56.3.56.62v3.1c0 .35-.28.63-.63.63s-.63-.28-.63-.63v-2.6a2.719 2.719 0 01.86-5.3h.21c.67-1.02 1.8-1.64 3.05-1.64s2.38.62 3.05 1.64h.21a2.719 2.719 0 01.86 5.3v2.6c0 .35-.28.63-.63.63z"/><path d="M572.54 10.13c-.35 0-.63-.28-.63-.63v-.78c0-.35.28-.63.63-.63s.63.28.63.63v.78c0 .35-.28.63-.63.63zm2.32 0c-.35 0-.63-.28-.63-.63v-.78c0-.35.28-.63.63-.63s.63.28.63.63v.78c0 .35-.28.63-.63.63z"/></g><g clip-path="url(#clippath-5)"><path class="cls-40" d="M626.54 49.35h-6.24c-.92 0-1.67-.75-1.67-1.67s.75-1.67 1.67-1.67h2.9v-6.92c0-.92.75-1.67 1.67-1.67s1.67.75 1.67 1.67v10.26zm7.94 0h-6.24V39.09c0-.92.75-1.67 1.67-1.67s1.67.75 1.67 1.67v6.92h2.9c.92 0 1.67.75 1.67 1.67s-.75 1.67-1.67 1.67zm-.54-13.64h-13.09c-.88 0-1.59-.71-1.59-1.59V21.03c0-.88.71-1.59 1.59-1.59h13.09c.88 0 1.59.71 1.59 1.59v13.09c0 .88-.71 1.59-1.59 1.59z"/><path class="cls-65" d="M627.39 34.72c3.94 0 7.14-3.2 7.14-7.14s-3.2-7.14-7.14-7.14-7.14 3.2-7.14 7.14 3.2 7.14 7.14 7.14z"/><path class="cls-40" d="M627.39 35.13l-.05-2.09h.07c.1 0 .21 0 .33-.01l.13 2.09c-.16.01-.32.02-.48.02zm-.54-.02c-.16-.01-.32-.03-.48-.05l.28-2.07c.12.02.23.03.35.04l-.15 2.08zm1.5-.04l-.27-2.07c.12-.01.23-.03.35-.06l.4 2.05c-.16.03-.32.06-.48.08zm-2.46-.09c-.16-.03-.31-.07-.47-.11l.54-2.02c.11.03.23.06.34.08l-.42 2.05zm3.41-.1l-.53-2.02c.11-.03.22-.06.33-.1l.66 1.98c-.15.05-.31.1-.47.14zm-4.34-.15c-.15-.05-.3-.11-.45-.17l.8-1.93c.11.04.22.09.33.12l-.67 1.98zm5.26-.15l-.78-1.94c.11-.04.21-.09.32-.14l.91 1.88c-.15.07-.29.14-.44.2zm-6.16-.22c-.15-.07-.29-.15-.43-.23l1.04-1.81c.1.06.2.11.31.16l-.92 1.88zm7.03-.2l-1.03-1.82.3-.18 1.14 1.75c-.14.09-.27.17-.41.25zm-7.87-.28c-.13-.09-.26-.18-.39-.28l1.26-1.67c.09.07.19.14.29.2l-1.16 1.74zm8.68-.25l-1.25-1.68c.09-.07.18-.14.27-.22l1.36 1.59c-.12.11-.25.21-.38.3zm-9.45-.33c-.12-.11-.24-.21-.36-.33l1.46-1.49c.08.08.17.16.26.24l-1.36 1.58zm10.18-.29l-1.45-1.5.25-.25 1.54 1.41c-.11.12-.22.23-.34.35zm-10.87-.38c-.11-.12-.21-.24-.31-.37l1.64-1.29c.07.09.15.18.22.27l-1.55 1.4zm11.52-.33l-1.63-1.31c.07-.09.14-.18.21-.28l1.71 1.2c-.09.13-.19.26-.29.39zm-12.12-.43c-.09-.13-.18-.27-.26-.41l1.79-1.07c.06.1.12.2.19.29l-1.72 1.19zm12.68-.36l-1.78-1.09c.06-.1.12-.2.17-.3l1.85.97c-.08.14-.15.28-.24.42zm-13.18-.47c-.07-.14-.14-.29-.21-.44l1.92-.83c.05.11.1.21.15.32l-1.86.96zm13.63-.39l-1.91-.85c.05-.11.09-.21.13-.32l1.96.72-.18.45zm-14.01-.5c-.05-.15-.1-.31-.15-.46l2.01-.58c.03.11.07.22.11.33l-1.97.71zm14.35-.41l-2-.6c.03-.11.06-.22.09-.34l2.04.47-.12.47zm-14.62-.52l-.09-.48 2.07-.32c.02.12.04.23.06.34l-2.04.45zm14.83-.42l-2.06-.33c.02-.11.03-.23.04-.35l2.08.2-.06.48zm-14.98-.53l-.03-.48 2.09-.05c0 .12 0 .23.02.35l-2.08.19zm15.07-.43l-2.09-.07v-.35l2.09-.06v.48zm-13.01-.46l-2.09-.08c0-.16.02-.32.03-.48l2.08.21c-.01.12-.02.23-.02.35zm10.9-.31c-.01-.12-.03-.23-.04-.35l2.06-.33c.02.16.05.32.06.48l-2.08.19zm-10.83-.39l-2.06-.34.09-.48 2.04.47c-.03.11-.05.23-.07.34zm10.72-.3l-.09-.34 2.01-.59c.05.15.09.31.12.47l-2.04.46zM622.15 26l-2-.6c.05-.16.1-.31.15-.46l1.96.73c-.04.11-.08.22-.11.33zm10.37-.29c-.04-.11-.08-.22-.13-.33l1.91-.84c.06.15.13.3.18.45l-1.96.72zm-10.12-.36l-1.91-.86c.07-.15.14-.29.21-.43l1.85.98c-.05.1-.11.21-.15.31zm9.84-.28c-.05-.1-.11-.21-.17-.31l1.79-1.08.24.42-1.85.96zm-9.51-.34l-1.78-1.09c.08-.14.17-.27.27-.4l1.71 1.2c-.07.1-.13.19-.19.29zm9.15-.26c-.07-.1-.14-.19-.21-.28l1.64-1.3c.1.13.2.26.29.39l-1.72 1.19zm-8.75-.31l-1.63-1.31c.1-.13.21-.25.32-.37l1.54 1.41c-.08.09-.15.17-.23.27zm8.31-.24c-.08-.09-.16-.17-.24-.25l1.46-1.5c.12.11.23.23.34.35l-1.55 1.4zm-7.84-.28l-1.44-1.51c.12-.11.23-.22.36-.32l1.35 1.6c-.09.08-.18.16-.26.24zm7.34-.21c-.09-.08-.18-.15-.28-.22l1.26-1.67c.13.1.25.2.37.3l-1.36 1.59zm-6.8-.24l-1.25-1.68c.13-.1.26-.19.4-.28l1.14 1.75c-.1.06-.19.13-.29.2zm6.24-.18c-.1-.06-.2-.13-.3-.18l1.04-1.81c.14.08.28.16.41.25l-1.15 1.75zm-5.66-.2l-1.02-1.83c.14-.08.28-.15.43-.22l.9 1.89c-.11.05-.21.1-.31.16zm5.05-.14c-.11-.05-.21-.1-.32-.14l.8-1.93c.15.06.3.13.44.2l-.91 1.88zm-4.41-.16l-.78-1.94c.15-.06.3-.12.46-.17l.65 1.99c-.11.04-.22.07-.33.12zm3.77-.11c-.11-.04-.22-.07-.34-.1l.54-2.02c.16.04.31.09.46.14l-.66 1.98zm-3.1-.11l-.52-2.02c.16-.04.31-.08.47-.11l.39 2.05c-.11.02-.23.05-.34.08zm2.43-.07l-.34-.06.27-2.07c.16.02.32.05.48.08l-.41 2.05zm-1.74-.06l-.26-2.07c.16-.02.32-.03.48-.04l.13 2.09c-.12 0-.23.02-.35.03zm1.05-.03c-.12 0-.23-.01-.35-.01v-2.09c.17 0 .33 0 .49.02l-.14 2.09z"/><path class="cls-65" d="M628.1 18.19h-1.43v1.25h1.43v-1.25z"/><path class="cls-65" d="M635.53 18.47h-16.27l.56-7.21h15.15l.56 7.21zm1.25 9.82v-1.43h-1.25v1.43h1.25z"/><path class="cls-65" d="M636.49 35.71V19.44l7.22.56v15.15l-7.22.56zm-9.81 1.24h1.43V35.7h-1.43v1.25z"/><path class="cls-65" d="M619.25 36.67h16.27l-.56 7.22h-15.15l-.56-7.22zM618 26.85v1.43h1.25v-1.43H618z"/><path class="cls-65" d="M618.28 19.42v16.27l-7.22-.56V19.98l7.22-.56z"/><path class="cls-4" d="M627.39 32.73c2.84 0 5.15-2.31 5.15-5.15s-2.31-5.15-5.15-5.15-5.15 2.31-5.15 5.15 2.31 5.15 5.15 5.15z"/><path class="cls-63" d="M627.39 30.27a2.69 2.69 0 10-.002-5.378 2.69 2.69 0 00.002 5.378z"/><path class="cls-4" d="M623.9 8.64v3.1h6.98v-3.1a2.107 2.107 0 001.86-2.08 2.09 2.09 0 00-2.63-2.02c-.5-1.04-1.55-1.7-2.72-1.7s-2.21.66-2.72 1.7c-.17-.05-.36-.07-.54-.07-1.16 0-2.09.94-2.09 2.09 0 1.08.81 1.97 1.86 2.08z"/><path d="M630.88 11.94c-.35 0-.63-.28-.63-.63v-3.1c0-.32.24-.59.56-.62.74-.08 1.3-.71 1.3-1.46a1.464 1.464 0 00-1.85-1.41.616.616 0 01-.72-.33c-.4-.83-1.23-1.34-2.15-1.34s-1.75.52-2.15 1.34c-.13.27-.44.41-.73.33a1.47 1.47 0 00-1.85 1.41c0 .75.56 1.38 1.3 1.46.32.03.56.3.56.62v3.1c0 .35-.28.63-.63.63s-.63-.28-.63-.63v-2.6a2.719 2.719 0 01.86-5.3h.21c.67-1.02 1.8-1.64 3.05-1.64s2.38.62 3.05 1.64h.21a2.719 2.719 0 01.86 5.3v2.6c0 .35-.28.63-.63.63z"/><path d="M626.26 12.1c-.35 0-.63-.28-.63-.63v-.78c0-.35.28-.63.63-.63s.63.28.63.63v.78c0 .35-.28.63-.63.63zm2.32 0c-.35 0-.63-.28-.63-.63v-.78c0-.35.28-.63.63-.63s.63.28.63.63v.78c0 .35-.28.63-.63.63zm-18.59 11.47v.02c0 .66-.41 1.2-.99 1.41v6.87h-1.01V25c-.58-.21-.99-.76-.99-1.41V15.6h.92v7.96h1.15v-7.94h.92v7.94z"/><path d="M607.65 30.8l-.21 9.84c0 .46.37.83.83.83s.83-.37.83-.83l.21-9.84h-1.66z"/><path class="cls-40" d="M608.49 38.3c-1.91 0-3.24-.97-3.24-2.37s1.33-2.37 3.24-2.37 3.24.97 3.24 2.37-1.33 2.37-3.24 2.37zm0-2.88c-.06.15-.1.32-.1.52s.04.37.1.52c.06-.15.1-.32.1-.52s-.04-.37-.1-.52z"/><path class="cls-40" d="M608.49 40.19c-1.91 0-3.24-.97-3.24-2.37s1.33-2.37 3.24-2.37 3.24.97 3.24 2.37-1.33 2.37-3.24 2.37zm0-2.88c-.06.15-.1.32-.1.52s.04.37.1.52c.06-.15.1-.32.1-.52s-.04-.37-.1-.52z"/></g><g clip-path="url(#clippath-6)"><path d="M692.54 18.92c0 2.17-.97 3.97-2.26 4.41v9.99h-1.2v-9.99c-1.29-.43-2.26-2.24-2.26-4.41s1.27-4.51 2.86-4.51 2.86 2.02 2.86 4.51z"/><path d="M690.49 30.43V39c0 .44-.36.8-.8.8s-.8-.36-.8-.8v-8.57h1.6z"/><path class="cls-68" d="M689.47 36.07c-.99 0-1.86-.28-2.42-.79-.42-.38-.66-.9-.69-1.44-.02-.54.18-1.07.56-1.49.55-.6 1.49-.97 2.58-1.01 1.08-.05 2.05.24 2.65.79.42.38.67.9.69 1.44.04.86-.47 1.64-1.37 2.08-.5.25-1.11.39-1.77.42h-.24zm.11-2.89c-.06.15-.09.33-.08.52 0 .2.06.37.13.51.06-.15.09-.33.08-.52 0-.2-.06-.37-.13-.51z"/><path class="cls-68" d="M689.56 37.97c-1.78 0-3.05-.9-3.11-2.23-.02-.54.18-1.07.56-1.49.55-.6 1.49-.97 2.58-1.02 1.91-.08 3.28.83 3.34 2.22.06 1.39-1.23 2.42-3.13 2.51h-.23zm.11-2.89l.04 1.03c.06-.15.09-.33.08-.52 0-.19-.06-.36-.12-.51zm0 0c-.05.15-.09.32-.08.51 0 .19.06.37.13.51l-.05-1.03zm-16.62 14.25h-6.24c-.92 0-1.67-.75-1.67-1.67s.75-1.67 1.67-1.67h2.9v-6.92c0-.92.75-1.67 1.67-1.67s1.67.75 1.67 1.67v10.26zm7.93 0h-6.24V39.07c0-.92.75-1.67 1.67-1.67s1.67.75 1.67 1.67v6.92h2.9c.92 0 1.67.75 1.67 1.67s-.75 1.67-1.67 1.67z"/><path d="M683.76 34.76h-19.68c-1.36 0-2.46 1.1-2.46 2.46s1.1 2.46 2.46 2.46h1.23v3.07c0 .34.28.62.62.62h15.99c.34 0 .62-.28.62-.62v-3.07h1.23c1.36 0 2.46-1.1 2.46-2.46s-1.1-2.46-2.46-2.46z" fill="#529e21"/><path class="cls-68" d="M666.91 33.54h14.04c1.05-4.08 5.06-8.12 5.1-8.16.14-.15.2-.34.17-.54a.617.617 0 00-.33-.45c-7.04-3.52-10.11-14.85-10.14-14.96-.08-.3-.37-.5-.68-.45-.31.04-.54.3-.54.61V23.1c0 .24.14.46.36.56.91.4 1.48 1.28 1.48 2.26s-.58 1.86-1.47 2.25c-.64.27-1.35.26-1.97 0-.91-.4-1.48-1.28-1.48-2.26s.58-1.86 1.48-2.26c.22-.1.36-.31.36-.56V9.58c0-.3-.23-.57-.54-.61-.31-.04-.6.16-.68.45-.03.11-3.08 11.43-10.14 14.96-.17.09-.3.25-.33.45-.03.19.04.39.17.54.06.04 4.06 4.08 5.12 8.16z"/><path class="cls-4" d="M670.44 8.64v3.1h6.98v-3.1a2.107 2.107 0 001.86-2.08 2.09 2.09 0 00-2.63-2.02c-.5-1.04-1.55-1.7-2.72-1.7s-2.21.66-2.72 1.7c-.17-.05-.36-.07-.54-.07-1.16 0-2.09.94-2.09 2.09 0 1.08.81 1.97 1.86 2.08z"/><path d="M677.41 11.94c-.35 0-.63-.28-.63-.63v-3.1c0-.32.24-.59.56-.62.74-.08 1.3-.71 1.3-1.46a1.464 1.464 0 00-1.85-1.41.616.616 0 01-.72-.33c-.4-.83-1.23-1.34-2.15-1.34s-1.75.52-2.15 1.34c-.13.27-.44.41-.73.33a1.47 1.47 0 00-1.85 1.41c0 .75.56 1.38 1.3 1.46.32.03.56.3.56.62v3.1c0 .35-.28.63-.63.63s-.63-.28-.63-.63v-2.6a2.719 2.719 0 01.86-5.3h.21c.67-1.02 1.8-1.64 3.05-1.64s2.38.62 3.05 1.64h.21a2.719 2.719 0 01.86 5.3v2.6c0 .35-.28.63-.63.63z"/><path d="M672.8 12.1c-.35 0-.63-.28-.63-.63v-.78c0-.35.28-.63.63-.63s.63.28.63.63v.78c0 .35-.28.63-.63.63zm2.31 0c-.35 0-.63-.28-.63-.63v-.78c0-.35.28-.63.63-.63s.63.28.63.63v.78c0 .35-.28.63-.63.63z"/><path class="cls-4" d="M670.23 30.63c2.47 0 4.47-2 4.47-4.47s-2-4.47-4.47-4.47-4.47 2-4.47 4.47 2 4.47 4.47 4.47z"/><path class="cls-4" d="M677.49 30.63c2.47 0 4.47-2 4.47-4.47s-2-4.47-4.47-4.47-4.47 2-4.47 4.47 2 4.47 4.47 4.47z"/><path class="cls-63" d="M677.49 26.37c1.29 0 2.34-1.05 2.34-2.34s-1.05-2.34-2.34-2.34-2.34 1.05-2.34 2.34 1.05 2.34 2.34 2.34zm-7.26 0c1.29 0 2.34-1.05 2.34-2.34s-1.05-2.34-2.34-2.34-2.34 1.05-2.34 2.34 1.05 2.34 2.34 2.34z"/><path d="M674.09 31.63a.63.63 0 01-.29-1.19l2.41-1.26a.63.63 0 11.58 1.12l-2.41 1.26c-.09.05-.19.07-.29.07z"/></g><path class="cls-6" d="M734.32 49.27h-6.16V39c0-.88.71-1.59 1.59-1.59s1.59.71 1.59 1.59v7.08h2.97c.88 0 1.59.71 1.59 1.59s-.71 1.59-1.59 1.59zm-9.12 0h-6.16V39c0-.88.71-1.59 1.59-1.59s1.59.71 1.59 1.59v7.08h2.97c.88 0 1.59.71 1.59 1.59s-.71 1.59-1.59 1.59zm16.07-19.82h-3.49v7.53h3.49v-7.53z"/><path class="cls-34" d="M727.19 25.75h-5.26a9.748 9.748 0 01-11.34.35v14.5c0 .82.68 1.5 1.5 1.5h25.33c.82 0 1.5-.68 1.5-1.5V25.85a9.808 9.808 0 01-5.8 1.91 9.74 9.74 0 01-5.93-2z"/><path class="cls-6" d="M733.1 9.4c-4.72 0-8.55 3.83-8.55 8.54s3.82 8.55 8.54 8.55 8.55-3.83 8.55-8.55c0-4.72-3.82-8.54-8.53-8.54z"/><path class="cls-4" d="M733.1 21.63c-2.04 0-3.69-1.65-3.69-3.69s1.65-3.68 3.69-3.68 3.69 1.65 3.69 3.68c-.01 2.04-1.66 3.69-3.69 3.69z"/><path class="cls-6" d="M716 9.4c-4.72 0-8.54 3.83-8.54 8.54s3.82 8.55 8.54 8.55 8.54-3.83 8.54-8.55S720.72 9.4 716 9.4z"/><path class="cls-4" d="M733.09 22.41c2.47 0 4.47-2 4.47-4.47s-2-4.47-4.47-4.47-4.47 2-4.47 4.47 2 4.47 4.47 4.47z"/><path class="cls-63" d="M734.95 20.28c1.29 0 2.34-1.05 2.34-2.34s-1.05-2.33-2.34-2.33-2.34 1.05-2.34 2.33 1.05 2.34 2.34 2.34z"/><path class="cls-4" d="M716 22.41c2.47 0 4.47-2 4.47-4.47s-2-4.47-4.47-4.47-4.47 2-4.47 4.47 2 4.47 4.47 4.47z"/><path class="cls-63" d="M717.86 20.28c1.29 0 2.34-1.05 2.34-2.34s-1.05-2.33-2.34-2.33-2.34 1.05-2.34 2.33 1.05 2.34 2.34 2.34z"/><path class="cls-6" d="M736.78 31.49h-24.09v2.65h24.09v-2.65zm-5.63 3.68h-18.46v2.65h18.46v-2.65z"/><path class="cls-4" d="M712.51 7.35v3.1h6.98v-3.1a2.107 2.107 0 001.86-2.08 2.09 2.09 0 00-2.63-2.02c-.5-1.04-1.55-1.7-2.72-1.7s-2.21.66-2.72 1.7c-.17-.05-.36-.07-.54-.07-1.16 0-2.09.94-2.09 2.09 0 1.08.81 1.97 1.86 2.08z"/><path d="M719.49 10.62c-.33 0-.6-.27-.6-.6v-3.1c0-.3.23-.56.53-.59.76-.08 1.33-.72 1.33-1.49 0-.82-.67-1.49-1.5-1.49-.13 0-.26.02-.39.05a.6.6 0 01-.69-.32c-.41-.84-1.24-1.36-2.18-1.36s-1.77.52-2.18 1.36c-.12.26-.41.39-.69.32a1.502 1.502 0 00-1.89 1.44c0 .76.57 1.4 1.33 1.49.3.03.53.29.53.59v3.1c0 .33-.27.6-.6.6s-.6-.27-.6-.6V7.4a2.684 2.684 0 01-1.86-2.56c0-1.48 1.21-2.69 2.69-2.69h.23c.66-1.02 1.79-1.64 3.03-1.64s2.37.62 3.03 1.64h.23c1.48 0 2.69 1.21 2.69 2.69 0 1.19-.77 2.21-1.86 2.56v2.62c0 .33-.27.6-.6.6z"/><path d="M714.87 10.78c-.33 0-.6-.27-.6-.6V9.4c0-.33.27-.6.6-.6s.6.27.6.6v.78c0 .33-.27.6-.6.6zm2.32 0c-.33 0-.6-.27-.6-.6V9.4c0-.33.27-.6.6-.6s.6.27.6.6v.78c0 .33-.27.6-.6.6z"/><path class="cls-34" d="M746.13 25.47l-5.6 3.24v9l5.6 3.24c1 .58 2.25-.14 2.25-1.3V26.78c.01-1.16-1.25-1.87-2.25-1.3z"/><path d="M702.63 16.62l-.03 3.95c0 1.89 1.37 3.46 3.19 3.75l-.04 8.56h1.14l.04-8.56a3.779 3.779 0 003.22-3.72l.03-3.95-7.55-.04z"/><path d="M705.39 31.65l-.04 7.5c0 .52.41.94.93.94s.94-.41.94-.93l.04-7.5h-1.87z"/><path class="cls-6" d="M706.36 36.84c-1.75 0-2.99-.87-3.04-2.17-.03-.83.47-1.58 1.33-2 .49-.24 1.09-.38 1.74-.41 1.86-.07 3.2.82 3.25 2.17.03.83-.47 1.58-1.33 2-.49.24-1.1.38-1.74.41h-.21zm.11-2.54c-.01.08-.02.17-.02.25 0 .09.02.17.03.25.01-.08.02-.17.02-.25 0-.09-.02-.17-.03-.25z"/><path class="cls-6" d="M706.43 38.73c-1.75 0-2.99-.87-3.04-2.17-.03-.83.47-1.58 1.33-2 .49-.24 1.1-.38 1.74-.41 1.06-.04 2.01.24 2.59.78.4.37.64.86.66 1.39.03.83-.47 1.58-1.33 2-.49.24-1.1.38-1.74.41h-.21zm.11-2.54c-.01.08-.02.16-.02.25s.02.17.04.25c.01-.08.02-.16.02-.25s-.02-.17-.04-.25z"/><g clip-path="url(#clippath-7)"><path class="cls-47" d="M772.35 49.95h-5.37c-.93 0-1.68-.75-1.68-1.68s.75-1.68 1.68-1.68h3.7v-7.4c0-.93.75-1.68 1.68-1.68s1.68.75 1.68 1.68v9.08c0 .93-.75 1.68-1.68 1.68zm10.71 0h-5.37c-.93 0-1.68-.75-1.68-1.68s.75-1.68 1.68-1.68h3.7v-7.4c0-.93.75-1.68 1.68-1.68s1.68.75 1.68 1.68v9.08c0 .93-.75 1.68-1.68 1.68z"/><path class="cls-7" d="M772.86 34.77c-1.73 0-3.13-1.4-3.13-3.13s1.4-3.13 3.13-3.13 3.13 1.4 3.13 3.13-1.4 3.13-3.13 3.13z"/><path class="cls-2" d="M758.21 13.34v23.4c0 .11 0 .21.02.32.01.11.03.21.05.32.02.1.05.21.08.31s.07.2.11.3c.04.1.08.19.13.29.05.09.1.18.16.27.06.09.12.17.19.26l.21.24c.08.08.15.15.24.21.08.07.17.13.26.19a3.818 3.818 0 00.56.3c.1.04.2.08.3.1.1.03.21.06.31.08.1.02.21.03.31.05.1 0 .21.01.32.01h28.27c.1 0 .21 0 .32-.01.1 0 .21-.03.31-.05.1-.02.21-.05.31-.08s.2-.07.3-.11c.1-.04.19-.08.29-.13.09-.05.18-.11.27-.16.09-.06.18-.12.26-.19l.24-.21c.08-.08.15-.16.22-.23.07-.08.13-.17.19-.26s.11-.18.17-.28c.05-.09.1-.19.13-.29.04-.1.08-.2.11-.3.03-.1.06-.21.08-.31.02-.11.04-.21.05-.32 0-.11.01-.21.02-.32v-23.4c0-.1 0-.21-.02-.32a3.33 3.33 0 00-.13-.62c-.03-.1-.07-.2-.11-.3-.04-.1-.08-.2-.13-.29-.05-.09-.11-.18-.17-.27-.06-.09-.12-.18-.19-.26-.07-.08-.14-.16-.22-.24-.08-.07-.16-.15-.24-.21-.08-.07-.17-.13-.26-.19s-.18-.11-.27-.16c-.1-.05-.19-.09-.29-.13-.1-.04-.2-.08-.3-.1-.1-.03-.21-.06-.31-.08-.1-.02-.21-.03-.31-.05-.1 0-.21-.01-.32-.01h-28.27c-.1 0-.21 0-.32.01a3.33 3.33 0 00-.62.13c-.1.03-.2.07-.3.11-.1.04-.2.08-.29.13-.09.05-.18.1-.27.16-.09.06-.17.12-.26.19l-.24.21c-.08.08-.15.16-.21.24-.07.08-.13.16-.19.26-.06.09-.11.18-.16.27-.05.09-.1.19-.13.29-.04.1-.08.2-.11.3-.03.1-.06.21-.08.31-.02.1-.03.21-.05.31 0 .11-.02.21-.02.32zm2.85 6.59a4.732 4.732 0 010-6.68 4.732 4.732 0 017.18.59 4.732 4.732 0 017.18-.59 4.703 4.703 0 011.37 3.67h12.51s.08 0 .12.02c.04 0 .08.02.11.03.04.02.08.04.11.06.03.03.06.05.09.08s.05.06.08.09c.02.03.04.07.05.11.02.03.03.08.04.11 0 .04.01.08.01.12V36.4c0 .04-.02.08-.04.12-.02.04-.03.07-.05.11-.03.04-.05.07-.08.1s-.06.05-.09.08a.3.3 0 01-.11.06c-.04.02-.08.03-.12.04-.04 0-.08.01-.12 0h-27.52c-.04 0-.08-.02-.12-.03-.04-.02-.08-.03-.11-.06a.7.7 0 01-.1-.08c-.03-.03-.05-.06-.08-.1-.02-.03-.04-.07-.06-.11-.01-.04-.03-.08-.03-.12V20.15c-.08-.07-.16-.14-.23-.21zm20.76-5.77c0-.08.01-.16.05-.24.03-.08.08-.14.14-.2.03-.03.06-.05.1-.08.04-.02.07-.04.11-.05.04-.01.08-.03.12-.03h.12c.04 0 .08 0 .12.01.04 0 .08.02.11.04.04.01.07.03.1.05a.7.7 0 01.1.08c.06.05.1.12.13.19.03.08.05.16.04.24 0 .08-.02.16-.05.24-.03.08-.08.14-.14.2-.06.06-.12.1-.2.13-.08.03-.16.05-.24.05-.08 0-.16-.02-.24-.05a.596.596 0 01-.34-.34.644.644 0 01-.05-.24zm2.87.12s-.01-.08-.01-.12c0-.08.01-.16.05-.24.03-.08.08-.14.13-.19.03-.03.06-.05.1-.08a.37.37 0 01.11-.05c.04-.02.08-.03.12-.03.04 0 .08-.01.12-.01s.08 0 .12.01c.04 0 .08.02.12.03.04.02.08.03.11.05.03.03.07.05.1.08.06.05.1.12.13.2.03.08.05.15.05.23 0 .08-.02.16-.05.23-.03.07-.07.14-.12.2-.06.06-.13.11-.21.14s-.16.05-.25.05c-.04 0-.08 0-.12-.02-.04 0-.08-.02-.12-.03-.04-.02-.07-.04-.1-.06-.03-.03-.07-.05-.09-.08-.03-.03-.06-.06-.08-.09-.02-.03-.04-.07-.06-.1-.02-.04-.03-.08-.04-.12zm2.87-.01v-.12c0-.04 0-.08.02-.12 0-.04.02-.08.04-.11.02-.04.04-.07.06-.1.03-.03.05-.06.08-.09s.06-.05.1-.08a.37.37 0 01.11-.05.26.26 0 01.11-.03h.12c.04 0 .08 0 .12.02.04 0 .08.02.12.03.04.02.07.04.1.06.03.03.06.05.09.08.05.05.1.12.12.19.03.07.04.15.04.22 0 .08-.01.16-.05.24-.03.08-.08.14-.13.2-.03.03-.06.05-.1.08a.37.37 0 01-.11.05c-.04.02-.08.03-.12.03-.04 0-.08.01-.13 0-.04 0-.08 0-.12-.01-.04 0-.08-.02-.12-.04-.04-.02-.08-.04-.11-.06-.04-.03-.07-.05-.1-.08a.36.36 0 01-.07-.1c-.02-.04-.04-.07-.05-.11-.01-.04-.02-.08-.03-.11z"/><path class="cls-4" d="M761.06 13.25a4.732 4.732 0 000 6.68c.08.07.15.14.23.21v-2.6s0-.08.01-.12c0-.04.02-.08.04-.12a.37.37 0 01.05-.11c.03-.03.05-.06.08-.09s.06-.05.09-.08a.37.37 0 01.11-.05c.04-.02.08-.03.12-.04.04 0 .08-.01.12-.01h1.94a2.439 2.439 0 013.51-.69c.07-.84.36-1.67.87-2.39a4.732 4.732 0 00-7.18-.59z"/><path class="cls-4" d="M761.3 17.42s-.01.08-.01.12v2.6a4.716 4.716 0 006.4-.16c-.96.97-2.53.97-3.49 0-.83-.83-.95-2.11-.34-3.06h-1.94s-.08 0-.12.01c-.04 0-.08.02-.12.04a.37.37 0 00-.11.05c-.03.03-.06.05-.09.08s-.05.06-.08.09a.37.37 0 00-.05.11c-.02.04-.03.08-.04.12z"/><path class="cls-47" d="M761.28 20.14v16.14s0 .08.01.12c0 .04.02.08.03.12a.7.7 0 00.14.21c.03.03.06.05.1.08.03.03.07.04.11.06.04.02.08.03.12.03.04 0 .08.01.13 0h27.51c.04 0 .08-.02.12-.04a.3.3 0 00.11-.06c.03-.02.06-.05.09-.08s.05-.06.08-.1a.37.37 0 00.05-.11c.02-.04.03-.08.04-.12V17.53s0-.08-.01-.12a.21.21 0 00-.04-.11.37.37 0 00-.05-.11c-.03-.03-.05-.07-.08-.09-.03-.03-.06-.05-.09-.08-.03-.02-.07-.04-.11-.06-.03-.01-.08-.03-.11-.03-.04 0-.08-.01-.12-.02H776.8a4.722 4.722 0 01-1.32 2.96c-.01.02-.03.03-.05.05a4.732 4.732 0 01-7.18-.59c-.15.21-.31.4-.5.59l-.05.05a4.706 4.706 0 01-6.4.16z"/><path class="cls-2" d="M775.86 19.95h10.22c.59 0 1.07.48 1.07 1.07v10.22c0 .59-.48 1.07-1.07 1.07h-10.22c-.59 0-1.07-.48-1.07-1.07V21.02c0-.59.48-1.07 1.07-1.07z"/><path class="cls-4" d="M767.37 16.22c.11.08.22.16.32.26.13.13.25.28.34.43h1.07a4.66 4.66 0 00-.87-3.08c-.51.72-.8 1.55-.87 2.39zm.32 3.76l.05-.05c.18-.18.35-.38.5-.59-.02-.03-.04-.05-.05-.08-.12.26-.28.5-.5.71z"/><path class="cls-4" d="M769.11 16.92h-1.07c.45.71.5 1.6.15 2.34.02.03.04.05.05.08.52-.73.81-1.57.87-2.42zm-.37-3.67c-.18.18-.35.38-.5.59.66.91.94 2.01.87 3.08h2.44a2.457 2.457 0 013.9-.55c.17.16.31.35.41.55h.93c.09-1.32-.36-2.66-1.37-3.67a4.732 4.732 0 00-6.68 0zm7.94-8.45c0 .08-.01.15-.01.22 0 1.14.87 2.08 1.97 2.2v-.46a2.222 2.222 0 01-1.96-1.97z"/><path class="cls-4" d="M781.07 10.09h4.95V6.76c1.03-.11 1.84-.94 1.95-1.97a2.206 2.206 0 00-2.2-1.99c-.19 0-.38.03-.57.08-.54-1.1-1.64-1.8-2.88-1.8s-2.34.7-2.87 1.8c-.18-.05-.38-.08-.57-.08-1.14 0-2.09.87-2.2 1.99.11 1.03.93 1.86 1.96 1.97v3.33h2.43zm-5.62 9.77l.02.02a4.67 4.67 0 001.32-2.96h-.93c.52.94.39 2.15-.41 2.94z"/><path class="cls-4" d="M786.01 6.76v.46a2.22 2.22 0 001.97-2.2c0-.08 0-.15-.01-.22a2.222 2.222 0 01-1.95 1.97zm-13.93 14.55c-2.61 0-4.72-2.12-4.72-4.72s2.12-4.72 4.72-4.72 4.72 2.12 4.72 4.72-2.12 4.72-4.72 4.72z"/><path class="cls-4" d="M764.4 21.31c-2.61 0-4.72-2.12-4.72-4.72s2.12-4.72 4.72-4.72 4.72 2.12 4.72 4.72-2.12 4.72-4.72 4.72z"/><path d="M763.53 19.06c-1.36 0-2.47-1.11-2.47-2.47s1.11-2.47 2.47-2.47 2.47 1.11 2.47 2.47-1.11 2.47-2.47 2.47zm7.68 0c-1.36 0-2.47-1.11-2.47-2.47s1.11-2.47 2.47-2.47 2.47 1.11 2.47 2.47-1.11 2.47-2.47 2.47zm14.8-8.38c-.35 0-.63-.28-.63-.63V6.77c0-.32.24-.59.56-.63.73-.08 1.32-.67 1.4-1.41v-.16a1.583 1.583 0 00-1.98-1.53c-.29.08-.6-.06-.73-.33-.44-.89-1.32-1.44-2.31-1.44s-1.87.55-2.31 1.44c-.13.27-.44.41-.73.33-.13-.04-.27-.05-.41-.05-.87 0-1.58.71-1.58 1.58v.17c.08.73.67 1.32 1.4 1.4.32.03.56.3.56.63v3.28c0 .35-.28.63-.63.63s-.63-.28-.63-.63V7.27a2.854 2.854 0 01-1.95-2.4c-.01-.1-.02-.2-.02-.3a2.844 2.844 0 013.08-2.83c.7-1.08 1.89-1.73 3.2-1.73s2.5.65 3.2 1.73c.08 0 .16-.01.24-.01 1.57 0 2.84 1.28 2.84 2.84 0 .1 0 .2-.02.3-.12 1.12-.9 2.06-1.95 2.4v2.78c0 .35-.28.63-.63.63z"/><path d="M783.52 10.85c-.35 0-.63-.28-.63-.63V9.4c0-.35.28-.63.63-.63s.63.28.63.63v.82c0 .35-.28.63-.63.63zm-2.45 0c-.35 0-.63-.28-.63-.63V9.4c0-.35.28-.63.63-.63s.63.28.63.63v.82c0 .35-.28.63-.63.63z"/><path class="cls-63" d="M766.12 28.19h4.98c1.13 0 2.05.92 2.05 2.05s-.92 2.05-2.05 2.05h-4.98c-1.13 0-2.05-.92-2.05-2.05s.92-2.05 2.05-2.05z"/><g mask="url(#mask-21)"><path class="cls-7" d="M764.03 33.66a4.58 4.58 0 109.16 0c0-2.53-2.05-2.84-4.58-2.84s-4.58.31-4.58 2.84z"/></g><g mask="url(#mask-22)"><path d="M784.62 37.46l-5.35-8.4a.366.366 0 010-.39c.08-.12.23-.17.36-.14l9.52 2.11c.13.03.23.13.26.26s-.01.27-.12.35l-1.75 1.44 2.4 2.13c.1.09.14.22.11.34-.01.05-.04.1-.07.15l-1.49 1.83c-.06.07-.15.12-.24.13-.1 0-.19-.02-.26-.09l-2.26-2.01-.48 2.17a.34.34 0 01-.28.27.35.35 0 01-.36-.16z"/></g></g><g clip-path="url(#clippath-8)"><path class="cls-5" d="M845.63 13.3c.15 4.5-3.37 4.5-3.21 0-4.5.15-4.5-3.37 0-3.21-.15-4.5 3.37-4.5 3.21 0 4.5-.15 4.5 3.37 0 3.21z"/><path class="cls-4" d="M816.36 12.05v3.42l7.68.02v-3.42c1.16-.13 2.06-1.1 2.07-2.29 0-1.27-1.03-2.31-2.3-2.31-.2 0-.4.03-.6.08-.56-1.15-1.7-1.88-2.99-1.88s-2.44.72-3 1.87a2.309 2.309 0 10-.87 4.52z"/><path class="cls-59" d="M812.29 15.44h27.22c1.35 0 2.34 1.23 2 2.49l-3.66 13.73c-.24.88-1.06 1.5-2 1.5h-20.4c-.97 0-1.81-.65-2.02-1.56l-3.16-13.73c-.28-1.25.7-2.43 2.02-2.43zm9.6 31.51c0 .09 0 .18-.01.28 0 .09-.02.18-.04.28-.02.09-.04.18-.07.27-.03.09-.06.17-.09.26-.04.09-.07.17-.12.25-.04.08-.09.16-.14.24a3.257 3.257 0 01-.36.43c-.07.07-.13.13-.21.19-.07.06-.14.11-.22.17-.08.05-.16.1-.24.14-.08.04-.17.08-.25.12-.08.03-.17.07-.26.09-.09.03-.18.05-.27.07-.09.02-.18.03-.27.04-.09 0-.18.01-.28.01s-.18 0-.28-.01-.18-.02-.27-.04a2.68 2.68 0 01-.27-.07 7.71 7.71 0 01-.26-.09c-.08-.04-.17-.07-.25-.12-.08-.04-.16-.09-.24-.14-.07-.05-.15-.1-.22-.17-.07-.06-.14-.12-.21-.19-.07-.07-.13-.14-.19-.21-.06-.07-.11-.14-.17-.22-.05-.08-.1-.16-.14-.24-.04-.08-.08-.17-.12-.25-.04-.08-.07-.17-.09-.26-.03-.09-.05-.18-.07-.27-.02-.09-.03-.18-.04-.28 0-.09-.01-.18-.01-.28s0-.18.01-.28a2.696 2.696 0 01.11-.55c.03-.09.06-.18.09-.26.04-.08.07-.17.12-.25.04-.08.09-.16.14-.24a3.257 3.257 0 01.36-.43c.07-.07.13-.13.21-.19.07-.06.14-.11.22-.17.08-.05.16-.1.24-.14s.17-.08.25-.12c.08-.04.17-.07.26-.09.09-.03.18-.05.27-.07.09-.02.18-.03.27-.04s.18-.01.28-.01.18 0 .28.01c.09 0 .18.02.27.04.09.02.18.04.27.07.09.03.18.06.26.09.09.04.17.07.25.12s.16.09.24.14c.07.05.15.1.22.17.07.06.14.12.21.19.07.07.13.14.19.21.06.07.11.14.17.22.05.08.1.16.14.24.04.08.08.17.12.25s.07.17.09.26a2.68 2.68 0 01.11.55c.01.1.01.18.01.28zm13.15 0c0 .09 0 .18-.01.28 0 .09-.02.18-.04.28-.02.09-.04.18-.07.27-.03.09-.06.17-.09.26-.04.09-.07.17-.12.25-.04.08-.09.16-.14.24a3.257 3.257 0 01-.36.43c-.07.07-.13.13-.21.19-.07.06-.14.11-.22.17-.08.05-.16.1-.24.14-.08.04-.17.08-.25.12-.08.03-.17.07-.26.09-.09.03-.18.05-.27.07-.09.02-.18.03-.27.04-.09 0-.18.01-.28.01s-.18 0-.28-.01c-.09 0-.18-.02-.28-.04a2.68 2.68 0 01-.27-.07 7.71 7.71 0 01-.26-.09c-.08-.04-.17-.07-.25-.12-.08-.04-.16-.09-.24-.14-.07-.05-.15-.1-.22-.17-.07-.06-.14-.12-.21-.19-.07-.07-.13-.14-.19-.21-.06-.07-.11-.14-.17-.22-.05-.08-.1-.16-.14-.24-.04-.08-.08-.17-.12-.25-.04-.08-.07-.17-.09-.26-.03-.09-.05-.18-.07-.27-.02-.09-.03-.18-.04-.28 0-.09-.01-.18-.01-.28s0-.18.01-.28c0-.09.02-.18.04-.28.02-.09.04-.18.07-.27s.06-.18.09-.26c.04-.08.07-.17.12-.25.04-.08.09-.16.14-.24a3.257 3.257 0 01.36-.43c.07-.07.13-.13.21-.19.07-.06.14-.11.22-.17.08-.05.16-.1.24-.14.08-.04.17-.08.25-.12.08-.04.17-.07.26-.09.09-.03.18-.05.27-.07.09-.02.18-.03.28-.04.09 0 .18-.01.28-.01s.18 0 .28.01c.09 0 .18.02.27.04.09.02.18.04.27.07.09.03.18.06.26.09.09.04.17.07.25.12.08.04.16.09.24.14.07.05.15.1.22.17.07.06.14.12.21.19.07.07.13.14.19.21.06.07.11.14.17.22.05.08.1.16.14.24.04.08.08.17.12.25.03.08.07.17.09.26a2.68 2.68 0 01.11.55c.01.1.01.18.01.28z"/><path class="cls-5" d="M837.6 42.16h-20.89c-3.29 0-5.97-2.41-5.97-5.37s2.68-5.37 5.97-5.37h20.89c.97 0 1.75.78 1.75 1.75s-.78 1.75-1.75 1.75h-20.89c-1.34 0-2.47.86-2.47 1.87s1.13 1.87 2.47 1.87h20.89c.97 0 1.75.78 1.75 1.75s-.78 1.75-1.75 1.75z"/><path class="cls-5" d="M814.75 35.32c-.81 0-1.53-.56-1.71-1.38l-4.83-22.29h-5.85c-.97 0-1.75-.78-1.75-1.75s.78-1.75 1.75-1.75h7.26c.82 0 1.54.57 1.71 1.38l5.13 23.67a1.741 1.741 0 01-1.71 2.12z"/><path class="cls-63" d="M837.42 29.01l-7.08-3.39v3.39h7.08zm-9.98 0v-3.35l-7.27 3.35h7.27z"/><path class="cls-4" d="M824.8 27.1c2.72 0 4.92-2.2 4.92-4.92s-2.2-4.92-4.92-4.92-4.92 2.2-4.92 4.92 2.2 4.92 4.92 4.92z"/><path class="cls-4" d="M832.8 27.1c2.72 0 4.92-2.2 4.92-4.92s-2.2-4.92-4.92-4.92-4.92 2.2-4.92 4.92 2.2 4.92 4.92 4.92z"/><path class="cls-63" d="M834.78 26.08a2.57 2.57 0 100-5.14 2.57 2.57 0 100 5.14zm-8.15-.03a2.57 2.57 0 100-5.14 2.57 2.57 0 100 5.14z"/><path d="M824.05 15.67a.65.65 0 01-.65-.66v-3.42c0-.33.26-.61.59-.65.84-.09 1.47-.8 1.47-1.64 0-.91-.74-1.65-1.65-1.65-.14 0-.28.02-.43.06-.3.08-.62-.07-.76-.35-.45-.93-1.37-1.51-2.4-1.51s-1.96.57-2.41 1.5c-.14.28-.46.43-.76.35-.14-.04-.28-.06-.42-.06-.91 0-1.65.74-1.65 1.65 0 .84.63 1.55 1.46 1.65.33.04.58.32.58.65v3.42c0 .36-.3.65-.67.65a.65.65 0 01-.65-.66v-2.9a2.977 2.977 0 01-2.04-2.82 2.968 2.968 0 013.22-2.95c.73-1.12 1.97-1.8 3.34-1.8s2.6.68 3.33 1.81c.08 0 .17-.01.25-.01 1.63 0 2.96 1.33 2.96 2.97 0 1.31-.86 2.43-2.06 2.82v2.9c0 .36-.3.65-.66.65z"/><path d="M818.95 15.83a.65.65 0 01-.65-.66v-.86c0-.36.3-.64.66-.65.36 0 .66.3.65.66v.86c0 .36-.3.65-.66.65zm2.56.01a.66.66 0 01-.66-.66v-.86c0-.36.29-.66.66-.66s.66.29.66.66v.86c0 .36-.29.66-.66.66z"/></g><g clip-path="url(#clippath-9)"><path class="cls-1" d="M898.96 43.68V11.92c0-1.38-1.12-2.51-2.51-2.51h-20.06c-1.38 0-2.51 1.12-2.51 2.51v31.77c0 1.38 1.12 2.51 2.51 2.51h20.06c1.38 0 2.51-1.13 2.51-2.51z"/><path class="cls-45" d="M895.61 43.68h-18.39c-.46 0-.84-.38-.84-.84V12.75c0-.46.38-.84.84-.84h18.39c.46 0 .84.38.84.84v30.09c0 .46-.38.84-.84.84z"/><path class="cls-4" d="M894.78 30.94h-16.43v1.78h16.43v-1.78zm0 3.28h-16.43V36h16.43v-1.78zm0 3.28h-16.43v1.78h16.43V37.5zM880.75 6.34v3.08h6.91V6.34c1.03-.11 1.85-1 1.85-2.06a2.074 2.074 0 00-2.6-2c-.5-1.03-1.53-1.68-2.69-1.68s-2.19.65-2.69 1.68a2.074 2.074 0 00-2.6 2c0 1.07.81 1.95 1.84 2.06z"/><path class="cls-45" d="M862.59 49.76h-4.52c-.74 0-1.33-.6-1.33-1.33V38.35a1.33 1.33 0 112.66 0v8.75h3.19a1.33 1.33 0 110 2.66zm9.52 0h-4.53c-.74 0-1.33-.6-1.33-1.33V38.35a1.33 1.33 0 112.66 0v8.75h3.19a1.33 1.33 0 110 2.66z"/><path class="cls-1" d="M882.79 17.64h-29.37c-1.28 0-2.32 1.04-2.32 2.32v18.55c0 1.28 1.04 2.32 2.32 2.32h29.36c1.28 0 2.32-1.04 2.32-2.32V19.96c0-1.28-1.04-2.32-2.32-2.32z"/><path d="M887.66 9.91c-.28 0-.5-.22-.5-.5V6.33c0-.25.19-.47.45-.5a1.57 1.57 0 00-.17-3.13c-.14 0-.27.02-.41.05a.511.511 0 01-.58-.26c-.42-.86-1.28-1.4-2.24-1.4s-1.82.54-2.24 1.4c-.1.22-.35.33-.58.26-.13-.04-.27-.05-.4-.05-.87 0-1.57.71-1.57 1.57 0 .8.6 1.48 1.4 1.56.25.03.45.24.45.5v3.08c0 .28-.22.5-.5.5s-.5-.22-.5-.5V6.74a2.568 2.568 0 01-1.84-2.47A2.57 2.57 0 01881 1.7c.09 0 .18 0 .27.01C881.9.7 883 .08 884.22.08s2.32.61 2.95 1.63c.09 0 .18-.01.27-.01a2.57 2.57 0 012.57 2.57c0 1.16-.77 2.15-1.85 2.47v2.67c0 .28-.22.5-.5.5z"/><path d="M883.09 10.07c-.28 0-.5-.22-.5-.5V8.8c0-.28.22-.5.5-.5s.5.22.5.5v.77c0 .28-.22.5-.5.5zm2.29 0c-.28 0-.5-.22-.5-.5V8.8c0-.28.22-.5.5-.5s.5.22.5.5v.77c0 .28-.22.5-.5.5z"/><path class="cls-45" d="M882.79 20.74v17c0 .43-.35.77-.77.77H854.2c-.42 0-.77-.35-.77-.77v-17c0-.42.35-.77.77-.77h27.82c.42 0 .77.35.77.77z"/><path class="cls-4" d="M882.79 31.84v5.89c0 .42-.35.77-.77.77H854.2c-.42 0-.77-.35-.77-.77v-3.54l5.68-4.87a.76.76 0 011 0l4.14 3.45 8.78-7.32a.78.78 0 01.95-.03l8.82 6.42zm5.65-14.99c0 2.44-1.98 4.42-4.42 4.42a4.421 4.421 0 01-3.44-7.2l7.82 2.09c.04.22.06.46.06.69z"/><g mask="url(#mask-23)"><path class="cls-63" d="M886.12 18.55c1.28 0 2.31-1.04 2.31-2.31s-1.04-2.31-2.31-2.31-2.31 1.04-2.31 2.31 1.04 2.31 2.31 2.31z"/></g><path class="cls-4" d="M888.44 16.85c0 2.44 1.98 4.42 4.43 4.42s4.42-1.98 4.42-4.42c0-1.05-.37-2.02-.98-2.78l-7.82 2.09c-.04.22-.06.46-.06.69z"/><g mask="url(#mask-24)"><path class="cls-63" d="M890.75 18.55c1.28 0 2.31-1.04 2.31-2.31s-1.04-2.31-2.31-2.31-2.31 1.04-2.31 2.31 1.04 2.31 2.31 2.31z"/></g><path d="M889.22 26.34a4.923 4.923 0 01-4.92-5.26c.02-.28.26-.48.53-.46.28.02.48.26.46.53-.06.89.19 1.78.7 2.51a3.925 3.925 0 005.46.96c.23-.16.54-.1.7.12.16.23.1.54-.12.7-.86.6-1.84.89-2.82.89z"/><path class="cls-1" d="M863.83 28.17a3.06 3.06 0 100-6.12 3.06 3.06 0 000 6.12z"/></g></svg>