<svg width="136" height="160" fill="none" xmlns="http://www.w3.org/2000/svg"><g clip-path="url(#clip0_85185_169)"><path d="M120.124 154.382a5.627 5.627 0 01-5.62 5.627h-64.66a11.235 11.235 0 001.501-5.627c0-2.049-.545-3.971-1.5-5.628h64.668a5.628 5.628 0 015.62 5.628" fill="#395EF7"/><path d="M40.142 160H23.454a5.612 5.612 0 01-5.611-5.618c0-3.105 2.519-5.628 5.61-5.628h16.689a5.614 5.614 0 015.61 5.628 5.612 5.612 0 01-5.61 5.618zm50.235-22.1v-6.21h-2.064v6.21h-2.401v-6.21h-2.065v6.21h-2.4v-6.21h-.9v-1.822h.9v-.191c0-1.602.836-2.486 3.092-2.486h.318v1.812h-.173c-.71 0-.837.328-.837.865h2.065v-.163c0-1.667.855-2.523 3.12-2.523h.3v1.812h-.183c-.709 0-.836.328-.836.865h4.465v8.032h-2.4v.009zm0-10.718h2.4v1.812h-2.4v-1.812zm9.485 5.783c-.346-.756-.973-1.13-1.791-1.13-1.1 0-1.856.911-1.856 2.04s.8 2.04 1.91 2.04c.81 0 1.373-.373 1.737-1.075h2.446c-.482 2.013-2.2 3.315-4.247 3.315-2.373 0-4.247-1.931-4.247-4.298 0-2.368 1.892-4.271 4.211-4.271 2.11 0 3.829 1.33 4.283 3.369H99.88l-.018.01zm5.375 1.648c.127.91.891 1.52 1.882 1.52.655 0 1.073-.245 1.464-.755h2.456c-.764 1.748-2.228 2.777-3.92 2.777a4.249 4.249 0 01-4.247-4.253c0-2.385 1.846-4.316 4.211-4.316 2.364 0 4.237 1.894 4.237 4.389 0 .228-.009.419-.054.638h-6.029zm3.674-1.621c-.191-.82-.91-1.375-1.837-1.375-.874 0-1.619.519-1.81 1.375h3.647zm3.401 4.908v-8.031h2.255v.855h.028c.418-.855 1.082-1.129 2.009-1.129v2.422c-1.436.019-1.891.547-1.891 1.467v4.425h-2.401v-.009z" fill="#37B5FE"/><path d="M74.371 138.528c-3.237 0-5.865-2.64-5.865-5.873s2.628-5.873 5.865-5.873a5.872 5.872 0 015.866 5.873c0 3.242-2.637 5.873-5.865 5.873zm0-7.248c-.763 0-1.373.619-1.373 1.375s.619 1.375 1.373 1.375c.755 0 1.374-.619 1.374-1.375s-.619-1.375-1.374-1.375z" fill="#FFCB24"/><path d="M32.43 126.718h2.446v1.857H32.43v-1.857zm0 2.723h2.446v8.186H32.43v-8.186zm10.076 8.186v-.884h-.027c-.455.756-1.283 1.148-2.447 1.148-2.473 0-4.092-1.903-4.092-4.38s1.664-4.353 4.056-4.353c.946 0 1.71.283 2.4.975v-3.424h2.447v10.918h-2.338zm.018-4.125c0-1.138-.873-2.049-2.083-2.049-1.209 0-2.064.856-2.064 2.049s.864 2.103 2.046 2.103c1.183 0 2.092-.901 2.092-2.103m5.347.774c.136.929.919 1.548 1.919 1.548.664 0 1.091-.255 1.491-.765h2.501c-.782 1.785-2.264 2.832-3.992 2.832a4.33 4.33 0 01-4.329-4.335c0-2.431 1.883-4.398 4.284-4.398 2.4 0 4.31 1.931 4.31 4.471 0 .237-.018.428-.064.647h-6.129.01zm3.747-1.648c-.191-.838-.928-1.403-1.873-1.403-.883 0-1.656.528-1.847 1.403h3.721zm7.502 5.254c-2.491 0-4.401-1.84-4.401-4.353s1.955-4.352 4.401-4.352c2.447 0 4.402 1.839 4.402 4.325s-1.946 4.38-4.401 4.38zm1.956-4.353c0-1.093-.828-2.067-1.974-2.067-1.073 0-1.946.947-1.946 2.067s.855 2.067 1.965 2.067c1.109 0 1.955-.974 1.955-2.067z" fill="#37B5FE"/><path d="M61.813 133.529a2.703 2.703 0 01-2.701 2.705 2.703 2.703 0 01-2.701-2.705 2.703 2.703 0 012.7-2.704 2.703 2.703 0 012.702 2.704z" fill="#37B5FE"/><path d="M57.902 135.86v-4.662l3.728 2.331-3.728 2.331z" fill="#fff"/><path d="M26.436 138.437a2.25 2.25 0 01-.873-.173 2.253 2.253 0 01-1.2-2.95l3.074-7.285a2.245 2.245 0 012.946-1.193 2.254 2.254 0 011.2 2.951l-3.073 7.284a2.25 2.25 0 01-2.074 1.375" fill="#FFCB24"/><path d="M26.436 138.437a2.25 2.25 0 01-2.055-1.338l-3.22-7.285a2.251 2.251 0 011.147-2.969 2.246 2.246 0 012.964 1.148l3.22 7.284a2.251 2.251 0 01-2.056 3.16z" fill="#FFCB24"/><path d="M58.42 90.24h-6.83v31.169h6.83v-31.17zm23.218 21.635c.372 2.595 2.546 4.326 5.347 4.326 1.855 0 3.037-.702 4.156-2.14h6.993c-2.183 4.981-6.338 7.904-11.15 7.904-6.583 0-12.094-5.318-12.094-12.111 0-6.793 5.265-12.275 11.968-12.275 6.702 0 12.05 5.391 12.05 12.484 0 .665-.046 1.193-.165 1.812H81.628h.01zm10.449-4.616c-.537-2.35-2.592-3.916-5.22-3.916-2.474 0-4.611 1.484-5.139 3.916h10.368-.01zm9.949 14.15v-17.847h-2.547v-5.19h2.547v-.948c0-3.788 1.482-7.248 8.766-7.248h.946v5.145h-.245c-1.774 0-2.638.455-2.638 2.349v.701h2.883v5.191h-2.883v17.847h-6.829z" fill="#37B5FE"/><path d="M34.175 62.53h-11.23v16.355h11.23V62.53z" fill="#395EF7"/><path d="M28.564 68.149C12.814 68.149 0 55.319 0 39.547c0-15.771 12.814-28.583 28.564-28.583 8.422 0 16.37 3.697 21.799 10.144 2 2.367 1.7 5.918-.673 7.922a5.606 5.606 0 01-7.912-.674 17.25 17.25 0 00-13.213-6.147c-9.558 0-17.334 7.777-17.334 17.338s7.776 17.356 17.334 17.356a5.614 5.614 0 015.61 5.627 5.612 5.612 0 01-5.61 5.619z" fill="#395EF7"/><path d="M46.08 30.395a5.54 5.54 0 01-.937-.072c-3.056-.51-5.12-3.415-4.61-6.475A28.47 28.47 0 0168.705 0C82.72 0 93.55 9.124 96.543 22.191c.69 3.023-1.2 6.046-4.22 6.739a5.618 5.618 0 01-6.73-4.226c-1.81-7.922-8.757-13.45-16.887-13.45s-15.697 6.084-17.097 14.461a5.615 5.615 0 01-5.53 4.69" fill="#37B5FE"/><path d="M112.985 62.53h-11.232v16.355h11.232V62.53z" fill="#FFCB24"/><path d="M107.365 68.149a5.625 5.625 0 01-5.62-5.619c0-3.096 2.519-5.627 5.62-5.627 9.558 0 17.333-7.786 17.333-17.356 0-9.57-7.775-17.338-17.333-17.338a17.21 17.21 0 00-12.223 5.054 5.596 5.596 0 01-4.083 1.767 5.62 5.62 0 01-5.62-5.619c0-1.493.582-2.914 1.628-3.97 5.41-5.472 12.622-8.477 20.298-8.477 15.751 0 28.564 12.82 28.564 28.592 0 15.772-12.813 28.602-28.564 28.602" fill="#FFCB24"/><path d="M51.91 73.876v-27.08c0-4.335 4.692-7.04 8.43-4.863l23.298 13.54c3.729 2.167 3.729 7.558 0 9.725L60.34 78.738c-3.746 2.177-8.43-.527-8.43-4.862z" fill="#fff"/><path d="M72.234 105.765h-6.066a4.284 4.284 0 00-4.174-3.296 4.307 4.307 0 00-4.301 4.307H51.7c0-5.682 4.61-10.308 10.285-10.308 5.33 0 9.73 4.089 10.24 9.297" fill="#37B5FE"/><path d="M38.368 121.691a15.854 15.854 0 01-11.25-4.662c-6.202-6.21-6.202-16.327 0-22.537a15.74 15.74 0 0111.186-4.653h.018a5.624 5.624 0 01.018 11.246 4.62 4.62 0 00-3.273 1.366c-1.828 1.83-1.828 4.808 0 6.629 1.828 1.83 4.801 1.83 6.62 0a4.672 4.672 0 001.373-3.288 5.618 5.618 0 015.611-5.591h.037a5.62 5.62 0 015.584 5.655 15.88 15.88 0 01-4.657 11.173 15.854 15.854 0 01-11.249 4.662" fill="#FFCB24"/><path d="M39.532 94.255a2.621 2.621 0 01-2.619 2.623 2.621 2.621 0 01-2.62-2.623 2.622 2.622 0 012.62-2.622 2.621 2.621 0 012.62 2.622z" fill="#fff"/><path d="M39.268 94.255c0 .756-.618 1.375-1.373 1.375s-1.373-.619-1.373-1.375c0-.755.618-1.375 1.373-1.375s1.373.62 1.373 1.375z" fill="#000"/><path d="M72.289 113.359h-6.002v8.041h6.002v-8.041zm0-6.1h-6.002v4.598h6.002v-4.598z" fill="#395EF7"/><path d="M72.289 107.259h-6.002v4.598h6.002v-4.598z" fill="#395EF7"/></g><defs><clipPath id="clip0_85185_169"><path fill="#fff" d="M0 0h135.929v160H0z"/></clipPath></defs></svg>