<svg width="102" height="44" fill="none" xmlns="http://www.w3.org/2000/svg"><path d="M10.678 21.144l3.584 3.584a17.09 17.09 0 00-.553 2.925l-4.775-4.776 1.744-1.733z" fill="#395EF7"/><path d="M10.678 22.878c-2.435 2.435-6.402 2.435-8.849 0a6.259 6.259 0 010-8.839 6.214 6.214 0 014.946-1.808c.68.053 1.18.649 1.117 1.33a1.23 1.23 0 01-1.33 1.127 3.797 3.797 0 00-2.999 1.095 3.794 3.794 0 000 5.36 3.807 3.807 0 005.371 0 1.239 1.239 0 011.744 0 1.226 1.226 0 010 1.735z" fill="#395EF7"/><path d="M7.551 14.326s-.095.096-.16.128a1.227 1.227 0 01-1.712-.287 6.226 6.226 0 01.681-8.052 6.23 6.23 0 017.743-.882c.574.361.745 1.116.383 1.69a1.236 1.236 0 01-1.691.394 3.767 3.767 0 00-4.69.532 3.783 3.783 0 00-.415 4.882c.35.5.287 1.17-.128 1.585" fill="#37B5FE"/><path d="M26.483 12.54a14.65 14.65 0 00-2.563.914l-2.776-2.776 1.734-1.744 3.605 3.606z" fill="#FFCB24"/><path d="M22.878 10.668a1.239 1.239 0 01-1.745 0 1.226 1.226 0 010-1.734 3.807 3.807 0 000-5.371 3.807 3.807 0 00-5.37 0 3.773 3.773 0 00-1.107 2.68c0 .33-.106.66-.362.904a1.226 1.226 0 01-1.733 0 1.217 1.217 0 01-.362-.861 6.25 6.25 0 011.83-4.457c2.435-2.435 6.402-2.435 8.849 0 2.435 2.436 2.435 6.403 0 8.85" fill="#FFCB24"/><path d="M15.177 20.144l-4.19-4.19a1.235 1.235 0 01.553-2.064l5.7-1.51a1.225 1.225 0 011.5 1.5l-1.51 5.7a1.234 1.234 0 01-2.064.553" fill="#000"/><path d="M87.692 44c-7.818 0-14.178-6.36-14.178-14.177 0-7.818 6.36-14.178 14.178-14.178 7.817 0 14.177 6.36 14.177 14.178 0 7.817-6.36 14.177-14.177 14.177zm0-17.496a3.323 3.323 0 00-3.319 3.319 3.323 3.323 0 003.319 3.318 3.323 3.323 0 003.318-3.318 3.323 3.323 0 00-3.318-3.319z" fill="#37B5FE"/><path d="M59.135 43.798a5.427 5.427 0 01-4.999-7.54l7.424-17.582a5.427 5.427 0 017.115-2.893 5.427 5.427 0 012.893 7.116l-7.424 17.58a5.419 5.419 0 01-4.999 3.319" fill="#395EF7" opacity=".8"/><path d="M59.145 43.798a5.417 5.417 0 01-4.967-3.233l-7.774-17.581a5.437 5.437 0 012.765-7.169 5.422 5.422 0 017.158 2.766l7.775 17.58a5.437 5.437 0 01-2.766 7.169 5.523 5.523 0 01-2.19.468z" fill="#395EF7"/><path d="M45.553 29.557a14.297 14.297 0 01-4.212 10.082 14.368 14.368 0 01-10.168 4.201 14.35 14.35 0 01-10.167-4.2 14.32 14.32 0 01-4.138-8.828 13.929 13.929 0 01.085-3.393 14.292 14.292 0 014.053-8.115 14.232 14.232 0 018.168-4.074 14.673 14.673 0 011.936-.138h.01a5.07 5.07 0 015.073 5.063 5.073 5.073 0 01-5.052 5.094c-1.116 0-2.17.436-2.967 1.223a4.243 4.243 0 000 5.988 4.217 4.217 0 003 1.234 4.22 4.22 0 002.988-1.234 4.186 4.186 0 001.244-2.967 5.066 5.066 0 015.074-5.041h.02a5.075 5.075 0 015.053 5.105z" fill="#FFCB24"/><path d="M32.216 19.08a2.374 2.374 0 01-2.372 2.372 2.374 2.374 0 01-2.372-2.372 2.374 2.374 0 012.372-2.371 2.374 2.374 0 012.372 2.372z" fill="#fff"/><path d="M31.982 19.08c0 .681-.553 1.245-1.245 1.245a1.24 1.24 0 01-1.244-1.245 1.24 1.24 0 011.244-1.244 1.24 1.24 0 011.245 1.244z" fill="#000"/></svg>