<?xml version="1.0" encoding="UTF-8"?><svg id="_圖層_1" xmlns="http://www.w3.org/2000/svg" width="4000" height="50" viewBox="0 0 4000 50"><path d="M625.47,15.49c2.34,0,3.52,1.05,3.52,2.35l-1.18,11.74c0,1.3-1.04,2.35-2.34,2.35s-2.34-1.05-2.34-2.35l-1.18-11.74c0-1.3,1.18-2.35,3.52-2.35Z"/><path d="M627.81,35.66c0,1.3-1.04,2.35-2.34,2.35s-2.34-1.05-2.34-2.35,1.04-2.35,2.34-2.35,2.34,1.05,2.34,2.35Z"/><path d="M603.2,33.35l15.33-25.62c3.17-5.3,10.7-5.3,13.87,0l15.33,25.62c3.31,5.54-.6,12.65-6.95,12.65h-30.63c-6.35,0-10.26-7.11-6.95-12.65Zm4.63,2.89l15.33-25.62c1.06-1.77,3.56-1.77,4.61,0l15.33,25.62c1.11,1.85-.19,4.22-2.32,4.22h-30.63c-2.13,0-3.43-2.37-2.32-4.22Z" style="fill-rule:evenodd;"/><path d="M41.02,9.92H9.15c-2.19,0-3.98,1.79-3.98,3.98v23.9c0,2.19,1.79,3.98,3.98,3.98h31.87c2.19,0,3.98-1.79,3.98-3.98V13.9c0-2.19-1.79-3.98-3.98-3.98Zm-.8,8.46l-13.03,8.15c-1.29,.82-2.93,.82-4.22,0l-13.03-8.15c-.5-.32-.8-.86-.8-1.43,0-1.33,1.45-2.13,2.59-1.43l13.34,8.35,13.34-8.35c1.14-.7,2.59,.1,2.59,1.43,0,.58-.3,1.12-.8,1.43Z"/><path d="M76.36,22.39c-1.73-4.91-6.85-8.22-12.56-7.09-4.18,.84-7.58,4.18-8.46,8.36-1.5,7.07,3.87,13.33,10.7,13.33,4.77,0,8.82-3.05,10.32-7.31h7.94v3.65c0,2.01,1.64,3.65,3.65,3.65s3.65-1.64,3.65-3.65v-3.65c2.01,0,3.65-1.64,3.65-3.65s-1.64-3.65-3.65-3.65h-15.25Zm-10.32,7.3c-2.01,0-3.65-1.64-3.65-3.65s1.64-3.65,3.65-3.65,3.65,1.64,3.65,3.65-1.64,3.65-3.65,3.65Z"/><path d="M177,6.34V2.17c0-1.05-1.26-1.56-1.98-.82l-6.53,6.51c-.47,.47-.47,1.19,0,1.66l6.51,6.51c.75,.72,2.01,.21,2.01-.84v-4.17c7.72,0,13.99,6.27,13.99,13.99,0,1.84-.35,3.64-1.03,5.25-.35,.84-.09,1.8,.54,2.43,1.19,1.19,3.19,.77,3.82-.79,.86-2.12,1.33-4.45,1.33-6.88,0-10.31-8.35-18.66-18.66-18.66Zm-4.68,32.65c-7.72,0-13.99-6.27-13.99-13.99,0-1.84,.35-3.64,1.03-5.25,.35-.84,.09-1.8-.54-2.43-1.19-1.19-3.19-.77-3.82,.79-.86,2.12-1.33,4.45-1.33,6.88,0,10.31,8.35,18.66,18.66,18.66v4.17c0,1.05,1.26,1.56,1.98,.82l6.51-6.51c.47-.47,.47-1.19,0-1.66l-6.51-6.51c-.72-.72-1.98-.21-1.98,.84v4.17h0Z"/><path d="M133.71,3.58h-15.79c-3.28,0-5.92,2.64-5.92,5.92v31.58c0,3.28,2.64,5.92,5.92,5.92h15.79c3.28,0,5.92-2.64,5.92-5.92V9.5c0-3.28-2.64-5.92-5.92-5.92Zm-4.93,39.47h-5.92c-.55,0-.99-.43-.99-.99s.43-.99,.99-.99h5.92c.55,0,.99,.43,.99,.99s-.43,.99-.99,.99Zm6.91-5.92h-19.73V9.5h19.73v27.63Z"/><path d="M271.45,47.44c-.48,0-.96-.15-1.36-.46l-5.2-3.99c-.98-.75-1.16-2.14-.42-3.13,.26-.35,1.03-1.56-.22-2.52-1.35-1.04-2.49,.16-2.7,.4-.78,.91-2.12,1.05-3.06,.32l-5.39-4.14c-.49-.37-.8-.93-.86-1.54-.06-.61,.13-1.22,.53-1.69l23.31-27.26c.77-.9,2.12-1.05,3.06-.32l5.39,4.14c.95,.73,1.16,2.08,.47,3.06-.17,.24-.96,1.48,.1,2.29,1.36,1.05,3.01-.34,3.02-.36,.8-.69,1.98-.72,2.82-.08l5.2,3.99c.49,.37,.8,.93,.86,1.54,.06,.61-.13,1.22-.53,1.69l-7.34,8.58h0l-15.97,18.67c-.44,.52-1.07,.78-1.7,.78Zm-2.36-6.87l2.04,1.56,13.06-15.27-13.44-10.32-13.06,15.26,2.1,1.61c2.05-1.27,4.77-1.49,7.19,.37,2.43,1.86,2.87,4.52,2.12,6.78Zm4.57-27.43l13.44,10.32,4.43-5.17-2.07-1.59c-2.09,1.04-4.8,1.23-7.09-.53-2.25-1.73-2.68-4.26-2-6.46l-2.27-1.75-4.43,5.17Z"/><path d="M217.26,37.78c-2.2,0-3.98,1.8-3.98,4s1.78,4,3.98,4,4-1.8,4-4-1.8-4-4-4Zm-11.99-29.97c0,1.1,.9,2,2,2h2l7.19,15.16-2.7,4.87c-1.46,2.68,.46,5.93,3.5,5.93h21.97c1.1,0,2-.9,2-2s-.9-2-2-2h-21.97l2.2-4h14.88c1.5,0,2.82-.82,3.5-2.06l7.15-12.97c.74-1.32-.22-2.96-1.74-2.96h-29.57l-1.34-2.86c-.32-.7-1.04-1.14-1.8-1.14h-3.28c-1.1,0-2,.9-2,2Zm31.96,29.97c-2.2,0-3.98,1.8-3.98,4s1.78,4,3.98,4,4-1.8,4-4-1.8-4-4-4Z"/><path d="M339.73,6.08h-29.93c-2.35,0-4.25,1.92-4.25,4.27l.02,29.91c0,2.35,1.9,4.27,4.25,4.27h21.36l12.82-12.82V10.35c0-2.35-1.92-4.27-4.27-4.27Zm-23.5,10.68h17.09c1.18,0,2.14,.96,2.14,2.14s-.96,2.14-2.14,2.14h-17.09c-1.18,0-2.14-.96-2.14-2.14s.96-2.14,2.14-2.14Zm6.41,12.82h-6.41c-1.18,0-2.14-.96-2.14-2.14s.96-2.14,2.14-2.14h6.41c1.18,0,2.14,.96,2.14,2.14s-.96,2.14-2.14,2.14Zm6.41,11.75v-9.61c0-1.18,.96-2.14,2.14-2.14h9.61l-11.75,11.75Z"/><path d="M387.89,7.36h-8.35c-.84-2.32-3.04-4-5.63-4s-4.79,1.68-5.63,4h-8.35c-2.2,0-4,1.8-4,4v31.96c0,2.2,1.8,4,4,4h27.97c2.2,0,4-1.8,4-4V11.36c0-2.2-1.8-4-4-4Zm-13.98,0c1.1,0,2,.9,2,2s-.9,2-2,2-2-.9-2-2,.9-2,2-2Zm11.99,35.96h-23.97c-1.1,0-2-.9-2-2V13.35c0-1.1,.9-2,2-2h2v2c0,2.2,1.8,4,4,4h11.99c2.2,0,4-1.8,4-4v-2h2c1.1,0,2,.9,2,2v27.97c0,1.1-.9,2-2,2Z"/><path d="M425.03,5.38c-11.03,0-19.98,8.95-19.98,19.98s8.95,19.98,19.98,19.98,19.98-8.95,19.98-19.98-8.95-19.98-19.98-19.98Zm0,5.99c3.32,0,5.99,2.68,5.99,5.99s-2.68,5.99-5.99,5.99-5.99-2.68-5.99-5.99,2.68-5.99,5.99-5.99Zm0,28.37c-4.99,0-9.41-2.56-11.99-6.43,.06-3.98,7.99-6.15,11.99-6.15s11.93,2.18,11.99,6.15c-2.58,3.88-6.99,6.43-11.99,6.43Z"/><path d="M485.01,41.43h-23.97c-1.1,0-2-.9-2-2V15.46c0-1.1-.9-2-2-2s-2,.9-2,2v25.97c0,2.2,1.8,4,4,4h25.97c1.1,0,2-.9,2-2s-.9-2-2-2Zm5.99-35.96h-23.97c-2.2,0-4,1.8-4,4v23.97c0,2.2,1.8,4,4,4h23.97c2.2,0,4-1.8,4-4V9.47c0-2.2-1.8-4-4-4Zm0,19.98l-4.99-3-4.99,3V9.47h9.99v15.98Z"/><g id="Group_400"><line id="Line_30" x1="505.25" y1="5.25" x2="545" y2="45" style="fill:none; stroke:#000; stroke-linecap:round; stroke-width:4px;"/><line id="Line_31" x1="545" y1="5.25" x2="505.25" y2="45" style="fill:none; stroke:#000; stroke-linecap:round; stroke-width:4px;"/></g><path d="M747.57,14.62c-.53-1.95-2.09-3.49-4.08-4.01-3.6-.95-18.03-.95-18.03-.95,0,0-14.43,0-18.03,.95-1.99,.52-3.55,2.06-4.08,4.01-.96,3.53-.96,10.91-.96,10.91,0,0,0,7.37,.96,10.91,.53,1.95,2.09,3.42,4.08,3.94,3.6,.95,18.03,.95,18.03,.95,0,0,14.43,0,18.03-.95,1.99-.52,3.55-1.99,4.08-3.94,.96-3.53,.96-10.91,.96-10.91,0,0,0-7.37-.96-10.91Zm-26.84,17.6v-13.39l12.06,6.69-12.06,6.69Z"/><path d="M878.97,21.07v6.25c0,.16-.12,.28-.27,.28h-.97c-.09,0-.18-.05-.22-.11l-2.79-3.87v3.71c0,.16-.12,.28-.27,.28h-.97c-.15,0-.27-.12-.27-.28v-6.25c0-.16,.12-.28,.27-.28h.97c.09,0,.18,.04,.22,.12l2.79,3.87v-3.71c0-.16,.12-.28,.27-.28h.97c.15,0,.28,.12,.28,.27Zm-7.01-.28h-.98c-.15,0-.27,.12-.27,.28v6.25c0,.16,.12,.28,.27,.28h.98c.15,0,.27-.12,.27-.28v-6.25c0-.15-.12-.28-.27-.28Zm-2.35,5.24h-2.66v-4.96c0-.16-.12-.28-.27-.28h-.97c-.15,0-.27,.12-.27,.28v6.25c0,.08,.03,.14,.08,.19,.05,.04,.11,.08,.19,.08h3.91c.15,0,.27-.12,.27-.28v-1c0-.15-.12-.28-.27-.28Zm14.49-5.24h-3.91c-.14,0-.27,.12-.27,.28v6.25c0,.15,.12,.28,.27,.28h3.91c.15,0,.27-.12,.27-.28v-1c0-.16-.12-.28-.27-.28h-2.66v-1.06h2.66c.15,0,.27-.12,.27-.28v-1.01c0-.16-.12-.28-.27-.28h-2.66v-1.06h2.66c.15,0,.27-.12,.27-.28v-1c0-.15-.13-.28-.27-.28Zm9.91-7.68v25.09c0,3.94-3.14,7.13-6.98,7.12h-24.38c-3.83,0-6.93-3.25-6.92-7.18V13.05c0-3.94,3.15-7.13,6.98-7.12h24.38c3.83,0,6.93,3.24,6.92,7.18Zm-5.26,10.78c0-6.42-6.26-11.64-13.94-11.64s-13.94,5.22-13.94,11.64c0,5.75,4.96,10.57,11.66,11.48,1.63,.36,1.44,.98,1.08,3.24-.06,.36-.28,1.42,1.21,.77,1.49-.64,8.02-4.86,10.96-8.33,2.02-2.29,2.98-4.6,2.98-7.17Z"/><path d="M775,4.11c-11.6,0-21,9.4-21,21,0,10.53,7.76,19.22,17.86,20.74v-15.17h-5.2v-5.52h5.2v-3.67c0-6.08,2.96-8.75,8.02-8.75,2.42,0,3.7,.18,4.31,.26v4.82h-3.45c-2.15,0-2.9,2.03-2.9,4.33v3.02h6.29l-.85,5.52h-5.44v15.22c10.25-1.39,18.16-10.15,18.16-20.79,0-11.6-9.4-21-21-21Z"/><path d="M907.11,7l13.95,20.92-13.46,15.97h4.02l11.21-13.31,8.87,13.31h12.29l-14.3-21.45,13.01-15.44h-4.02l-10.76,12.77-8.52-12.77h-12.3Zm5.75,3.07h4.91l20.49,30.74h-4.91l-20.49-30.74Z"/><path d="M817.52,6c-6.36,0-11.52,5.17-11.52,11.52v15.95c0,6.36,5.17,11.52,11.52,11.52h15.95c6.36,0,11.52-5.17,11.52-11.52v-15.95c0-6.36-5.17-11.52-11.52-11.52h-15.95Zm18.61,7.09c.97,0,1.77,.8,1.77,1.77s-.8,1.77-1.77,1.77-1.77-.8-1.77-1.77,.8-1.77,1.77-1.77Zm-10.64,2.66c5.38,0,9.75,4.37,9.75,9.75s-4.37,9.75-9.75,9.75-9.75-4.37-9.75-9.75,4.37-9.75,9.75-9.75Zm0,1.77c-4.4,0-7.98,3.58-7.98,7.98s3.58,7.98,7.98,7.98,7.98-3.58,7.98-7.98-3.58-7.98-7.98-7.98Z"/><path d="M575.15,2.15c-12.38,0-22.42,10.05-22.42,22.42s10.05,22.42,22.42,22.42,22.42-10.05,22.42-22.42-10.05-22.42-22.42-22.42Zm-6.08,32.04l-8.05-8.05c-.87-.87-.87-2.29,0-3.16s2.29-.87,3.16,0h0l6.48,6.46,15.43-15.43c.87-.87,2.29-.87,3.16,0s.87,2.29,0,3.16l-17.02,17.02c-.87,.87-2.29,.87-3.16,0,0,0,0,0,0,0h0Z"/><path d="M1142.67,8.15h-34.62c-2.4,0-4.31,1.93-4.31,4.33l-.02,25.96c0,2.4,1.93,4.33,4.33,4.33h34.62c2.4,0,4.33-1.93,4.33-4.33V12.48c0-2.4-1.93-4.33-4.33-4.33Zm-2.16,30.29h-30.29c-1.19,0-2.16-.97-2.16-2.16v-10.82h34.62v10.82c0,1.19-.97,2.16-2.16,2.16Zm2.16-21.63h-34.62v-2.16c0-1.19,.97-2.16,2.16-2.16h30.29c1.19,0,2.16,.97,2.16,2.16v2.16Z"/><g><path d="M1088.89,30.41h0s-6.83,6.83-6.83,6.83l-2.18-2.18c-.45-.45-1.19-.45-1.64,0-.45,.45-.45,1.19,0,1.64l3.01,3.01c.45,.45,1.18,.45,1.64,0,0,0,0,0,0,0l7.65-7.65c.45-.45,.45-1.19,0-1.64-.46-.45-1.19-.45-1.65,0Z"/><path d="M1084.39,23.11c-6.41,0-11.61,5.2-11.61,11.61,0,6.41,5.2,11.61,11.61,11.61s11.61-5.2,11.61-11.61-5.2-11.61-11.61-11.61Zm0,20.9c-5.13,0-9.28-4.16-9.29-9.29,0-5.12,4.17-9.29,9.29-9.29s9.29,4.17,9.29,9.29-4.17,9.29-9.29,9.29Z"/></g><path d="M1087.56,6.22h-6.71c-.89-2.45-3.21-4.22-5.95-4.22s-5.07,1.77-5.95,4.22h-6.71c-2.32,0-4.22,1.9-4.22,4.22v31.67c0,2.32,1.9,4.22,4.22,4.22h12.9c-1.25-1.21-2.27-2.64-3-4.22h-9.9V10.44h4.22v2.11c0,2.32,1.9,4.22,4.22,4.22h8.44c2.32,0,4.22-1.9,4.22-4.22v-2.11h4.22v10.72c1.5,.21,2.91,.65,4.22,1.27V10.44c0-2.32-1.9-4.22-4.22-4.22Zm-12.67,4.22c-1.16,0-2.11-.95-2.11-2.11s.95-2.11,2.11-2.11,2.11,.95,2.11,2.11-.95,2.11-2.11,2.11Z"/><path d="M1175.46,2.92c-12.47,0-22.54,10.08-22.54,22.54s10.07,22.54,22.54,22.54,22.54-10.08,22.54-22.54-10.07-22.54-22.54-22.54Zm9.69,32.23c-.88,.88-2.3,.88-3.18,0l-6.52-6.51-6.52,6.51c-.88,.88-2.3,.88-3.18,0-.88-.88-.88-2.3,0-3.18l6.52-6.51-6.52-6.51c-.88-.88-.88-2.3,0-3.18,.88-.88,2.3-.88,3.18,0l6.52,6.51,6.52-6.51c.88-.88,2.3-.88,3.18,0,.88,.88,.88,2.3,0,3.18l-6.52,6.51,6.52,6.51c.86,.86,.86,2.3,0,3.18Z"/><g><path d="M1229.91,18.64h16.71c1.31,0,2.39-1.07,2.39-2.39s-1.07-2.39-2.39-2.39h-16.71c-1.31,0-2.39,1.07-2.39,2.39s1.07,2.39,2.39,2.39Z"/><path d="M1246.61,32.96h-16.71c-1.31,0-2.39,1.07-2.39,2.39s1.07,2.39,2.39,2.39h16.71c1.31,0,2.39-1.07,2.39-2.39s-1.07-2.39-2.39-2.39Z"/><path d="M1246.61,23.41h-9.55c-1.31,0-2.39,1.07-2.39,2.39s1.07,2.39,2.39,2.39h9.55c1.31,0,2.39-1.07,2.39-2.39s-1.07-2.39-2.39-2.39Z"/><path d="M1217.62,15.89c-.74-.74-2.03-.21-2.03,.86v6.66h-11.93c-1.31,0-2.39,1.07-2.39,2.39s1.07,2.39,2.39,2.39h11.93v6.66c0,1.07,1.29,1.6,2.03,.84l9.04-9.04c.48-.48,.48-1.22,0-1.69l-9.04-9.04Z"/></g><path d="M1261.44,10.08c-3.58,1.64-6.2,5.53-6.2,10.17s1.94,8.4,4.72,11.53c2.29,2.58,5.07,4.72,7.77,6.81,.64,.5,1.28,.99,1.91,1.48,1.14,.89,2.15,1.68,3.12,2.25,.98,.57,1.76,.83,2.43,.83s1.45-.26,2.43-.83c.98-.57,1.99-1.36,3.12-2.25,.63-.49,1.27-.99,1.91-1.48,2.71-2.09,5.48-4.23,7.77-6.81,2.78-3.13,4.72-6.79,4.72-11.53s-2.62-8.53-6.2-10.17c-3.18-1.45-7.36-1.23-11.44,2.35l3.15,3.14c.63,.63,.63,1.66,0,2.29-.63,.63-1.66,.63-2.29,0l-4.32-4.31-.02-.02c-4.44-4.61-9.11-5.03-12.59-3.44Zm13.76,.07c-4.99-4.46-10.57-5.09-15.1-3.02-4.78,2.19-8.09,7.26-8.09,13.11s2.4,10.14,5.54,13.68c2.52,2.83,5.6,5.2,8.32,7.3,.62,.47,1.21,.94,1.78,1.38,1.11,.87,2.29,1.8,3.49,2.5,1.2,.7,2.57,1.27,4.06,1.27s2.86-.57,4.06-1.27c1.2-.7,2.39-1.63,3.49-2.5,.57-.45,1.17-.91,1.78-1.38,2.72-2.09,5.8-4.47,8.32-7.3,3.14-3.54,5.54-7.93,5.54-13.68s-3.31-10.93-8.09-13.11c-4.53-2.07-10.11-1.45-15.1,3.02Z" style="fill-rule:evenodd;"/><path d="M1340.3,7.13c-4.53-2.07-10.11-1.45-15.1,3.02-4.99-4.46-10.57-5.09-15.1-3.02-4.78,2.19-8.09,7.26-8.09,13.11s2.4,10.14,5.54,13.68c2.52,2.83,5.6,5.2,8.32,7.3,.62,.47,1.21,.94,1.78,1.38,1.11,.87,2.29,1.8,3.49,2.5,1.2,.7,2.57,1.27,4.06,1.27s2.86-.57,4.06-1.27c1.2-.7,2.39-1.63,3.49-2.5,.57-.45,1.17-.91,1.78-1.38,2.72-2.09,5.8-4.47,8.32-7.3,3.14-3.54,5.54-7.93,5.54-13.68s-3.31-10.93-8.09-13.11Zm-12.67,5.2l.18,.39-.3-.3s.08-.06,.11-.09Z" style="fill-rule:evenodd;"/><path d="M1387.71,18.55h-4.15V5.5c0-1.44-1.17-2.61-2.61-2.61h-10.44c-1.44,0-2.61,1.17-2.61,2.61v13.05h-4.15c-2.32,0-3.5,2.82-1.85,4.46l11.98,11.98c1.02,1.02,2.66,1.02,3.68,0l11.98-11.98c1.64-1.64,.5-4.46-1.83-4.46Zm-30.26,26.11c0,1.44,1.17,2.61,2.61,2.61h31.33c1.44,0,2.61-1.17,2.61-2.61s-1.17-2.61-2.61-2.61h-31.33c-1.44,0-2.61,1.17-2.61,2.61Z"/><path d="M975.57,9.82c-10.33,0-19.15,6.43-22.73,15.5,3.57,9.07,12.4,15.5,22.73,15.5s19.15-6.43,22.73-15.5c-3.57-9.07-12.4-15.5-22.73-15.5Zm0,25.83c-5.7,0-10.33-4.63-10.33-10.33s4.63-10.33,10.33-10.33,10.33,4.63,10.33,10.33-4.63,10.33-10.33,10.33Zm0-16.53c-3.43,0-6.2,2.77-6.2,6.2s2.77,6.2,6.2,6.2,6.2-2.77,6.2-6.2-2.77-6.2-6.2-6.2Z"/><path d="M1025.27,14.99c5.7,0,10.33,4.63,10.33,10.33,0,1.05-.21,2.07-.5,3.02l6.32,6.32c2.87-2.54,5.14-5.72,6.57-9.36-3.57-9.05-12.4-15.47-22.73-15.47-2.62,0-5.14,.41-7.52,1.18l4.48,4.48c.97-.29,1.98-.5,3.04-.5Zm-19.19-6.9c-.81,.81-.81,2.11,0,2.91l4.07,4.07c-3.35,2.67-6.01,6.18-7.6,10.25,3.57,9.07,12.4,15.5,22.73,15.5,3.14,0,6.14-.62,8.9-1.69l5.62,5.62c.81,.81,2.11,.81,2.91,0s.81-2.11,0-2.91l-33.7-33.74c-.81-.81-2.13-.81-2.93,0Zm19.19,27.56c-5.7,0-10.33-4.63-10.33-10.33,0-1.59,.37-3.1,1.01-4.42l3.24,3.24c-.06,.37-.12,.76-.12,1.18,0,3.43,2.77,6.2,6.2,6.2,.41,0,.79-.06,1.18-.14l3.24,3.24c-1.34,.66-2.83,1.03-4.42,1.03Zm6.14-11.01c-.31-2.89-2.58-5.14-5.45-5.45l5.45,5.45Z"/><g><path d="M1440.33,6.03h-6.03l-1.71-1.71c-.43-.43-1.06-.7-1.69-.7h-10.07c-.63,0-1.25,.27-1.69,.7l-1.71,1.71h-6.03c-1.33,0-2.41,1.08-2.41,2.41s1.08,2.41,2.41,2.41h28.92c1.33,0,2.41-1.08,2.41-2.41s-1.08-2.41-2.41-2.41Z"/><path d="M1435.51,13.26h-19.28c-2.65,0-4.82,2.17-4.82,4.82v24.1c0,2.65,2.17,4.82,4.82,4.82h19.28c2.65,0,4.82-2.17,4.82-4.82V18.08c0-2.65-2.17-4.82-4.82-4.82Zm-12.51,26.74c0,.83-.67,1.5-1.5,1.5s-1.5-.67-1.5-1.5V22c0-.83,.67-1.5,1.5-1.5s1.5,.67,1.5,1.5v18Zm10,0c0,.83-.67,1.5-1.5,1.5s-1.5-.67-1.5-1.5V22c0-.83,.67-1.5,1.5-1.5s1.5,.67,1.5,1.5v18Z"/></g><path d="M1472.48,13.06h4.82v4.82h-4.82v-4.82Zm2.41,24.11c1.33,0,2.41-1.09,2.41-2.41v-9.64c0-1.33-1.08-2.41-2.41-2.41s-2.41,1.08-2.41,2.41v9.64c0,1.33,1.08,2.41,2.41,2.41Zm0-36.17c-13.31,0-24.11,10.8-24.11,24.11s10.8,24.11,24.11,24.11,24.11-10.8,24.11-24.11-10.8-24.11-24.11-24.11Zm0,43.4c-10.63,0-19.29-8.66-19.29-19.29s8.66-19.29,19.29-19.29,19.29,8.66,19.29,19.29-8.66,19.29-19.29,19.29Z"/><path d="M1539.08,42.18h-27.83c-1.28,0-2.32-1.04-2.32-2.32V12.03c0-1.28,1.04-2.32,2.32-2.32h11.6c1.28,0,2.32-1.04,2.32-2.32s-1.04-2.32-2.32-2.32h-13.92c-2.57,0-4.64,2.09-4.64,4.64V42.18c0,2.55,2.09,4.64,4.64,4.64h32.47c2.55,0,4.64-2.09,4.64-4.64v-13.92c0-1.28-1.04-2.32-2.32-2.32s-2.32,1.04-2.32,2.32v11.6c0,1.28-1.04,2.32-2.32,2.32Zm-9.28-34.79c0,1.28,1.04,2.32,2.32,2.32h6.01l-21.18,21.18c-.9,.9-.9,2.37,0,3.27s2.37,.9,3.27,0l21.18-21.18v6.01c0,1.28,1.04,2.32,2.32,2.32s2.32-1.04,2.32-2.32V5.07h-13.92c-1.28,0-2.32,1.04-2.32,2.32Z"/><path d="M1591.08,6.41h-2.26v-2.26c0-1.24-1.01-2.26-2.26-2.26s-2.26,1.01-2.26,2.26v2.26h-18.04v-2.26c0-1.24-1.01-2.26-2.26-2.26s-2.26,1.01-2.26,2.26v2.26h-2.26c-2.5,0-4.49,2.03-4.49,4.51l-.02,31.57c0,2.48,2.01,4.51,4.51,4.51h31.57c2.48,0,4.51-2.03,4.51-4.51V10.92c0-2.48-2.03-4.51-4.51-4.51Zm0,33.83c0,1.24-1.01,2.26-2.26,2.26h-27.06c-1.24,0-2.26-1.01-2.26-2.26V17.68h31.57v22.55Zm-27.06-18.04h4.51v4.51h-4.51v-4.51Zm9.02,0h4.51v4.51h-4.51v-4.51Zm9.02,0h4.51v4.51h-4.51v-4.51Z"/></svg>