<svg xmlns="http://www.w3.org/2000/svg" width="119.404" height="117.999"><defs><clipPath id="a"><path data-name="Rectangle 23" transform="rotate(14.24 -153.67 410.693)" fill="#fff" d="M0 0h32.26v32.26H0z"/></clipPath><clipPath id="b"><path data-name="Rectangle 24" transform="rotate(14.24 -168.343 304.913)" fill="#fff" d="M0 0h32.26v32.26H0z"/></clipPath></defs><g data-name="Group 25" transform="translate(-3122 -1201)"><path data-name="Path 33" d="M3146.662 1246.837l-5.687 2.991 4.062 7.723 5.689-2.991z" fill="#2c2c2c"/><path data-name="Path 34" d="M3145.216 1250.984c-7.975 4.195-17.65 1.549-21.567-5.9s-.612-16.91 7.363-21.105a16.774 16.774 0 0113.557-1.015 2.863 2.863 0 011.627 3.92 3.368 3.368 0 01-4.17 1.79 10.173 10.173 0 00-8.217.617c-4.84 2.546-6.845 8.288-4.47 12.8s8.248 6.125 13.087 3.58a3.007 3.007 0 112.793 5.31z" fill="#2c2c2c"/><path data-name="Path 35" d="M3144.707 1228.492a3.351 3.351 0 01-.492.215 3.031 3.031 0 01-3.943-1.829c-2.264-7.143 1.246-15.033 8.342-18.765s14.846-2.304 19.606 3.065a3.005 3.005 0 01-.463 4.306 3.227 3.227 0 01-4.457-.2 9.737 9.737 0 00-11.892-1.854c-4.116 2.165-6.437 7.053-5.065 11.382a3.156 3.156 0 01-1.635 3.687" fill="#2c2c2c"/><path data-name="Path 36" d="M3186.566 1225.848l-5.687 2.991 4.062 7.723 5.685-2.991z" fill="#2c2c2c"/><path data-name="Path 37" d="M3185.115 1229.998a3.007 3.007 0 11-2.789-5.31c4.84-2.545 6.843-8.293 4.465-12.812s-8.247-6.117-13.086-3.567a10.219 10.219 0 00-4.933 5.642 3.314 3.314 0 01-1.629 1.922 3.113 3.113 0 01-4.241-1.164 2.9 2.9 0 01-.162-2.308 16.821 16.821 0 018.172-9.409c7.975-4.195 17.648-1.553 21.565 5.895s.616 16.919-7.359 21.114" fill="#2c2c2c"/><ellipse data-name="Ellipse 2" cx="46.402" cy="44.035" rx="46.402" ry="44.035" transform="translate(3137.5 1230.929)" fill="#343434"/><g data-name="Group 17" transform="translate(3113.826 1190.209)" clip-path="url(#a)"><path data-name="Path 38" d="M123.615 73.99a16.13 16.13 0 11-11.672-19.6 16.134 16.134 0 0111.672 19.6z" fill="#fff"/><path data-name="Path 39" d="M116.133 72.225a8.457 8.457 0 11-6.12-10.276 8.486 8.486 0 016.12 10.276z"/></g><g data-name="Group 18" transform="translate(3113.826 1190.209)" clip-path="url(#b)"><path data-name="Path 40" d="M97.141 74.348a16.13 16.13 0 11-11.672-19.6 16.134 16.134 0 0111.672 19.6z" fill="#fff"/><path data-name="Path 41" d="M89.825 72.225a8.457 8.457 0 11-6.12-10.276 8.485 8.485 0 016.12 10.276z"/></g></g></svg>