<svg xmlns="http://www.w3.org/2000/svg" xmlns:xlink="http://www.w3.org/1999/xlink" width="119.404" height="117.999" viewBox="0 0 119.404 117.999">
  <defs>
    <clipPath id="clip-path">
      <rect id="Rectangle_23" data-name="Rectangle 23" width="32.26" height="32.26" transform="matrix(0.969, 0.246, -0.246, 0.969, 96.307, 50.427)" fill="#fff"/>
    </clipPath>
    <clipPath id="clip-path-2">
      <rect id="Rectangle_24" data-name="Rectangle 24" width="32.26" height="32.26" transform="matrix(0.969, 0.246, -0.246, 0.969, 69.834, 50.785)" fill="#fff"/>
    </clipPath>
  </defs>
  <g id="Group_25" data-name="Group 25" transform="translate(-3122 -1201)">
    <path id="Path_33" data-name="Path 33" d="M32.836,56.628l-5.687,2.991,4.062,7.723L36.9,64.351Z" transform="translate(3113.826 1190.209)" fill="#2c2c2c"/>
    <path id="Path_34" data-name="Path 34" d="M31.39,60.775c-7.975,4.195-17.65,1.549-21.567-5.9s-.612-16.91,7.363-21.105a16.774,16.774,0,0,1,13.557-1.015,2.863,2.863,0,0,1,1.627,3.92A3.368,3.368,0,0,1,28.2,38.465a10.173,10.173,0,0,0-8.217.617c-4.84,2.546-6.845,8.288-4.47,12.8s8.248,6.125,13.087,3.58a3.007,3.007,0,1,1,2.793,5.31Z" transform="translate(3113.826 1190.209)" fill="#2c2c2c"/>
    <path id="Path_35" data-name="Path 35" d="M30.881,38.283a3.351,3.351,0,0,1-.492.215,3.031,3.031,0,0,1-3.943-1.829c-2.264-7.143,1.246-15.033,8.342-18.765S49.634,15.6,54.394,20.969a3.005,3.005,0,0,1-.463,4.306,3.227,3.227,0,0,1-4.457-.2,9.737,9.737,0,0,0-11.892-1.854c-4.116,2.165-6.437,7.053-5.065,11.382a3.156,3.156,0,0,1-1.635,3.687" transform="translate(3113.826 1190.209)" fill="#2c2c2c"/>
    <path id="Path_36" data-name="Path 36" d="M72.74,35.639,67.053,38.63l4.062,7.723L76.8,43.362Z" transform="translate(3113.826 1190.209)" fill="#2c2c2c"/>
    <path id="Path_37" data-name="Path 37" d="M71.289,39.789A3.007,3.007,0,1,1,68.5,34.479c4.84-2.545,6.843-8.293,4.465-12.812S64.718,15.55,59.879,18.1a10.219,10.219,0,0,0-4.933,5.642,3.314,3.314,0,0,1-1.629,1.922A3.113,3.113,0,0,1,49.076,24.5a2.9,2.9,0,0,1-.162-2.308,16.821,16.821,0,0,1,8.172-9.409c7.975-4.195,17.648-1.553,21.565,5.895s.616,16.919-7.359,21.114" transform="translate(3113.826 1190.209)" fill="#2c2c2c"/>
    <ellipse id="Ellipse_2" data-name="Ellipse 2" cx="46.402" cy="44.035" rx="46.402" ry="44.035" transform="translate(3137.5 1230.929)" fill="#343434"/>
    <g id="Group_17" data-name="Group 17" transform="translate(3113.826 1190.209)" clip-path="url(#clip-path)">
      <path id="Path_38" data-name="Path 38" d="M123.615,73.99a16.13,16.13,0,1,1-11.672-19.6A16.134,16.134,0,0,1,123.615,73.99Z" fill="#fff"/>
      <path id="Path_39" data-name="Path 39" d="M116.133,72.225a8.457,8.457,0,1,1-6.12-10.276A8.486,8.486,0,0,1,116.133,72.225Z"/>
    </g>
    <g id="Group_18" data-name="Group 18" transform="translate(3113.826 1190.209)" clip-path="url(#clip-path-2)">
      <path id="Path_40" data-name="Path 40" d="M97.141,74.348a16.13,16.13,0,1,1-11.672-19.6A16.134,16.134,0,0,1,97.141,74.348Z" fill="#fff"/>
      <path id="Path_41" data-name="Path 41" d="M89.825,72.225a8.457,8.457,0,1,1-6.12-10.276A8.485,8.485,0,0,1,89.825,72.225Z"/>
    </g>
  </g>
</svg>
