<svg xmlns="http://www.w3.org/2000/svg" xmlns:xlink="http://www.w3.org/1999/xlink" width="119.404" height="117.999" viewBox="0 0 119.404 117.999">
  <defs>
    <clipPath id="clip-path">
      <rect id="Rectangle_27" data-name="Rectangle 27" width="32.26" height="32.26" transform="matrix(0.969, 0.246, -0.246, 0.969, 451.307, 50.427)" fill="#fff"/>
    </clipPath>
    <clipPath id="clip-path-2">
      <rect id="Rectangle_28" data-name="Rectangle 28" width="32.26" height="32.26" transform="matrix(0.969, 0.246, -0.246, 0.969, 424.834, 50.785)" fill="#fff"/>
    </clipPath>
  </defs>
  <g id="Group_27" data-name="Group 27" transform="translate(-3477 -1201)">
    <path id="Path_51" data-name="Path 51" d="M387.836,56.628l-5.687,2.991,4.062,7.723,5.687-2.991Z" transform="translate(3113.826 1190.209)" fill="#ababab"/>
    <path id="Path_52" data-name="Path 52" d="M386.39,60.775c-7.975,4.195-17.65,1.549-21.567-5.9s-.612-16.91,7.363-21.105a16.774,16.774,0,0,1,13.557-1.015,2.863,2.863,0,0,1,1.627,3.92,3.368,3.368,0,0,1-4.173,1.789,10.175,10.175,0,0,0-8.218.617c-4.839,2.546-6.845,8.288-4.47,12.8s8.248,6.125,13.088,3.58a3.007,3.007,0,1,1,2.793,5.31Z" transform="translate(3113.826 1190.209)" fill="#ababab"/>
    <path id="Path_53" data-name="Path 53" d="M385.881,38.283a3.361,3.361,0,0,1-.492.215,3.032,3.032,0,0,1-3.943-1.829c-2.264-7.143,1.246-15.033,8.342-18.765s14.846-2.308,19.606,3.066a3.006,3.006,0,0,1-.462,4.306,3.227,3.227,0,0,1-4.457-.2,9.737,9.737,0,0,0-11.892-1.854c-4.116,2.165-6.437,7.053-5.065,11.382a3.157,3.157,0,0,1-1.635,3.687" transform="translate(3113.826 1190.209)" fill="#ababab"/>
    <path id="Path_54" data-name="Path 54" d="M427.74,35.639l-5.687,2.991,4.062,7.723,5.687-2.991Z" transform="translate(3113.826 1190.209)" fill="#ababab"/>
    <path id="Path_55" data-name="Path 55" d="M426.289,39.789a3.007,3.007,0,1,1-2.793-5.311c4.84-2.545,6.843-8.293,4.466-12.812s-8.244-6.117-13.083-3.571a10.219,10.219,0,0,0-4.934,5.642,3.31,3.31,0,0,1-1.628,1.922,3.113,3.113,0,0,1-4.242-1.156,2.9,2.9,0,0,1-.161-2.308,16.819,16.819,0,0,1,8.171-9.409c7.976-4.195,17.648-1.553,21.566,5.895s.616,16.919-7.359,21.114" transform="translate(3113.826 1190.209)" fill="#ababab"/>
    <ellipse id="Ellipse_4" data-name="Ellipse 4" cx="46.402" cy="44.035" rx="46.402" ry="44.035" transform="translate(3492.501 1230.929)" fill="#c5c5c5"/>
    <g id="Group_21" data-name="Group 21" transform="translate(3113.826 1190.209)" clip-path="url(#clip-path)">
      <path id="Path_56" data-name="Path 56" d="M478.615,73.99a16.13,16.13,0,1,1-11.672-19.6A16.134,16.134,0,0,1,478.615,73.99Z" fill="#fff"/>
      <path id="Path_57" data-name="Path 57" d="M471.133,72.225a8.457,8.457,0,1,1-6.12-10.276A8.486,8.486,0,0,1,471.133,72.225Z"/>
    </g>
    <g id="Group_22" data-name="Group 22" transform="translate(3113.826 1190.209)" clip-path="url(#clip-path-2)">
      <path id="Path_58" data-name="Path 58" d="M452.141,74.348a16.13,16.13,0,1,1-11.671-19.6A16.134,16.134,0,0,1,452.141,74.348Z" fill="#fff"/>
      <path id="Path_59" data-name="Path 59" d="M444.825,72.225a8.457,8.457,0,1,1-6.12-10.276A8.486,8.486,0,0,1,444.825,72.225Z"/>
    </g>
  </g>
</svg>
