<svg xmlns="http://www.w3.org/2000/svg" width="119" height="118"><g data-name="Group 552"><path data-name="Rectangle 624" fill="none" d="M0 0h119v118H0z"/><g transform="translate(1.841 4.937)" opacity=".4"><ellipse data-name="Ellipse 59" cx="46.276" cy="43.708" rx="46.276" ry="43.708" transform="translate(14.057 24.063)" fill="#343434"/><path data-name="Path 313" d="M105.528 55.603a10.583 10.583 0 11-7.661-12.8 10.591 10.591 0 017.661 12.8z" fill="#fff"/><path data-name="Path 314" d="M100.618 54.45a5.549 5.549 0 11-4.015-6.712 5.57 5.57 0 014.015 6.712z"/><path data-name="Path 315" d="M88.155 55.837a10.583 10.583 0 11-7.661-12.8 10.591 10.591 0 017.661 12.8z" fill="#fff"/><path data-name="Path 316" d="M83.353 54.45a5.549 5.549 0 11-4.017-6.712 5.57 5.57 0 014.017 6.712z"/></g></g></svg>