<svg xmlns="http://www.w3.org/2000/svg" width="119.404" height="117.999"><defs><clipPath id="a"><path data-name="Rectangle 29" transform="rotate(14.24 108.898 2512.031)" fill="#fff" d="M0 0h32.26v32.26H0z"/></clipPath><clipPath id="b"><path data-name="Rectangle 30" transform="rotate(14.24 94.225 2406.25)" fill="#fff" d="M0 0h32.26v32.26H0z"/></clipPath></defs><g data-name="Group 28" transform="translate(-3647 -1201)"><path data-name="Path 60" d="M3671.662 1246.837l-5.687 2.991 4.062 7.723 5.687-2.991z" fill="#ebb710"/><path data-name="Path 61" d="M3670.216 1250.984c-7.975 4.195-17.65 1.549-21.567-5.9s-.612-16.91 7.363-21.105a16.774 16.774 0 0113.557-1.015 2.863 2.863 0 011.627 3.92 3.368 3.368 0 01-4.173 1.789 10.175 10.175 0 00-8.218.617c-4.839 2.546-6.845 8.288-4.47 12.8s8.248 6.125 13.088 3.58a3.007 3.007 0 112.793 5.31z" fill="#ebb710"/><path data-name="Path 62" d="M3669.707 1228.492a3.36 3.36 0 01-.492.215 3.032 3.032 0 01-3.943-1.829c-2.264-7.143 1.246-15.033 8.342-18.765s14.846-2.308 19.606 3.066a3.005 3.005 0 01-.462 4.306 3.227 3.227 0 01-4.457-.2 9.737 9.737 0 00-11.892-1.854c-4.116 2.165-6.437 7.053-5.065 11.382a3.157 3.157 0 01-1.635 3.687" fill="#ebb710"/><path data-name="Path 63" d="M3711.566 1225.848l-5.687 2.991 4.062 7.723 5.687-2.991z" fill="#ebb710"/><path data-name="Path 64" d="M3710.115 1229.998a3.007 3.007 0 11-2.793-5.311c4.84-2.545 6.843-8.293 4.466-12.812s-8.244-6.117-13.083-3.571a10.219 10.219 0 00-4.934 5.642 3.31 3.31 0 01-1.628 1.922 3.113 3.113 0 01-4.242-1.156 2.9 2.9 0 01-.161-2.308 16.819 16.819 0 018.171-9.409c7.976-4.195 17.648-1.553 21.566 5.895s.616 16.919-7.359 21.114" fill="#ebb710"/><ellipse data-name="Ellipse 5" cx="46.402" cy="44.035" rx="46.402" ry="44.035" transform="translate(3662.501 1230.929)" fill="#ffcb24"/><g data-name="Group 23" transform="translate(3113.826 1190.209)" clip-path="url(#a)"><path data-name="Path 65" d="M648.615 73.99a16.13 16.13 0 11-11.672-19.6 16.134 16.134 0 0111.672 19.6z" fill="#fff"/><path data-name="Path 66" d="M641.133 72.225a8.457 8.457 0 11-6.12-10.276 8.486 8.486 0 016.12 10.276z"/></g><g data-name="Group 24" transform="translate(3113.826 1190.209)" clip-path="url(#b)"><path data-name="Path 67" d="M622.141 74.348a16.13 16.13 0 11-11.671-19.6 16.134 16.134 0 0111.671 19.6z" fill="#fff"/><path data-name="Path 68" d="M614.825 72.225a8.457 8.457 0 11-6.12-10.276 8.486 8.486 0 016.12 10.276z"/></g></g></svg>