<svg xmlns="http://www.w3.org/2000/svg" xmlns:xlink="http://www.w3.org/1999/xlink" width="119.404" height="117.999" viewBox="0 0 119.404 117.999">
  <defs>
    <clipPath id="clip-path">
      <rect id="Rectangle_25" data-name="Rectangle 25" width="32.26" height="32.26" transform="matrix(0.969, 0.246, -0.246, 0.969, 266.307, 50.427)" fill="#fff"/>
    </clipPath>
    <clipPath id="clip-path-2">
      <rect id="Rectangle_26" data-name="Rectangle 26" width="32.26" height="32.26" transform="matrix(0.969, 0.246, -0.246, 0.969, 239.834, 50.785)" fill="#fff"/>
    </clipPath>
  </defs>
  <g id="Group_26" data-name="Group 26" transform="translate(-3292 -1201)">
    <path id="Path_42" data-name="Path 42" d="M202.836,56.628l-5.687,2.991,4.062,7.723,5.687-2.991Z" transform="translate(3113.826 1190.209)" fill="#744121"/>
    <path id="Path_43" data-name="Path 43" d="M201.39,60.775c-7.975,4.195-17.65,1.549-21.567-5.9s-.612-16.91,7.363-21.105a16.774,16.774,0,0,1,13.557-1.015,2.863,2.863,0,0,1,1.627,3.92,3.368,3.368,0,0,1-4.173,1.789,10.175,10.175,0,0,0-8.218.617c-4.839,2.546-6.845,8.288-4.47,12.8s8.248,6.125,13.088,3.58a3.007,3.007,0,1,1,2.793,5.31Z" transform="translate(3113.826 1190.209)" fill="#744121"/>
    <path id="Path_44" data-name="Path 44" d="M200.881,38.283a3.36,3.36,0,0,1-.492.215,3.032,3.032,0,0,1-3.943-1.829c-2.264-7.143,1.246-15.033,8.342-18.765s14.846-2.308,19.606,3.066a3.006,3.006,0,0,1-.462,4.306,3.227,3.227,0,0,1-4.457-.2,9.737,9.737,0,0,0-11.892-1.854c-4.116,2.165-6.437,7.053-5.065,11.382a3.157,3.157,0,0,1-1.635,3.687" transform="translate(3113.826 1190.209)" fill="#744121"/>
    <path id="Path_45" data-name="Path 45" d="M242.74,35.639l-5.687,2.991,4.062,7.723,5.687-2.991Z" transform="translate(3113.826 1190.209)" fill="#744121"/>
    <path id="Path_46" data-name="Path 46" d="M241.289,39.789a3.007,3.007,0,1,1-2.793-5.311c4.84-2.545,6.843-8.293,4.466-12.812s-8.244-6.117-13.083-3.571a10.219,10.219,0,0,0-4.934,5.642,3.31,3.31,0,0,1-1.628,1.922,3.113,3.113,0,0,1-4.242-1.156,2.9,2.9,0,0,1-.161-2.308,16.819,16.819,0,0,1,8.171-9.409c7.976-4.195,17.648-1.553,21.566,5.895s.616,16.919-7.359,21.114" transform="translate(3113.826 1190.209)" fill="#744121"/>
    <ellipse id="Ellipse_3" data-name="Ellipse 3" cx="46.402" cy="44.035" rx="46.402" ry="44.035" transform="translate(3307.501 1230.929)" fill="#7d4a2b"/>
    <g id="Group_19" data-name="Group 19" transform="translate(3113.826 1190.209)" clip-path="url(#clip-path)">
      <path id="Path_47" data-name="Path 47" d="M293.615,73.99a16.13,16.13,0,1,1-11.672-19.6A16.134,16.134,0,0,1,293.615,73.99Z" fill="#fff"/>
      <path id="Path_48" data-name="Path 48" d="M286.133,72.225a8.457,8.457,0,1,1-6.12-10.276A8.486,8.486,0,0,1,286.133,72.225Z"/>
    </g>
    <g id="Group_20" data-name="Group 20" transform="translate(3113.826 1190.209)" clip-path="url(#clip-path-2)">
      <path id="Path_49" data-name="Path 49" d="M267.141,74.348a16.13,16.13,0,1,1-11.671-19.6A16.134,16.134,0,0,1,267.141,74.348Z" fill="#fff"/>
      <path id="Path_50" data-name="Path 50" d="M259.825,72.225a8.457,8.457,0,1,1-6.12-10.276A8.486,8.486,0,0,1,259.825,72.225Z"/>
    </g>
  </g>
</svg>
