<svg xmlns="http://www.w3.org/2000/svg" width="640" height="88"><defs><clipPath id="a"><path transform="rotate(14.24 71.697 859.066)" fill="#fff" d="M0 0h58.859v58.859H0z"/></clipPath><clipPath id="b"><path transform="rotate(14.24 44.926 666.065)" fill="#fff" d="M0 0h58.859v58.859H0z"/></clipPath></defs><path fill="#ffebd3" d="M0 0h640v88H0z"/><path d="M168 50.262C179.2 18.558 209.333 3.544 223 0h292a16 16 0 0116 16v71.959H131.291a15.863 15.863 0 01-2.291 0h2.291c9.209-.629 26.438-8.621 36.709-37.697z" fill="#f5a218"/><g transform="translate(110 1)" clip-path="url(#a)"><path d="M263.357 51.76A29.43 29.43 0 11242.061 16a29.438 29.438 0 0121.296 35.76z" fill="#fff"/><path d="M254.706 59.54a15.43 15.43 0 11-11.166-18.748 15.482 15.482 0 0111.166 18.748z"/></g><g transform="translate(110 1)" clip-path="url(#b)"><path d="M215.055 52.413a29.429 29.429 0 11-21.295-35.759 29.437 29.437 0 0121.295 35.759z" fill="#fff"/><path d="M207.706 59.54a15.43 15.43 0 11-11.166-18.748 15.482 15.482 0 0111.166 18.748z"/></g><path fill="#f5a218" d="M460 0h180v88H460z"/></svg>