<svg xmlns="http://www.w3.org/2000/svg" xmlns:xlink="http://www.w3.org/1999/xlink" width="640" height="88" viewBox="0 0 640 88"><defs><clipPath id="a"><rect width="58.859" height="58.859" transform="matrix(0.969, 0.246, -0.246, 0.969, 213.534, 8.769)" fill="#fff"/></clipPath><clipPath id="b"><rect width="58.859" height="58.859" transform="matrix(0.969, 0.246, -0.246, 0.969, 165.233, 9.422)" fill="#fff"/></clipPath></defs><g transform="translate(-926 1007)"><rect width="640" height="88" transform="translate(926 -1007)" fill="#ffebd3"/><path d="M58,49.262C69.2,17.558,99.333,2.544,113-1H405a16,16,0,0,1,16,16V86.959H21.291a15.863,15.863,0,0,1-2.291,0h2.291C30.5,86.33,47.729,78.338,58,49.262Z" transform="translate(1036 -1006)" fill="#f5a218"/><g transform="translate(1036 -1006)" clip-path="url(#a)"><path d="M263.357,51.76A29.43,29.43,0,1,1,242.061,16,29.438,29.438,0,0,1,263.357,51.76Z" fill="#fff"/><path d="M254.706,59.54A15.43,15.43,0,1,1,243.54,40.792,15.482,15.482,0,0,1,254.706,59.54Z"/></g><g transform="translate(1036 -1006)" clip-path="url(#b)"><path d="M215.055,52.413A29.429,29.429,0,1,1,193.76,16.654,29.437,29.437,0,0,1,215.055,52.413Z" fill="#fff"/><path d="M207.706,59.54A15.43,15.43,0,1,1,196.54,40.792,15.482,15.482,0,0,1,207.706,59.54Z"/></g><rect width="180" height="88" transform="translate(1386 -1007)" fill="#f5a218"/></g></svg>