<svg xmlns="http://www.w3.org/2000/svg" width="400" height="77"><defs><clipPath id="a"><path transform="translate(1036 -1150)" fill="none" stroke="#707070" d="M0 0h400v77H0z"/></clipPath><clipPath id="b"><path transform="rotate(14.3 -114.843 227.663) skewX(.07)" fill="#fff" d="M0 0h23.577v23.628H0z"/></clipPath><clipPath id="c"><path transform="rotate(14.3 -125.646 150.39) skewX(.07)" fill="#fff" d="M0 0h23.577v23.628H0z"/></clipPath></defs><g transform="translate(-1036 1150)" clip-path="url(#a)"><path fill="#462a00" d="M1036-1150h400v77h-400z"/><path d="M1267.669-1061.923a21.389 21.389 0 01-4.518-.615c-1.286-.28-2.58-.47-3.95-.671-3.252-.477-6.614-.97-9.816-2.741a2 2 0 011.936-3.5c2.566 1.419 5.429 1.839 8.461 2.284 1.377.2 2.8.411 4.221.721 3.735.815 5.513.92 8.088-1.361 3.727-3.3 6.619-7.809 9.416-12.171 4.385-6.837 8.919-13.907 16.95-17.191 5.548-2.268 11.643-2.19 16.333-1.868 1.245.085 2.494.267 3.7.443a20.443 20.443 0 006.976.248c3.7-.772 6.009-2.074 7.478-4.221a65.785 65.785 0 005.516-10.472c.519-1.166 1.035-2.475 1.582-3.86 2.118-5.366 4.519-11.449 9.006-14.484 4.231-2.862 9.566-3.24 14.273-3.573.5-.035.969-.069 1.436-.1a2 2 0 11.309 3.988c-.48.037-.979.073-1.462.107-4.206.3-8.972.636-12.315 2.9-3.462 2.342-5.622 7.813-7.527 12.639-.563 1.427-1.095 2.774-1.648 4.018a70.233 70.233 0 01-5.868 11.1c-2.718 3.976-6.988 5.26-9.964 5.88a23.712 23.712 0 01-8.367-.206c-1.186-.172-2.307-.335-3.4-.41-4.258-.292-9.76-.376-14.545 1.58-6.861 2.805-10.862 9.043-15.1 15.648-2.945 4.591-5.989 9.339-10.132 13.006a10.137 10.137 0 01-7.069 2.882z" fill="#f5a218"/><path d="M1462.159-1204.212a21.389 21.389 0 014.518.615c1.286.28 2.58.47 3.95.671 3.252.477 6.614.97 9.816 2.741a2 2 0 01-1.936 3.5c-2.566-1.419-5.429-1.839-8.461-2.284-1.377-.2-2.8-.411-4.221-.721-3.735-.815-5.513-.92-8.088 1.361-3.727 3.3-6.619 7.809-9.416 12.171-4.385 6.837-8.919 13.907-16.95 17.191-5.548 2.268-11.643 2.19-16.333 1.868-1.245-.085-2.494-.267-3.7-.443a20.443 20.443 0 00-6.976-.248c-3.7.772-6.009 2.074-7.478 4.221a65.785 65.785 0 00-5.516 10.472c-.519 1.166-1.035 2.475-1.582 3.86-2.118 5.366-4.519 11.449-9.006 14.484-4.231 2.862-9.566 3.24-14.273 3.573-.5.035-.969.069-1.436.1a2 2 0 11-.309-3.988c.48-.037.979-.073 1.462-.107 4.206-.3 8.972-.636 12.315-2.9 3.462-2.342 5.622-7.813 7.527-12.639.563-1.427 1.095-2.774 1.648-4.018a70.233 70.233 0 015.868-11.1c2.718-3.976 6.988-5.26 9.964-5.88a23.712 23.712 0 018.367.206c1.186.172 2.307.335 3.4.41 4.258.292 9.76.376 14.545-1.58 6.861-2.805 10.862-9.043 15.1-15.648 2.945-4.591 5.989-9.339 10.132-13.006a10.137 10.137 0 017.069-2.882z" fill="#f5a218"/><path d="M1199.8-1097c-33.857-7.269-68.292-3.77-85.8 4.138V-1073h276.294v-28c-49.794 22.9-149.377 12.828-190.494 4z" fill="#fff"/><g transform="translate(1114 -1150)" clip-path="url(#b)"><path d="M72.4 52.57a11.788 11.788 0 11-8.53-14.357A11.787 11.787 0 0172.4 52.57z" fill="#fff"/><path d="M71.337 51.277a6.181 6.181 0 11-4.472-7.528 6.2 6.2 0 014.472 7.528z"/></g><g transform="translate(1114 -1150)" clip-path="url(#c)"><path d="M53.054 52.832a11.788 11.788 0 11-8.529-14.357 11.787 11.787 0 018.529 14.357z" fill="#fff"/><path d="M52.113 51.277a6.181 6.181 0 11-4.472-7.528 6.2 6.2 0 014.472 7.528z"/></g><circle cx="6.5" cy="6.5" r="6.5" transform="translate(1129 -1137)" fill="#ffebd3"/><path d="M1144.556-1100.072s-21.762-.831-86.277 28.271 17.513 3.09 17.513 3.09h50.479zm215.629 8.344s60.265-8.628 77.907-56.4c10.43 17 12.62 43.525 12.62 44.3v36.7l-78.937 3.477-9.143-17.255z" fill="#fff"/></g></svg>