<svg width="1097" height="120" fill="none" xmlns="http://www.w3.org/2000/svg"><g clip-path="url(#clip0_87590_7565)"><path fill="#462A00" d="M-32-62h1328v386H-32z"/><circle cx="197" cy="197" r="197" transform="matrix(-1 0 0 1 1215 -25)" fill="#F5A218"/><path d="M811.412 87h-31.838c.183-12.808 6.953-20.676 19.03-32.204 9.149-8.965 12.442-14.455 12.442-20.127 0-6.587-3.11-11.345-10.613-11.345-10.063 0-12.076 7.32-12.442 13.724-.183 1.28-.183 2.561-.183 3.842h-33.485c-.183-1.647-.183-2.379-.183-3.293 0-26.35 20.128-45.562 48.123-45.562 28.545 0 43.915 20.677 43.915 38.791 0 16.834-10.796 26.715-20.677 35.864-11.893 10.979-13.54 14.638-14.089 20.31zm0 11.894V130h-31.838V98.894h31.838z" fill="#7D4A2B"/><g clip-path="url(#clip1_87590_7565)"><path d="M887.643 62.76c3.993 15.749 20.01 25.288 35.759 21.295 15.749-3.993 25.288-20.01 21.296-35.76-3.993-15.749-20.01-25.287-35.759-21.295-15.75 3.993-25.289 20.01-21.296 35.76z" fill="#fff"/><path d="M901.294 59.54c2.084 8.222 10.527 13.25 18.748 11.166 8.222-2.084 13.25-10.528 11.166-18.749-2.084-8.221-10.528-13.25-18.749-11.165-8.221 2.084-13.25 10.527-11.165 18.748z" fill="#462A00"/></g><g clip-path="url(#clip2_87590_7565)"><path d="M935.945 63.413c3.992 15.75 20.009 25.288 35.759 21.295 15.749-3.992 25.288-20.01 21.295-35.759-3.992-15.75-20.009-25.288-35.759-21.295-15.749 3.992-25.288 20.01-21.295 35.759z" fill="#fff"/><path d="M949.295 59.54c2.084 8.22 10.527 13.249 18.748 11.165 8.222-2.084 13.25-10.527 11.166-18.749-2.085-8.221-10.528-13.25-18.749-11.165-8.221 2.084-13.25 10.527-11.165 18.748z" fill="#462A00"/></g><path d="M1034.87 344.508c21.95-1.456 48.68-1.904 68.14-13.63 23.45-14.131 34.31-49.259 45.86-72.372 7.75-15.497 15.85-30.809 26.43-44.614 9.8-12.775 24.94-17.971 40.35-20.802 17.01-3.126 34.84 1.77 51.82 2.867 23.73 1.534 68.56 8.297 91.2.073 57.73-20.971 58.24-82.148 119.53-119.82 61.29-37.674 72.25-5.07 96.1 3.885" stroke="#F5A218" stroke-width="8" stroke-linecap="round"/></g><defs><clipPath id="clip0_87590_7565"><path fill="#fff" d="M0 0h1097v120H0z"/></clipPath><clipPath id="clip1_87590_7565"><path fill="#fff" transform="scale(-1 1) rotate(14.225 -547.948 -3746.653)" d="M0 0h58.859v58.859H0z"/></clipPath><clipPath id="clip2_87590_7565"><path fill="#fff" transform="scale(-1 1) rotate(14.225 -574.717 -3939.878)" d="M0 0h58.859v58.859H0z"/></clipPath></defs></svg>