<svg width="1440" height="1456" fill="none" xmlns="http://www.w3.org/2000/svg"><g clip-path="url(#clip0_87591_6002)"><path fill="#fff" d="M0 0h1440v1456H0z"/><path opacity=".2" d="M-41-14h1522l-9 1506.5-742.5 10-753 70.5L-41-14z" fill="#FFDF91"/><ellipse cx="13.866" cy="221.163" rx="146" ry="150" transform="rotate(41.988 13.866 221.163)" fill="#FFEBD3"/><ellipse cx="1215.31" cy="1256.71" rx="271.674" ry="277.108" transform="rotate(41.988 1215.31 1256.71)" fill="#FFEBD3" opacity=".5"/><path opacity=".5" d="M1591.46 205.765c-102.38 113.754-275.78 124.599-387.31 24.225-111.52-100.375-118.93-273.96-16.55-387.714 102.38-113.753 275.79-124.599 387.31-24.224 111.52 100.375 118.93 273.96 16.55 387.713z" fill="#FFDF91"/><ellipse opacity=".3" cx="188.3" cy="826.534" rx="37.302" ry="37.945" transform="rotate(30.093 188.3 826.534)" fill="#FFCB24"/><ellipse opacity=".3" cx="168" cy="267" rx="58" ry="59" fill="#FFCB24"/><ellipse cx="1415.22" cy="1067.46" rx="114.024" ry="117.291" transform="rotate(41.988 1415.22 1067.46)" fill="#FFEBD3"/><ellipse cx="38.499" cy="1089.77" rx="112.5" ry="116" transform="rotate(30.093 38.5 1089.77)" fill="#F5A218" opacity=".5"/></g><defs><clipPath id="clip0_87591_6002"><path fill="#fff" d="M0 0h1440v1456H0z"/></clipPath></defs></svg>