<svg width="273" height="304" fill="none" xmlns="http://www.w3.org/2000/svg"><mask id="a" style="mask-type:alpha" maskUnits="userSpaceOnUse" x="0" y="0" width="274" height="304"><path fill="#D9D9D9" d="M0 0h274v304H0z"/></mask><g mask="url(#a)"><path d="M233.192 141.766l-11.307 27.845c-5.418.709-10.799 1.876-16.046 3.594l15.064-37.098 12.289 5.659zM200.398 76.56c-17.387-8.271-25.401-30.748-17.875-50.138 7.547-19.33 27.853-28.336 45.24-20.066 9.339 4.443 16.345 13.13 19.245 23.917 1.103 3.977-.936 8.162-4.549 9.345-3.592 1.244-7.353-.995-8.456-4.973-1.766-6.544-6.026-11.773-11.666-14.506-10.554-5.02-22.857.437-27.438 12.17-4.581 11.732.296 25.412 10.849 30.431 3.417 1.626 4.985 6.025 3.524 9.883-1.483 3.798-5.458 5.561-8.874 3.936z" fill="#462A00"/><path d="M237.3 39.507s-.677-.328-.968-.619c-3.106-2.255-4.01-6.885-2.012-10.356 9.034-15.675 26.678-21.684 42.047-14.178 14.67 7.117 22.928 24.346 20.117 41.942-.665 4.068-4.135 6.725-7.768 5.96-3.632-.764-6.019-4.666-5.407-8.71 1.727-10.688-3.294-21.107-12.172-25.414-9.329-4.526-20.042-.892-25.499 8.585-1.815 3.11-5.329 4.25-8.263 2.827m46.962 102.832c-2.911-4.508-6.186-8.644-9.793-12.494l8.377-21.95 12.297 5.934-10.881 28.51zM187.52 98.272a99.592 99.592 0 0115.499-5.744l5.591-22.693-13.828-1.038-7.262 29.475z" fill="#462A00"/><path d="M286.627 117.984c-3.408-1.649-4.986-6.077-3.546-9.947 1.461-3.809 5.411-5.561 8.819-3.912 10.526 5.096 22.754-.328 27.323-12.118 4.514-11.767-.373-25.474-10.921-30.63-5.073-2.456-10.743-2.54-15.883-.26-1.677.744-3.57.88-5.334-.023-3.408-1.65-4.986-6.077-3.525-9.886.715-1.862 2.025-3.286 3.648-4.006 8.548-3.792 17.907-3.728 26.389.377 17.342 8.394 25.407 31.018 17.991 50.463-7.438 19.385-27.619 28.336-45.015 19.966" fill="#462A00"/><path d="M234.769 83.446l12.075-27.932c1.931-4.467 7.431-4.88 9.879-.746l15.193 25.784c2.448 4.133.011 9.68-4.321 9.996l-27.268 2.148c-4.379.334-7.443-4.802-5.528-9.32" fill="#FFCB24"/><circle cx="161.893" cy="161.893" transform="matrix(.78785 .59777 -.62312 .79604 137.287 22.353)" fill="#FFCB24" r="161.893"/><g clip-path="url(#clip0_88634_3287)"><path d="M19.469 197.817c-1.932 19.301 12.266 36.122 31.7 37.553 19.432 1.431 36.766-13.066 38.699-32.367 1.932-19.301-12.267-36.122-31.7-37.553-19.433-1.432-36.767 13.066-38.7 32.367z" fill="#fff"/><path d="M24.691 196.439c-1.008 10.075 6.476 18.942 16.62 19.689 10.144.747 19.281-6.895 20.29-16.97 1.008-10.075-6.476-18.942-16.62-19.689-10.144-.747-19.281 6.895-20.29 16.97z" fill="#000"/></g><g clip-path="url(#clip1_88634_3287)"><path d="M68.87 216.923c-1.932 19.301 12.267 36.122 31.7 37.553 19.433 1.431 36.767-13.067 38.699-32.368 1.932-19.301-12.267-36.121-31.7-37.552-19.433-1.432-36.767 13.066-38.699 32.367z" fill="#fff"/><path d="M84.13 218.092c-4.571 9.141 10.108-3.811 19.22.49 11.301 5.335 9.363 24.303 13.934 15.162 4.57-9.141.849-20.155-8.263-24.456-9.112-4.302-20.321-.337-24.892 8.804z" fill="#000"/></g></g><defs><clipPath id="clip0_88634_3287"><path fill="#fff" transform="matrix(-.99956 -.07362 -.09938 .99277 93.367 168.042)" d="M0 0h70.43v70.43H0z"/></clipPath><clipPath id="clip1_88634_3287"><path fill="#fff" transform="matrix(-.99956 -.07362 -.09938 .99277 142.769 187.148)" d="M0 0h70.43v70.43H0z"/></clipPath></defs></svg>