<svg width="1441" height="555" fill="none" xmlns="http://www.w3.org/2000/svg"><g clip-path="url(#clip0_87641_4310)"><path fill="#FFCB24" d="M0-62.003h1441v634H0z"/><path fill-rule="evenodd" clip-rule="evenodd" d="M997.111 639.981c1.545-88.076 80.399-149.487 124.449-225.773 45.16-78.199 54.04-189.585 136.56-226.252 82.57-36.69 174.28 20.54 259.63 50.212 75.61 26.289 156.38 48.815 205.97 111.66 48.46 61.405 54.52 143.51 57.09 221.69 2.44 74.261-16.1 143.859-42.81 213.193-32.51 84.396-48.1 189.942-128.47 231.419-80.91 41.75-177.12-4.36-264.93-28.413-84.03-23.013-169.63-45.846-231.21-107.472-64.47-64.515-117.88-149.073-116.279-240.264z" fill="#FFCB24"/><path fill-rule="evenodd" clip-rule="evenodd" d="M664.323 476.065c-38.341 89.436-144.626 119.332-221.517 178.968-78.819 61.133-134.394 171.348-234.096 174.407-99.766 3.062-169.675-93.747-244.58-159.716-66.365-58.447-139.563-115.193-164.056-200.167-23.931-83.027 4.136-169.532 34.139-250.563 28.5-76.969 76.504-140.416 132.76-200.18 68.475-72.748 128.47-174.19 227.982-183.063 100.175-8.932 179.332 78.385 259.104 139.631C530.395 33.99 608.417 93.071 645.681 181.803c39.01 92.891 58.339 201.663 18.642 294.262z" fill="#F5A218"/></g><defs><clipPath id="clip0_87641_4310"><path fill="#fff" d="M0 0h1441v555H0z"/></clipPath></defs></svg>