<svg width="445" height="237" fill="none" xmlns="http://www.w3.org/2000/svg"><mask id="a" style="mask-type:alpha" maskUnits="userSpaceOnUse" x="0" y="0" width="445" height="237"><path opacity=".95" transform="matrix(-1 0 0 1 445 0)" fill="#212121" d="M0 0h445v237H0z"/></mask><g mask="url(#a)"><path d="M-218 169c0 160.715 130.285 291 291 291s291-130.285 291-291S233.715-122 73-122-218 8.285-218 169z" fill="#00228A"/><path d="M516.579 268.606c-21.951-1.456-48.676-1.903-68.138-13.63-23.452-14.13-34.31-49.259-45.866-72.372-7.748-15.497-15.842-30.809-26.429-44.614-9.798-12.775-24.935-17.971-40.345-20.802-17.013-3.125-34.838 1.77-51.822 2.867-23.73 1.534-68.562 8.297-91.2.073C135.05 99.158 134.544 37.98 73.253.308 11.96-37.367 1-4.763-22.847 4.192" stroke="#fff" stroke-width="8" stroke-linecap="round"/><circle cx="11.5" cy="11.5" r="11.5" transform="matrix(-1 0 0 1 276.579 112)" fill="#37B5FE"/></g></svg>