<svg xmlns="http://www.w3.org/2000/svg" width="4000" height="50"><path d="M575 46.42c12.15 0 22-9.85 22-22s-9.85-22-22-22-22 9.85-22 22 9.85 22 22 22zm10.49-26.92c.78-1 .66-2.49-.27-3.33-.93-.84-2.32-.71-3.1.29l-9.4 12.03-4.83-6.19c-.78-1-2.17-1.13-3.1-.29-.93.84-1.05 2.33-.27 3.33l4.83 6.19c1.76 2.25 4.98 2.25 6.74 0l9.4-12.03z" fill-rule="evenodd"/><path d="M625.47 15.49c2.34 0 3.52 1.05 3.52 2.35l-1.18 11.74c0 1.3-1.04 2.35-2.34 2.35s-2.34-1.05-2.34-2.35l-1.18-11.74c0-1.3 1.18-2.35 3.52-2.35zm2.34 20.17c0 1.3-1.04 2.35-2.34 2.35s-2.34-1.05-2.34-2.35 1.04-2.35 2.34-2.35 2.34 1.05 2.34 2.35z"/><path d="M603.2 33.35l15.33-25.62c3.17-5.3 10.7-5.3 13.87 0l15.33 25.62c3.31 5.54-.6 12.65-6.95 12.65h-30.63c-6.35 0-10.26-7.11-6.95-12.65zm4.63 2.89l15.33-25.62a2.665 2.665 0 014.61 0l15.33 25.62c1.11 1.85-.19 4.22-2.32 4.22h-30.63c-2.13 0-3.43-2.37-2.32-4.22z" fill-rule="evenodd"/><path d="M41.02 9.92H9.15a3.99 3.99 0 00-3.98 3.98v23.9a3.99 3.99 0 003.98 3.98h31.87A3.99 3.99 0 0045 37.8V13.9a3.99 3.99 0 00-3.98-3.98zm-.8 8.46l-13.03 8.15c-1.29.82-2.93.82-4.22 0L9.94 18.38c-.5-.32-.8-.86-.8-1.43 0-1.33 1.45-2.13 2.59-1.43l13.34 8.35 13.34-8.35c1.14-.7 2.59.1 2.59 1.43 0 .58-.3 1.12-.8 1.43zm36.14 4.01A10.957 10.957 0 0063.8 15.3c-4.18.84-7.58 4.18-8.46 8.36-1.5 7.07 3.87 13.33 10.7 13.33 4.77 0 8.82-3.05 10.32-7.31h7.94v3.65c0 2.01 1.64 3.65 3.65 3.65s3.65-1.64 3.65-3.65v-3.65c2.01 0 3.65-1.64 3.65-3.65s-1.64-3.65-3.65-3.65H76.35zm-10.32 7.3c-2.01 0-3.65-1.64-3.65-3.65s1.64-3.65 3.65-3.65 3.65 1.64 3.65 3.65-1.64 3.65-3.65 3.65zM174.33 8.64V5.13c0-.88-1.06-1.31-1.66-.69l-5.48 5.46c-.39.39-.39 1 0 1.39l5.46 5.46c.63.61 1.68.18 1.68-.71v-3.51c6.48 0 11.75 5.27 11.75 11.75 0 1.55-.29 3.06-.86 4.41-.29.71-.08 1.51.45 2.04 1 1 2.68.65 3.21-.67.72-1.78 1.12-3.74 1.12-5.78 0-8.66-7.01-15.67-15.67-15.67zm0 27.42c-6.48 0-11.75-5.27-11.75-11.75 0-1.55.29-3.06.86-4.41.29-.71.08-1.51-.45-2.04-1-1-2.68-.65-3.21.67-.72 1.78-1.12 3.74-1.12 5.78 0 8.66 7.01 15.67 15.67 15.67v3.51c0 .88 1.06 1.31 1.66.69l5.46-5.46c.39-.39.39-1 0-1.39l-5.46-5.46c-.61-.61-1.66-.18-1.66.71v3.51zM133.71 3.58h-15.79c-3.28 0-5.92 2.64-5.92 5.92v31.58c0 3.28 2.64 5.92 5.92 5.92h15.79c3.28 0 5.92-2.64 5.92-5.92V9.5c0-3.28-2.64-5.92-5.92-5.92zm-4.93 39.47h-5.92c-.55 0-.99-.43-.99-.99s.43-.99.99-.99h5.92c.55 0 .99.43.99.99s-.43.99-.99.99zm6.91-5.92h-19.73V9.5h19.73v27.63zm135.76 10.31c-.48 0-.96-.15-1.36-.46l-5.2-3.99a2.24 2.24 0 01-.42-3.13c.26-.35 1.03-1.56-.22-2.52-1.35-1.04-2.49.16-2.7.4-.78.91-2.12 1.05-3.06.32l-5.39-4.14c-.49-.37-.8-.93-.86-1.54-.06-.61.13-1.22.53-1.69l23.31-27.26c.77-.9 2.12-1.05 3.06-.32l5.39 4.14c.95.73 1.16 2.08.47 3.06-.17.24-.96 1.48.1 2.29 1.36 1.05 3.01-.34 3.02-.36.8-.69 1.98-.72 2.82-.08l5.2 3.99c.49.37.8.93.86 1.54.06.61-.13 1.22-.53 1.69l-7.34 8.58-15.97 18.67c-.44.52-1.07.78-1.7.78zm-2.36-6.87l2.04 1.56 13.06-15.27-13.44-10.32-13.06 15.26 2.1 1.61c2.05-1.27 4.77-1.49 7.19.37 2.43 1.86 2.87 4.52 2.12 6.78zm4.57-27.43l13.44 10.32 4.43-5.17-2.07-1.59c-2.09 1.04-4.8 1.23-7.09-.53-2.25-1.73-2.68-4.26-2-6.46l-2.27-1.75-4.43 5.17zm-56.4 24.64c-2.2 0-3.98 1.8-3.98 4s1.78 4 3.98 4 4-1.8 4-4-1.8-4-4-4zM205.27 7.81c0 1.1.9 2 2 2h2l7.19 15.16-2.7 4.87c-1.46 2.68.46 5.93 3.5 5.93h21.97c1.1 0 2-.9 2-2s-.9-2-2-2h-21.97l2.2-4h14.88c1.5 0 2.82-.82 3.5-2.06l7.15-12.97c.74-1.32-.22-2.96-1.74-2.96h-29.57l-1.34-2.86c-.32-.7-1.04-1.14-1.8-1.14h-3.28c-1.1 0-2 .9-2 2zm31.96 29.97c-2.2 0-3.98 1.8-3.98 4s1.78 4 3.98 4 4-1.8 4-4-1.8-4-4-4zm102.5-31.7H309.8c-2.35 0-4.25 1.92-4.25 4.27l.02 29.91c0 2.35 1.9 4.27 4.25 4.27h21.36L344 31.71V10.35a4.28 4.28 0 00-4.27-4.27zm-23.5 10.68h17.09c1.18 0 2.14.96 2.14 2.14s-.96 2.14-2.14 2.14h-17.09c-1.18 0-2.14-.96-2.14-2.14s.96-2.14 2.14-2.14zm6.41 12.82h-6.41c-1.18 0-2.14-.96-2.14-2.14s.96-2.14 2.14-2.14h6.41c1.18 0 2.14.96 2.14 2.14s-.96 2.14-2.14 2.14zm6.41 11.75v-9.61c0-1.18.96-2.14 2.14-2.14h9.61l-11.75 11.75zm58.84-33.97h-8.35c-.84-2.32-3.04-4-5.63-4s-4.79 1.68-5.63 4h-8.35c-2.2 0-4 1.8-4 4v31.96c0 2.2 1.8 4 4 4h27.97c2.2 0 4-1.8 4-4V11.36c0-2.2-1.8-4-4-4zm-13.98 0c1.1 0 2 .9 2 2s-.9 2-2 2-2-.9-2-2 .9-2 2-2zm11.99 35.96h-23.97c-1.1 0-2-.9-2-2V13.35c0-1.1.9-2 2-2h2v2c0 2.2 1.8 4 4 4h11.99c2.2 0 4-1.8 4-4v-2h2c1.1 0 2 .9 2 2v27.97c0 1.1-.9 2-2 2zm39.13-37.94c-11.03 0-19.98 8.95-19.98 19.98s8.95 19.98 19.98 19.98 19.98-8.95 19.98-19.98-8.95-19.98-19.98-19.98zm0 5.99c3.32 0 5.99 2.68 5.99 5.99s-2.68 5.99-5.99 5.99-5.99-2.68-5.99-5.99 2.68-5.99 5.99-5.99zm0 28.37c-4.99 0-9.41-2.56-11.99-6.43.06-3.98 7.99-6.15 11.99-6.15s11.93 2.18 11.99 6.15a14.374 14.374 0 01-11.99 6.43zm59.98 1.69h-23.97c-1.1 0-2-.9-2-2V15.46c0-1.1-.9-2-2-2s-2 .9-2 2v25.97c0 2.2 1.8 4 4 4h25.97c1.1 0 2-.9 2-2s-.9-2-2-2zM491 5.47h-23.97c-2.2 0-4 1.8-4 4v23.97c0 2.2 1.8 4 4 4H491c2.2 0 4-1.8 4-4V9.47c0-2.2-1.8-4-4-4zm0 19.98l-4.99-3-4.99 3V9.47h9.99v15.98z"/><path d="M505.25 5.25L545 45m0-39.75L505.25 45" fill="none" stroke="#000" stroke-linecap="round" stroke-width="4"/><path d="M747.57 14.62c-.53-1.95-2.09-3.49-4.08-4.01-3.6-.95-18.03-.95-18.03-.95s-14.43 0-18.03.95c-1.99.52-3.55 2.06-4.08 4.01-.96 3.53-.96 10.91-.96 10.91s0 7.37.96 10.91c.53 1.95 2.09 3.42 4.08 3.94 3.6.95 18.03.95 18.03.95s14.43 0 18.03-.95c1.99-.52 3.55-1.99 4.08-3.94.96-3.53.96-10.91.96-10.91s0-7.37-.96-10.91zm-26.84 17.6V18.83l12.06 6.69-12.06 6.69zm158.24-11.15v6.25c0 .16-.12.28-.27.28h-.97c-.09 0-.18-.05-.22-.11l-2.79-3.87v3.71c0 .16-.12.28-.27.28h-.97c-.15 0-.27-.12-.27-.28v-6.25c0-.16.12-.28.27-.28h.97c.09 0 .18.04.22.12l2.79 3.87v-3.71c0-.16.12-.28.27-.28h.97c.15 0 .28.12.28.27zm-7.01-.28h-.98c-.15 0-.27.12-.27.28v6.25c0 .16.12.28.27.28h.98c.15 0 .27-.12.27-.28v-6.25c0-.15-.12-.28-.27-.28zm-2.35 5.24h-2.66v-4.96c0-.16-.12-.28-.27-.28h-.97c-.15 0-.27.12-.27.28v6.25c0 .08.03.14.08.19a.3.3 0 00.19.08h3.91c.15 0 .27-.12.27-.28v-1c0-.15-.12-.28-.27-.28zm14.49-5.24h-3.91c-.14 0-.27.12-.27.28v6.25c0 .15.12.28.27.28h3.91c.15 0 .27-.12.27-.28v-1c0-.16-.12-.28-.27-.28h-2.66v-1.06h2.66c.15 0 .27-.12.27-.28v-1.01c0-.16-.12-.28-.27-.28h-2.66v-1.06h2.66c.15 0 .27-.12.27-.28v-1c0-.15-.13-.28-.27-.28zm9.91-7.68V38.2c0 3.94-3.14 7.13-6.98 7.12h-24.38c-3.83 0-6.93-3.25-6.92-7.18V13.05c0-3.94 3.15-7.13 6.98-7.12h24.38c3.83 0 6.93 3.24 6.92 7.18zm-5.26 10.78c0-6.42-6.26-11.64-13.94-11.64s-13.94 5.22-13.94 11.64c0 5.75 4.96 10.57 11.66 11.48 1.63.36 1.44.98 1.08 3.24-.06.36-.28 1.42 1.21.77 1.49-.64 8.02-4.86 10.96-8.33 2.02-2.29 2.98-4.6 2.98-7.17zM775 4.11c-11.6 0-21 9.4-21 21 0 10.53 7.76 19.22 17.86 20.74V30.68h-5.2v-5.52h5.2v-3.67c0-6.08 2.96-8.75 8.02-8.75 2.42 0 3.7.18 4.31.26v4.82h-3.45c-2.15 0-2.9 2.03-2.9 4.33v3.02h6.29l-.85 5.52h-5.44v15.22C788.09 44.52 796 35.76 796 25.12c0-11.6-9.4-21-21-21zM907.11 7l13.95 20.92-13.46 15.97h4.02l11.21-13.31 8.87 13.31h12.29l-14.3-21.45L942.7 7h-4.02l-10.76 12.77L919.4 7h-12.3zm5.75 3.07h4.91l20.49 30.74h-4.91l-20.49-30.74zM817.52 6C811.16 6 806 11.17 806 17.52v15.95c0 6.36 5.17 11.52 11.52 11.52h15.95c6.36 0 11.52-5.17 11.52-11.52V17.52c0-6.36-5.17-11.52-11.52-11.52h-15.95zm18.61 7.09c.97 0 1.77.8 1.77 1.77s-.8 1.77-1.77 1.77-1.77-.8-1.77-1.77.8-1.77 1.77-1.77zm-10.64 2.66c5.38 0 9.75 4.37 9.75 9.75s-4.37 9.75-9.75 9.75-9.75-4.37-9.75-9.75 4.37-9.75 9.75-9.75zm0 1.77c-4.4 0-7.98 3.58-7.98 7.98s3.58 7.98 7.98 7.98 7.98-3.58 7.98-7.98-3.58-7.98-7.98-7.98zm149.82-7.19c-10.32 0-19.13 6.42-22.69 15.47 3.57 9.06 12.38 15.47 22.69 15.47S994.44 34.85 998 25.8c-3.57-9.06-12.38-15.47-22.69-15.47zm0 25.79c-5.69 0-10.32-4.62-10.32-10.32s4.62-10.32 10.32-10.32 10.32 4.62 10.32 10.32-4.62 10.32-10.32 10.32zm0-16.51c-3.42 0-6.19 2.76-6.19 6.19s2.76 6.19 6.19 6.19 6.19-2.76 6.19-6.19-2.76-6.19-6.19-6.19zm56.12 7.03l-5.3 5.3a6.174 6.174 0 005.3-5.3zm-12.21-1.93l4.99-4.99a6.17 6.17 0 00-4.99 4.99z"/><path d="M1041.53 16.54l-6.33 6.33c.28.93.43 1.91.43 2.93 0 5.69-4.62 10.32-10.32 10.32-1.02 0-2-.15-2.93-.43l-4.45 4.45c2.33.74 4.8 1.14 7.38 1.14 10.32 0 19.13-6.42 22.69-15.47a24.458 24.458 0 00-6.47-9.26zm-32.57 18.43l6.41-6.41c-.24-.88-.38-1.8-.38-2.75 0-5.69 4.62-10.32 10.32-10.32.95 0 1.87.14 2.75.38l4.45-4.45c-2.28-.7-4.69-1.09-7.2-1.09-10.32 0-19.13 6.42-22.69 15.47 1.39 3.53 3.59 6.65 6.35 9.16z"/><path fill="none" stroke="#000" stroke-linecap="round" stroke-linejoin="round" stroke-width="5" d="M1042 9l-33.5 33.5"/></svg>