<svg width="1440" height="2347" fill="none" xmlns="http://www.w3.org/2000/svg"><g clip-path="url(#clip0_88589_8221)"><path fill="#fff" d="M0 0h1440v2347H0z"/><path opacity=".5" fill="#FFEBD3" d="M0 0h1449v2347H0z"/><ellipse cx="41.132" cy="865.509" rx="185.331" ry="190.408" transform="rotate(41.988 41.132 865.509)" fill="#FFEBD3" opacity=".7"/><ellipse cx="223.542" cy="1944.79" rx="119.91" ry="123.196" transform="rotate(41.988 223.542 1944.79)" fill="#FFEBD3" opacity=".7"/><ellipse cx="1232" cy="1449.5" rx="79" ry="80.5" fill="#FFF5D3"/><ellipse cx="718.31" cy="2360.71" rx="271.674" ry="277.108" transform="rotate(41.988 718.31 2360.71)" fill="#FFF5D3" opacity=".7"/><path opacity=".4" d="M1531.14 690.837c-86.38 95.974-232.68 105.124-326.77 20.438-94.09-84.686-100.35-231.139-13.97-327.113 86.38-95.973 232.69-105.124 326.78-20.438 94.09 84.686 100.34 231.139 13.96 327.113z" fill="#FFDF91"/><ellipse opacity=".2" cx="210.3" cy="1227.23" rx="37.302" ry="37.945" transform="rotate(30.093 210.3 1227.23)" fill="#FFCB24"/><ellipse opacity=".2" cx="1299.3" cy="2165.53" rx="37.302" ry="37.945" transform="rotate(30.093 1299.3 2165.53)" fill="#FFCB24"/><ellipse opacity=".2" cx="51.3" cy="270.534" rx="37.302" ry="37.945" transform="rotate(30.093 51.3 270.534)" fill="#FFCB24"/><ellipse opacity=".2" cx="236.5" cy="765" rx="73.5" ry="75" fill="#FFCB24"/><ellipse cx="1439.97" cy="1869.37" rx="189.3" ry="194.724" transform="rotate(41.988 1439.97 1869.37)" fill="#FFEBD3" opacity=".7"/></g><defs><clipPath id="clip0_88589_8221"><path fill="#fff" d="M0 0h1440v2347H0z"/></clipPath></defs></svg>