<svg xmlns="http://www.w3.org/2000/svg" width="212.41" height="150"><defs><clipPath id="a"><path data-name="Rectangle 1325" fill="none" d="M0 0h59.324v53.263H0z"/></clipPath></defs><g data-name="Group 15915"><path data-name="Path 13814" d="M132.382 147.832a5.181 5.181 0 01-4.026-1.858l-20.7-24.552a5.274 5.274 0 018.052-6.813l17.3 20.527 8.228-6.945a5.273 5.273 0 116.813 8.051l-12.3 10.352a5.221 5.221 0 01-3.406 1.239z" fill="#002189"/><path data-name="Path 13815" d="M32.757 149.956a5.3 5.3 0 01-4.512-2.522l-8.361-13.67a5.042 5.042 0 01-.619-3.981 5.272 5.272 0 012.389-3.274l27.383-16.766a5.273 5.273 0 015.53 8.98l-22.872 14.024 5.618 9.2a5.291 5.291 0 01-1.725 7.255 5.186 5.186 0 01-2.743.8z" fill="#002189"/><path data-name="Path 13816" d="M48.329 24.938l3.539 9.113 20.527-7.963-3.539-9.113a6.615 6.615 0 00-5.441-12.033 6.254 6.254 0 00-1.5.841 9.552 9.552 0 00-16.014 6.193 7.726 7.726 0 00-1.681.4 6.607 6.607 0 004.026 12.564z" fill="#fff"/><path data-name="Path 13817" d="M83.941 131.022c-19.067 21.058-36.32 13.316-33.931-14.068-27.386 2.389-35.126-14.868-14.068-33.931-21.058-19.067-13.318-36.32 14.068-33.931-2.386-27.384 14.864-35.126 33.931-14.068 19.067-21.058 36.32-13.316 33.931 14.068 27.384-2.389 35.125 14.864 14.068 33.931 21.058 19.067 13.316 36.32-14.068 33.931 2.389 27.384-14.864 35.125-33.931 14.068z" fill="#224ce7"/><path data-name="Path 13818" d="M94.735 93.906a21.4 21.4 0 01-12.873-4.247 5.941 5.941 0 117.122-9.511 9.739 9.739 0 0011.015.4 5.928 5.928 0 116.37 10 21.515 21.515 0 01-11.59 3.362z" fill="#fff"/><g data-name="Group 15912"><g data-name="Group 15911"><path data-name="Rectangle 1323" d="M81.094 91.554l8.575-11.695.536.392-8.576 11.695z"/><path data-name="Path 13819" d="M95.355 96.251l-1.46-16.192.664-.044 1.46 16.147z"/><path data-name="Rectangle 1324" d="M99.794 79.053l.55-.373 9.811 14.46-.55.372z"/></g></g><path data-name="Path 13820" d="M108.316 75.502a14.112 14.112 0 10-14.112-14.114 14.122 14.122 0 0014.112 14.114z" fill="#fff"/><path data-name="Path 13821" d="M83.498 75.502a14.112 14.112 0 10-14.112-14.114 14.122 14.122 0 0014.112 14.114z" fill="#fff"/><path data-name="Path 13822" d="M84.471 65.814c-2.831 5.884-5.441 4.734-3.141-1.283-6.061 2.3-7.211-.265-1.283-3.141-5.884-2.831-4.734-5.441 1.283-3.141-2.3-6.061.265-7.211 3.141-1.283 2.831-5.884 5.441-4.734 3.141 1.283 6.061-2.3 7.211.265 1.283 3.141 5.884 2.831 4.734 5.441-1.283 3.141 2.301 6.061-.265 7.211-3.141 1.283z" fill="#231815"/><path data-name="Path 13823" d="M109.29 65.814c-2.831 5.884-5.441 4.734-3.141-1.283-6.061 2.3-7.211-.265-1.283-3.141-5.884-2.831-4.734-5.441 1.283-3.141-2.3-6.061.265-7.211 3.141-1.283 2.831-5.884 5.441-4.734 3.141 1.283 6.061-2.3 7.211.265 1.283 3.141 5.884 2.831 4.734 5.441-1.283 3.141 2.3 6.061-.264 7.211-3.141 1.283z" fill="#231815"/><path data-name="Path 13824" d="M25.856 119.386c-5.751-2.787-10.617-7.742-10.086-14.555.487-5.884 4.866-10.573 10-12.962 2.212-1.017.31-4.247-1.9-3.229-6.415 2.964-11.325 9.069-11.856 16.236-.619 8.051 5.043 14.466 11.944 17.784 2.168 1.062 4.07-2.212 1.9-3.229z" fill="#002189"/><path data-name="Path 13825" d="M38.685 123.634a57.645 57.645 0 01-7.255-2.3 2.088 2.088 0 00-1.46.177 2.209 2.209 0 00-.885 1.106 1.874 1.874 0 00.177 1.46 2.208 2.208 0 001.106.885 60.032 60.032 0 007.255 2.3 1.878 1.878 0 00.973-3.628z" fill="#002189"/><path data-name="Path 13826" d="M14.486 68.512a13.7 13.7 0 01-5.087-1.017 14.072 14.072 0 01-4.866-3.052 7.087 7.087 0 01-1.991-7.609 6.976 6.976 0 016.547-4.291 13.987 13.987 0 015.663 1.017c5.618 2.168 8.45 6.547 6.857 10.617-1.063 2.787-3.761 4.335-7.123 4.335zm2.212-6.193zm-4.91-1.9a3.733 3.733 0 00-.266 1.637 4.074 4.074 0 00.885-1.416l-.619-.221zm.885-1.416a4.074 4.074 0 00-.885 1.416l.619.221a3.733 3.733 0 00.261-1.639z" fill="#002189"/><path data-name="Path 13827" d="M12.363 74.131a13.7 13.7 0 01-5.087-1.017 14.074 14.074 0 01-4.866-3.052 7.087 7.087 0 01-1.991-7.609c1.593-4.114 6.592-5.441 12.21-3.318a14.073 14.073 0 014.866 3.055 7.087 7.087 0 011.991 7.609c-1.061 2.784-3.761 4.332-7.123 4.332zm-2.3-4.424zm.487-5.087a4.075 4.075 0 00-.885 1.416 3.729 3.729 0 00-.266 1.637 4.075 4.075 0 00.885-1.416 3.731 3.731 0 00.265-1.637z" fill="#002189"/><path data-name="Path 13828" d="M31.342 86.739a24.914 24.914 0 01-9.423-1.548c-5-1.991-13.272-10.175-14.068-16.457a5.341 5.341 0 014.557-5.928 5.241 5.241 0 015.884 4.512c.442 2.035 5.22 7.122 7.565 8.051s5.132.841 8.361.752c.885 0 1.725-.044 2.566-.088h.044a5.287 5.287 0 01.044 10.573c-.8 0-1.548 0-2.345.044-1.062 0-2.123.088-3.229.088z" fill="#002189"/><path data-name="Path 13829" d="M51.337 34.803a2 2 0 01-1.858-1.283l-2.964-7.653A8.589 8.589 0 0143.02 9.278c.221-.088.442-.133.619-.221a11.539 11.539 0 0117.961-6.9c.177-.088.4-.177.619-.265a8.6 8.6 0 018.582 14.643l2.964 7.653a1.988 1.988 0 01-3.716 1.416l-3.539-9.113a1.974 1.974 0 01.929-2.477 4.673 4.673 0 002.168-5.8 4.624 4.624 0 00-5.972-2.654 6.253 6.253 0 00-1.062.575 2 2 0 01-2.522-.133 7.581 7.581 0 00-12.7 4.91 2.022 2.022 0 01-1.77 1.814 2.994 2.994 0 00-1.194.31 4.617 4.617 0 002.876 8.759 1.968 1.968 0 012.345 1.194l3.539 9.113a1.994 1.994 0 01-1.858 2.7z"/><path data-name="Path 13830" d="M56.602 28.211a2 2 0 01-1.858-1.283l-.885-2.3a1.988 1.988 0 113.716-1.416l.885 2.3a1.959 1.959 0 01-1.15 2.566 2 2 0 01-.708.133z"/><path data-name="Path 13831" d="M63.459 25.557a2 2 0 01-1.858-1.283l-.885-2.3a1.988 1.988 0 013.716-1.416l.885 2.3a1.994 1.994 0 01-1.858 2.7z"/><g data-name="Group 15914" transform="translate(153.086 34.935)" clip-path="url(#a)"><g data-name="Group 15913"><path data-name="Path 13832" d="M50.963 0a8.383 8.383 0 018.361 8.361v27.384a8.383 8.383 0 01-8.361 8.361H16.678L3.539 52.865A2.258 2.258 0 010 51.007v-42.6A8.383 8.383 0 018.361.046h42.6z" fill="#231815"/><path data-name="Path 13833" d="M44.903 16.722a5.309 5.309 0 11-5.309 5.309 5.324 5.324 0 015.309-5.309z" fill="#fff"/><path data-name="Path 13834" d="M29.685 16.722a5.309 5.309 0 11-5.309 5.309 5.324 5.324 0 015.309-5.309z" fill="#fff"/><path data-name="Path 13835" d="M14.466 16.722a5.309 5.309 0 11-5.309 5.309 5.324 5.324 0 015.309-5.309z" fill="#fff"/></g></g></g></svg>