<svg xmlns="http://www.w3.org/2000/svg" width="125.904" height="150"><g data-name="Group 15910"><path data-name="Path 13796" d="M82.627 150H63.656v-31.588a4.915 4.915 0 119.83 0v21.758h9.141a4.915 4.915 0 010 9.83z" fill="#b431d3"/><path data-name="Path 13797" d="M54.575 150H35.634v-31.588a4.915 4.915 0 019.83 0v21.758h9.141a4.915 4.915 0 010 9.83z" fill="#b431d3"/><path data-name="Path 13798" d="M104.026 89.011H93.297v23.167h10.729z" fill="#b431d3"/><path data-name="Path 13799" d="M60.689 77.622H44.505a30.038 30.038 0 01-18.192 6.144A30.123 30.123 0 019.62 78.701v44.6a4.637 4.637 0 004.615 4.615h77.952a4.637 4.637 0 004.615-4.615V77.892a30.021 30.021 0 01-17.832 5.9 30.12 30.12 0 01-18.222-6.144z" fill="#cf60ea"/><path data-name="Path 13800" d="M78.881 27.333a26.284 26.284 0 1026.253 26.28 26.323 26.323 0 00-26.253-26.28z" fill="#b431d3"/><path data-name="Path 13801" d="M78.882 64.975a11.329 11.329 0 1111.329-11.329 11.32 11.32 0 01-11.329 11.329z" fill="#fff"/><path data-name="Path 13802" d="M26.284 27.333a26.284 26.284 0 1026.286 26.28 26.3 26.3 0 00-26.286-26.28z" fill="#b431d3"/><path data-name="Path 13803" d="M78.881 67.372a13.756 13.756 0 10-13.756-13.756 13.756 13.756 0 0013.756 13.756z" fill="#fff"/><path data-name="Path 13804" d="M84.576 60.81a7.193 7.193 0 10-7.193-7.193 7.195 7.195 0 007.193 7.193z" fill="#231815"/><path data-name="Path 13805" d="M26.283 67.372a13.756 13.756 0 10-13.756-13.756 13.756 13.756 0 0013.756 13.756z" fill="#fff"/><path data-name="Path 13806" d="M32.005 60.81a7.193 7.193 0 10-7.193-7.193 7.195 7.195 0 007.193 7.193z" fill="#231815"/><path data-name="Path 13807" d="M90.21 95.305H16.094v8.152H90.21v-8.152z" fill="#b431d3"/><path data-name="Path 13808" d="M72.887 106.603H16.094v8.152h56.793z" fill="#b431d3"/><path data-name="Path 13809" d="M15.554 21.009v9.56h21.459v-9.56a6.449 6.449 0 00-.719-12.857 6.066 6.066 0 00-1.648.21 9.311 9.311 0 00-16.723 0 6.219 6.219 0 00-1.648-.21 6.449 6.449 0 00-.719 12.857z" fill="#fff"/><path data-name="Path 13810" d="M37.013 31.079a1.816 1.816 0 01-1.828-1.828V19.69a1.848 1.848 0 011.648-1.828 4.614 4.614 0 00-.509-9.2 5.7 5.7 0 00-1.2.15 1.857 1.857 0 01-2.128-.989 7.469 7.469 0 00-13.427 0 1.805 1.805 0 01-2.128.959 5.207 5.207 0 00-1.169-.15 4.615 4.615 0 00-.48 9.2 1.848 1.848 0 011.65 1.828v9.56a1.828 1.828 0 11-3.656 0v-8.061A8.279 8.279 0 0116.334 5h.689a10.9 10.9 0 019.261-5 11.042 11.042 0 019.321 5.035c.24 0 .48-.03.689-.03a8.279 8.279 0 012.548 16.154v8.062a1.816 1.816 0 01-1.828 1.828z"/><path data-name="Path 13811" d="M22.807 31.588a1.816 1.816 0 01-1.828-1.828v-2.4a1.828 1.828 0 113.656 0v2.4a1.816 1.816 0 01-1.828 1.828z"/><path data-name="Path 13812" d="M29.97 31.588a1.816 1.816 0 01-1.828-1.828v-2.4a1.828 1.828 0 113.656 0v2.4a1.816 1.816 0 01-1.828 1.828z"/><path data-name="Path 13813" d="M118.981 76.783l-17.233 9.98v27.663l17.233 9.98a4.62 4.62 0 006.923-4.016V80.799a4.624 4.624 0 00-6.923-4.016z" fill="#cf60ea"/></g></svg>