<svg xmlns="http://www.w3.org/2000/svg" width="160.444" height="150"><defs><clipPath id="a"><path data-name="Rectangle 1321" transform="translate(42.41 4.53)" fill="none" d="M0 0h160.444v150H0z"/></clipPath></defs><g data-name="Group 15905" transform="translate(-42.41 -4.53)" clip-path="url(#a)"><g data-name="Group 15904"><path data-name="Path 13760" d="M191.648 33.609c.5 14.92-11.174 14.92-10.643 0-14.92.5-14.92-11.174 0-10.643-.5-14.92 11.174-14.92 10.643 0 14.92-.498 14.92 11.173 0 10.643z" fill="#ea49b5"/><path data-name="Path 13761" d="M94.631 29.464v11.34l25.464.066V29.53a7.646 7.646 0 00-.763-15.252 8.2 8.2 0 00-1.989.265 11.039 11.039 0 00-19.861-.033 7.787 7.787 0 00-1.989-.265 7.652 7.652 0 00-.9 15.252z" fill="#fff"/><path data-name="Path 13762" d="M81.137 40.704h90.252a6.66 6.66 0 016.631 8.256l-12.135 45.524a6.844 6.844 0 01-6.627 4.973H91.614a6.812 6.812 0 01-6.7-5.172L74.439 48.764a6.7 6.7 0 016.7-8.057z" fill="#ff7ecf"/><path data-name="Path 13763" d="M112.934 145.179a9 9 0 01-.033.928 4.815 4.815 0 01-.133.928 8.892 8.892 0 01-.232.9c-.1.3-.2.564-.3.862a6.377 6.377 0 01-.4.829c-.133.265-.3.531-.464.8-.166.232-.365.5-.564.729s-.4.464-.63.7a6.285 6.285 0 01-.7.63c-.232.2-.464.365-.729.564-.265.166-.531.332-.8.464s-.564.265-.829.4a6.583 6.583 0 01-.862.3 8.892 8.892 0 01-.9.232 8.33 8.33 0 01-.9.133c-.3 0-.6.033-.928.033a8.687 8.687 0 01-.928-.033 7.25 7.25 0 01-.9-.133 8.892 8.892 0 01-.9-.232c-.3-.1-.6-.2-.862-.3-.265-.133-.564-.232-.829-.4-.265-.133-.531-.3-.8-.464a5.4 5.4 0 01-.729-.564c-.232-.2-.464-.4-.7-.63s-.431-.464-.63-.7-.365-.464-.564-.729c-.166-.265-.332-.531-.464-.8s-.265-.564-.4-.829a3.787 3.787 0 01-.3-.862 8.888 8.888 0 01-.232-.9 7.821 7.821 0 01-.133-.928c0-.3-.033-.6-.033-.928a8.687 8.687 0 01.033-.928 8.335 8.335 0 01.365-1.824c.1-.3.2-.6.3-.862.133-.265.232-.564.4-.829.133-.265.3-.531.464-.8.166-.232.365-.5.564-.729s.4-.464.63-.7a6.284 6.284 0 01.7-.63c.232-.2.464-.365.729-.564.265-.166.531-.332.8-.464s.564-.265.829-.4a3.787 3.787 0 01.862-.3 8.888 8.888 0 01.9-.232 8.236 8.236 0 011.845-.154 8.691 8.691 0 01.928.033 4.174 4.174 0 01.9.133 8.888 8.888 0 01.9.232c.3.1.6.2.862.3a6.379 6.379 0 01.829.4c.265.166.531.3.8.464a5.4 5.4 0 01.729.564c.232.2.464.4.7.63s.431.464.63.7.365.464.564.729c.166.265.332.531.464.8s.265.564.4.829a3.788 3.788 0 01.3.862 8.892 8.892 0 01.232.9 7.818 7.818 0 01.133.928 8.683 8.683 0 01.016.912z" fill="#ff7ecf"/><path data-name="Path 13764" d="M156.568 145.179a9 9 0 01-.033.928 4.814 4.814 0 01-.133.928 8.888 8.888 0 01-.232.9c-.1.3-.2.564-.3.862a6.377 6.377 0 01-.4.829c-.133.265-.3.531-.464.8-.166.232-.365.5-.564.729s-.4.464-.63.7a6.284 6.284 0 01-.7.63c-.232.2-.464.365-.729.564-.265.166-.531.332-.8.464s-.564.265-.829.4a6.582 6.582 0 01-.862.3 8.892 8.892 0 01-.9.232 8.329 8.329 0 01-.9.133c-.3 0-.6.033-.928.033a8.688 8.688 0 01-.928-.033 4.815 4.815 0 01-.928-.133 8.892 8.892 0 01-.9-.232c-.3-.1-.6-.2-.862-.3-.265-.133-.564-.232-.829-.4-.265-.133-.531-.3-.8-.464a5.4 5.4 0 01-.729-.564c-.232-.2-.464-.4-.7-.63s-.431-.464-.63-.7-.365-.464-.564-.729c-.166-.265-.332-.531-.464-.8s-.265-.564-.4-.829a3.786 3.786 0 01-.3-.862 8.888 8.888 0 01-.232-.9 7.818 7.818 0 01-.133-.928c0-.3-.033-.6-.033-.928a8.683 8.683 0 01.066-.926 4.814 4.814 0 01.133-.928 8.888 8.888 0 01.232-.9c.1-.3.2-.6.3-.862.133-.265.232-.564.4-.829.133-.265.3-.531.464-.8.166-.232.365-.5.564-.729s.4-.464.63-.7a6.283 6.283 0 01.7-.63c.232-.2.464-.365.729-.564.265-.166.531-.332.8-.464s.564-.265.829-.4a3.787 3.787 0 01.862-.3 8.888 8.888 0 01.9-.232 7.821 7.821 0 01.928-.133c.3 0 .6-.033.928-.033a8.691 8.691 0 01.928.033 4.174 4.174 0 01.9.133 8.888 8.888 0 01.9.232c.3.1.6.2.862.3a6.38 6.38 0 01.829.4c.265.133.531.3.8.464a5.4 5.4 0 01.729.564c.232.2.464.4.7.63s.431.464.63.7.365.464.564.729c.166.265.332.531.464.8s.265.564.4.829a6.583 6.583 0 01.3.862 8.888 8.888 0 01.232.9 7.821 7.821 0 01.133.928 8.683 8.683 0 010 .926z" fill="#ff7ecf"/><path data-name="Path 13765" d="M165.022 129.298H95.758c-10.908 0-19.794-7.991-19.794-17.805s8.886-17.805 19.794-17.805h69.264a5.8 5.8 0 110 11.6H95.758c-4.443 0-8.19 2.851-8.19 6.2s3.747 6.2 8.19 6.2h69.264a5.8 5.8 0 110 11.6z" fill="#ea49b5"/><path data-name="Path 13766" d="M89.293 106.619a5.8 5.8 0 01-5.67-4.576L67.609 28.138h-19.4a5.8 5.8 0 010-11.6h24.075a5.784 5.784 0 015.67 4.576L94.963 99.59a5.773 5.773 0 01-4.443 6.9 5.338 5.338 0 01-1.227.133z" fill="#ea49b5"/><path data-name="Path 13767" d="M164.459 85.697l-23.475-11.24v11.24z" fill="#231815"/><path data-name="Path 13768" d="M131.336 85.697V74.59l-24.105 11.107z" fill="#231815"/><path data-name="Path 13769" d="M122.582 79.364a16.313 16.313 0 10-16.313-16.313 16.3 16.3 0 0016.313 16.313z" fill="#fff"/><path data-name="Path 13770" d="M149.141 79.364a16.313 16.313 0 10-16.313-16.313 16.3 16.3 0 0016.313 16.313z" fill="#fff"/><path data-name="Path 13771" d="M155.672 75.982a8.521 8.521 0 10-8.521-8.521 8.519 8.519 0 008.521 8.521z" fill="#231815"/><path data-name="Path 13772" d="M128.65 75.882a8.521 8.521 0 10-8.521-8.521 8.519 8.519 0 008.521 8.521z" fill="#231815"/><path data-name="Path 13773" d="M120.096 41.466a2.158 2.158 0 01-2.155-2.188v-11.34a2.212 2.212 0 011.955-2.155 5.469 5.469 0 10-2.023-10.71 2.209 2.209 0 01-2.52-1.16 8.866 8.866 0 00-15.947-.033 2.209 2.209 0 01-2.52 1.16 5.048 5.048 0 00-1.393-.2 5.49 5.49 0 00-.63 10.942 2.182 2.182 0 011.923 2.155v11.34a2.187 2.187 0 01-2.221 2.155 2.158 2.158 0 01-2.155-2.188v-9.615a9.827 9.827 0 013.086-19.164 6.93 6.93 0 01.829.033 13.208 13.208 0 0122.115.033c.265 0 .564-.033.829-.033a9.834 9.834 0 012.984 19.2v9.615a2.179 2.179 0 01-2.188 2.155z"/><path data-name="Path 13774" d="M103.219 41.997a2.158 2.158 0 01-2.156-2.188v-2.852a2.2 2.2 0 012.188-2.155 2.158 2.158 0 012.155 2.188v2.852a2.179 2.179 0 01-2.187 2.155z"/><path data-name="Path 13775" d="M111.707 42.03a2.186 2.186 0 01-2.188-2.188V36.99a2.188 2.188 0 114.377 0v2.852a2.186 2.186 0 01-2.189 2.188z"/></g></g></svg>