<svg xmlns="http://www.w3.org/2000/svg" width="115.493" height="150"><g data-name="Group 15919"><path data-name="Path 13858" d="M105.146 79.554l-3.038 9.261-20.792-6.84 3.038-9.257a6.563 6.563 0 014.794-12.2 7.454 7.454 0 011.519.712 9.5 9.5 0 0116.235 5.317 4.932 4.932 0 011.661.332 6.574 6.574 0 01-3.418 12.674z" fill="#fff"/><path data-name="Path 13859" d="M84.926 149.952H70.588a5.222 5.222 0 110-10.443h9.114v-26.678a5.222 5.222 0 0110.443 0v31.947A5.207 5.207 0 0184.923 150z" fill="#028014"/><path data-name="Path 13860" d="M27.438 149.76H13.102a5.222 5.222 0 010-10.443h9.114v-26.675a5.222 5.222 0 0110.443 0v31.947a5.207 5.207 0 01-5.222 5.222z" fill="#028014"/><path data-name="Path 13861" d="M34.985 110.41v-2.516c0-3.37-2.516-6.693-5.886-8.4-1.661 0-4.177 0-5.886.854a8.563 8.563 0 00-4.177 5.032c-1.661 4.177.854 9.209 5.032 10.918a18.063 18.063 0 006.693-.854 8.564 8.564 0 004.177-5.032zm41.061 0a8.73 8.73 0 004.177 5.032 20.436 20.436 0 006.693.854c3.37-1.661 5.886-5.032 5.886-8.4v-2.516a8.73 8.73 0 00-4.177-5.032 20.437 20.437 0 00-6.693-.854 10.2 10.2 0 00-5.885 10.916zm-25.159 5.032a28.167 28.167 0 01-12.579 15.1 29.947 29.947 0 01-19.273 1.661 25.447 25.447 0 01-17.611-24.3 22.809 22.809 0 01.854-7.548c1.661-6.693 6.693-11.725 12.579-15.1 6.693-2.516 13.386-3.37 19.273-1.661 3.37 1.661 5.886 2.516 7.548 4.177l5.032-15.1-19.273-61.236C25.776 5.549 29.098 2.226 32.469.517c4.177-1.661 9.209.854 10.918 5.032l12.579 38.546L67.691 6.356a8.427 8.427 0 0110.918-5.032 9.172 9.172 0 015.886 10.064L64.369 72.624l5.032 15.1a33.279 33.279 0 017.548-4.177c5.886-1.661 13.434-.854 19.273 1.661a28.167 28.167 0 0112.579 15.1 22.812 22.812 0 01.854 7.548 25.075 25.075 0 01-17.611 24.3c-5.886 1.661-13.434.854-19.273-1.661a28.167 28.167 0 01-12.579-15.1l-5.032-15.1-4.177 15.1z" fill="#028014"/><path data-name="Path 13862" d="M26.726 121.806a14 14 0 1114-14 14 14 0 01-14 14z" fill="#fff"/><path data-name="Path 13863" d="M26.73 134.525a26.726 26.726 0 1126.773-26.726 26.752 26.752 0 01-26.773 26.726zm0-40.4a13.624 13.624 0 1013.624 13.624A13.655 13.655 0 0026.73 94.128z" fill="#00ad36"/><path data-name="Path 13864" d="M20.127 115.11a7.31 7.31 0 117.31-7.31 7.314 7.314 0 01-7.31 7.31z" fill="#231815"/><path data-name="Path 13865" d="M84.354 121.806a14 14 0 1114-14 14 14 0 01-14 14z" fill="#fff"/><path data-name="Path 13866" d="M84.354 134.525a26.726 26.726 0 1126.725-26.726 26.752 26.752 0 01-26.725 26.726zm0-40.4a13.624 13.624 0 1013.624 13.624 13.655 13.655 0 00-13.624-13.621z" fill="#00ad36"/><path data-name="Path 13867" d="M77.708 115.11a7.31 7.31 0 117.31-7.31 7.314 7.314 0 01-7.31 7.31z" fill="#231815"/><path data-name="Path 13868" d="M102.535 89.476a1.938 1.938 0 01-1.851-2.563l3.038-9.257a2.006 2.006 0 012.279-1.329 4.6 4.6 0 002.373-8.877 4.873 4.873 0 00-1.139-.237 1.9 1.9 0 01-1.851-1.709 7.542 7.542 0 00-12.864-4.225 2.012 2.012 0 01-2.516.285 4.305 4.305 0 00-1.044-.522 4.6 4.6 0 00-3.37 8.545 1.98 1.98 0 011.044 2.421l-3.043 9.255a1.951 1.951 0 01-3.7-1.234l2.563-7.785a8.526 8.526 0 017.737-14.953 3.3 3.3 0 01.617.237 11.358 11.358 0 0110.681-1.9 11.483 11.483 0 017.5 7.833 3.071 3.071 0 01.617.19 8.543 8.543 0 01-2.609 16.667l-2.563 7.785a2.029 2.029 0 01-1.851 1.377z"/><path data-name="Path 13869" d="M95.367 87.672a1.9 1.9 0 01-.617-.095 1.954 1.954 0 01-1.282-2.468l.76-2.326a1.967 1.967 0 113.75 1.187l-.76 2.326a2.029 2.029 0 01-1.851 1.377z"/><path data-name="Path 13870" d="M88.436 85.394a1.9 1.9 0 01-.617-.095 1.947 1.947 0 01-1.234-2.468l.76-2.326a1.91 1.91 0 012.468-1.234 1.948 1.948 0 011.234 2.468l-.76 2.326a1.983 1.983 0 01-1.851 1.329z"/></g></svg>