<svg xmlns="http://www.w3.org/2000/svg" width="104.475" height="150"><defs><clipPath id="a"><path data-name="Rectangle 1320" fill="none" d="M0 0h104.474v150H0z"/></clipPath></defs><g data-name="Group 15903"><g data-name="Group 15902" clip-path="url(#a)"><path data-name="Path 13734" d="M42.492 150H26.366a5.045 5.045 0 110-10.09h11.111v-22.222a5.045 5.045 0 0110.09 0v27.267A5.037 5.037 0 0142.521 150z" fill="#d8a209"/><path data-name="Path 13735" d="M74.654 150H58.528a5.045 5.045 0 110-10.09h11.111v-22.222a5.045 5.045 0 0110.09 0v27.267A5.037 5.037 0 0174.684 150z" fill="#d8a209"/><path data-name="Path 13736" d="M44.024 104.415a9.4 9.4 0 119.4-9.4 9.394 9.394 0 01-9.4 9.4z" fill="#f59bc8"/><path data-name="Path 13737" d="M0 40.06v70.27a5.166 5.166 0 00.06.961c.03.33.09.631.15.961.06.3.15.631.24.931s.21.6.33.9.24.571.39.871c.15.27.3.541.48.811s.36.51.571.781l.631.721a4.716 4.716 0 00.721.631 7.434 7.434 0 00.781.571c.27.18.541.33.811.48a7.782 7.782 0 00.871.42 5.284 5.284 0 00.9.3c.3.09.631.18.931.24s.631.09.931.15c.3 0 .631.03.961.03h84.896c.3 0 .631 0 .961-.03a5.01 5.01 0 00.931-.15c.3-.06.631-.15.931-.24s.6-.21.9-.33.571-.24.871-.39c.27-.15.541-.33.811-.48a7.435 7.435 0 00.781-.571l.721-.631c.24-.24.45-.48.661-.691a7.436 7.436 0 00.571-.781c.18-.27.33-.541.511-.841a4.539 4.539 0 00.39-.871c.12-.3.24-.6.33-.9s.18-.631.24-.931c.06-.33.12-.631.15-.961 0-.33.03-.631.06-.961V40.06a5.328 5.328 0 00-.06-.961 10.014 10.014 0 00-.39-1.862c-.09-.3-.21-.6-.33-.9a7.656 7.656 0 00-.39-.871c-.15-.27-.33-.541-.511-.811a7.436 7.436 0 00-.571-.781c-.21-.24-.42-.48-.661-.721-.24-.21-.48-.45-.721-.631a7.437 7.437 0 00-.781-.571c-.27-.18-.541-.33-.811-.48-.3-.15-.571-.27-.871-.39a5.285 5.285 0 00-.9-.3c-.3-.09-.631-.18-.931-.24s-.631-.09-.931-.15c-.3 0-.631-.03-.961-.03H9.76c-.3 0-.631 0-.961.03a10.014 10.014 0 00-1.862.39c-.3.09-.6.21-.9.33a7.656 7.656 0 00-.871.39c-.27.15-.541.3-.811.48s-.511.36-.781.571l-.721.631a6.766 6.766 0 00-.631.721 5.231 5.231 0 00-.571.781c-.18.27-.33.541-.48.811a4.538 4.538 0 00-.39.871c-.12.3-.24.6-.33.9s-.18.631-.24.931-.09.631-.15.931c0 .33-.06.631-.06.961zm8.559 19.79A14.185 14.185 0 1130.12 41.561a13.8 13.8 0 011.5-1.772A14.179 14.179 0 0155.8 50.81h37.563a3.5 3.5 0 01.691.15 3.276 3.276 0 01.33.18c.09.09.18.15.27.24s.15.18.24.27a1.11 1.11 0 01.15.33 1.464 1.464 0 01.12.33c0 .12.03.24.03.36v56.639a.854.854 0 01-.12.36c-.06.12-.09.21-.15.33a2.625 2.625 0 01-.24.3c-.09.09-.18.15-.27.24a.9.9 0 01-.33.18 1.693 1.693 0 01-.36.12 1.448 1.448 0 01-.36 0H10.751a1.584 1.584 0 01-.36-.09 1.165 1.165 0 01-.33-.18 2.1 2.1 0 01-.3-.24 2.627 2.627 0 01-.24-.3 3.275 3.275 0 01-.18-.33 1.584 1.584 0 01-.09-.36V60.51c-.24-.21-.48-.42-.691-.631zM70.9 42.522a1.557 1.557 0 01.15-.721 1.675 1.675 0 01.42-.6 2.626 2.626 0 01.3-.24 1.609 1.609 0 01.33-.15 1.584 1.584 0 01.36-.09h.36a1.462 1.462 0 01.36.03.63.63 0 01.33.12.939.939 0 01.3.15 2.1 2.1 0 01.3.24 1.492 1.492 0 01.39.571 1.524 1.524 0 01.12.721 2.064 2.064 0 01-.15.721 1.675 1.675 0 01-.42.6 1.6 1.6 0 01-.6.39 1.8 1.8 0 01-1.441 0 1.789 1.789 0 01-.631-.42 2.073 2.073 0 01-.39-.6 1.933 1.933 0 01-.15-.721zm8.619.36s-.03-.24-.03-.36a1.557 1.557 0 01.15-.721 1.6 1.6 0 01.39-.571 2.625 2.625 0 01.3-.24 1.11 1.11 0 01.33-.15.8.8 0 01.36-.09c.12 0 .24-.03.36-.03a1.462 1.462 0 01.36.03 1.584 1.584 0 01.36.09 3.523 3.523 0 01.33.15c.09.09.21.15.3.24a1.4 1.4 0 01.39.6 1.907 1.907 0 01.15.691 1.781 1.781 0 01-.15.691 2.455 2.455 0 01-.36.6 1.789 1.789 0 01-.631.42 2.091 2.091 0 01-.751.15.762.762 0 01-.36-.06 1.584 1.584 0 01-.36-.09 2.64 2.64 0 01-.3-.18 2.183 2.183 0 01-.27-.24 1.943 1.943 0 01-.24-.27c-.06-.09-.12-.21-.18-.3a1.693 1.693 0 01-.12-.36zm8.619-.03v-.36a.762.762 0 01.06-.36.63.63 0 01.12-.33 2.642 2.642 0 01.18-.3c.09-.09.15-.18.24-.27a2.627 2.627 0 01.3-.24 1.11 1.11 0 01.33-.15.783.783 0 01.33-.09h.36a.762.762 0 01.36.06 1.584 1.584 0 01.36.09 2.64 2.64 0 01.3.18c.09.09.18.15.27.24a1.423 1.423 0 01.36.571 1.712 1.712 0 01.12.661 1.557 1.557 0 01-.15.721 2.073 2.073 0 01-.39.6 2.627 2.627 0 01-.3.24 1.11 1.11 0 01-.33.15.8.8 0 01-.36.09 1.692 1.692 0 01-.39 0 1.462 1.462 0 01-.36-.03.854.854 0 01-.36-.12 3.276 3.276 0 01-.33-.18 2.627 2.627 0 01-.3-.24 1.079 1.079 0 01-.21-.3 1.609 1.609 0 01-.15-.33c-.03-.12-.06-.24-.09-.33z" fill="#ffcb24"/><path data-name="Path 13738" d="M8.558 39.79a14.21 14.21 0 000 20.06c.24.21.45.42.691.631v-7.805a2.049 2.049 0 01.03-.36.854.854 0 01.12-.36 1.11 1.11 0 01.15-.33c.09-.09.15-.18.24-.27s.18-.15.27-.24a1.11 1.11 0 01.33-.15 1.693 1.693 0 01.36-.12c.12 0 .24-.03.36-.03h5.826a8.391 8.391 0 011.021-1.291 7.324 7.324 0 019.52-.781 14.5 14.5 0 012.613-7.177 13.8 13.8 0 00-1.5-1.772 14.21 14.21 0 00-20.06 0z" fill="#fff"/><path data-name="Path 13739" d="M9.279 52.312s-.03.24-.03.36v7.809a14.162 14.162 0 0019.219-.48 7.406 7.406 0 01-11.499-9.19h-5.828a2.048 2.048 0 00-.36.03.854.854 0 00-.36.12 1.11 1.11 0 00-.33.15c-.09.09-.18.15-.27.24s-.15.18-.24.27a1.11 1.11 0 00-.15.33 1.693 1.693 0 00-.12.36z" fill="#fff"/><path data-name="Path 13740" d="M9.249 60.481v48.468a2.048 2.048 0 00.03.36 1.584 1.584 0 00.09.36 3.274 3.274 0 00.18.33 2.1 2.1 0 00.24.3 2.626 2.626 0 00.3.24 1.165 1.165 0 00.33.18.8.8 0 00.36.09 1.692 1.692 0 00.39 0h82.615a.854.854 0 00.36-.12.9.9 0 00.33-.18 1.942 1.942 0 00.27-.24 2.626 2.626 0 00.24-.3 1.11 1.11 0 00.15-.33 1.693 1.693 0 00.12-.36V52.643a2.049 2.049 0 00-.03-.36.63.63 0 00-.12-.33 1.11 1.11 0 00-.15-.33 2.184 2.184 0 00-.24-.27c-.09-.09-.18-.15-.27-.24a3.276 3.276 0 00-.33-.18 1.354 1.354 0 00-.33-.09 1.507 1.507 0 01-.36-.06H55.856a14.18 14.18 0 01-3.964 8.888c-.03.06-.09.09-.15.15a14.179 14.179 0 01-21.562-1.772 13.8 13.8 0 01-1.5 1.772l-.15.15a14.132 14.132 0 01-19.219.48z" fill="#d8a209"/><path data-name="Path 13741" d="M53.03 59.91h30.694a3.217 3.217 0 013.213 3.213v30.691a3.217 3.217 0 01-3.213 3.213H53.03a3.217 3.217 0 01-3.213-3.213V63.123a3.217 3.217 0 013.213-3.213z" fill="#ffcb24"/><path data-name="Path 13742" d="M27.507 48.708a7.807 7.807 0 01.961.781 6.894 6.894 0 011.021 1.291h3.213a13.993 13.993 0 00-2.613-9.249 14.5 14.5 0 00-2.612 7.177z" fill="#fff"/><path data-name="Path 13743" d="M28.468 60l.15-.15a14.183 14.183 0 001.5-1.772 1.054 1.054 0 01-.15-.24 6.889 6.889 0 01-1.5 2.132z" fill="#fff"/><path data-name="Path 13744" d="M32.733 50.811H29.52a7.327 7.327 0 01.45 7.027 1.053 1.053 0 01.15.24 14.246 14.246 0 002.613-7.267z" fill="#fff"/><path data-name="Path 13745" d="M31.622 39.79a14.183 14.183 0 00-1.5 1.772 14.163 14.163 0 012.613 9.249h7.325a7.17 7.17 0 011.23-1.651 7.377 7.377 0 0110.48 0 5.931 5.931 0 011.231 1.652h2.793A14.179 14.179 0 0031.621 39.79z" fill="#fff"/><path data-name="Path 13746" d="M55.465 14.414c0 .24-.03.45-.03.661a6.664 6.664 0 005.916 6.607V20.3a6.674 6.674 0 01-5.886-5.916z" fill="#fff"/><path data-name="Path 13747" d="M68.648 30.3h14.865v-10a6.644 6.644 0 005.856-5.916 6.624 6.624 0 00-6.607-5.976 6.725 6.725 0 00-1.712.24 9.6 9.6 0 00-17.267 0 6.543 6.543 0 00-1.712-.24 6.646 6.646 0 00-6.607 5.976A6.674 6.674 0 0061.35 20.3v10z" fill="#fff"/><path data-name="Path 13748" d="M51.772 59.64l.06.06a14.023 14.023 0 003.964-8.889h-2.793a7.389 7.389 0 01-1.231 8.829z" fill="#fff"/><path data-name="Path 13749" d="M83.514 20.3v1.381a6.664 6.664 0 005.916-6.607 4.65 4.65 0 00-.026-.66 6.672 6.672 0 01-5.856 5.916z" fill="#fff"/><path data-name="Path 13750" d="M41.682 64.024A14.174 14.174 0 1155.856 49.85a14.181 14.181 0 01-14.174 14.174z" fill="#fff"/><path data-name="Path 13751" d="M18.618 64.024A14.174 14.174 0 1132.792 49.85a14.181 14.181 0 01-14.174 14.174z" fill="#fff"/><path data-name="Path 13752" d="M15.976 57.237a7.417 7.417 0 117.417-7.417 7.433 7.433 0 01-7.417 7.417z"/><path data-name="Path 13753" d="M39.039 57.237a7.417 7.417 0 117.417-7.417 7.433 7.433 0 01-7.417 7.417z"/><path data-name="Path 13754" d="M83.514 32.072a1.884 1.884 0 01-1.892-1.892v-9.85a1.912 1.912 0 011.682-1.892 4.788 4.788 0 004.2-4.234v-.484a4.755 4.755 0 00-4.745-4.745 5.481 5.481 0 00-1.2.15 1.886 1.886 0 01-2.192-.991 7.726 7.726 0 00-13.874 0 1.886 1.886 0 01-2.192.991 4.2 4.2 0 00-1.231-.15 4.755 4.755 0 00-4.742 4.745v.511a4.786 4.786 0 004.2 4.2 1.869 1.869 0 011.686 1.899v9.85a1.892 1.892 0 11-3.784 0v-8.348a8.57 8.57 0 01-5.856-7.212c-.03-.3-.06-.6-.06-.9a8.542 8.542 0 018.529-8.529 5.786 5.786 0 01.721.03 11.485 11.485 0 0119.219 0c.24 0 .48-.03.721-.03a8.542 8.542 0 018.528 8.529 4.545 4.545 0 01-.06.9 8.57 8.57 0 01-5.856 7.207v8.353a1.884 1.884 0 01-1.892 1.892z"/><path data-name="Path 13755" d="M76.006 32.582a1.884 1.884 0 01-1.892-1.892v-2.462a1.892 1.892 0 113.784 0v2.462a1.884 1.884 0 01-1.892 1.892z"/><path data-name="Path 13756" d="M68.649 32.582a1.884 1.884 0 01-1.892-1.892v-2.462a1.892 1.892 0 113.784 0v2.462a1.884 1.884 0 01-1.892 1.892z"/><path data-name="Path 13757" d="M23.754 84.655h14.955a6.156 6.156 0 110 12.312H23.754a6.156 6.156 0 110-12.312z" fill="#231815"/><g data-name="Group 15900"><path data-name="Path 13758" d="M17.477 101.082a13.754 13.754 0 1027.508 0c0-7.6-6.156-8.529-13.754-8.529s-13.754.931-13.754 8.529z" fill="#f59bc8"/></g><g data-name="Group 15901"><path data-name="Path 13759" d="M79.339 112.493L63.273 87.268a1.1 1.1 0 010-1.171 1.034 1.034 0 011.081-.42l28.589 6.336a1.037 1.037 0 01.781.781 1.006 1.006 0 01-.36 1.051l-5.256 4.324 7.207 6.4a1.036 1.036 0 01.33 1.021 1.522 1.522 0 01-.21.45l-4.475 5.489a1.15 1.15 0 01-.721.39 1.04 1.04 0 01-.781-.27l-6.787-6.036-1.44 6.516a1.022 1.022 0 01-.841.811 1.053 1.053 0 01-1.081-.48z"/></g></g></g></svg>