<svg xmlns="http://www.w3.org/2000/svg" width="112.541" height="150"><g data-name="Group 15918"><path data-name="Path 13836" d="M89.57 149.996H70.364v-31.977a4.823 4.823 0 019.645 0v22.336h9.561a4.823 4.823 0 110 9.645z" fill="#dd2a2a"/><path data-name="Path 13837" d="M60.888 149.996H41.682v-31.977a4.823 4.823 0 019.645 0v22.336h9.561a4.823 4.823 0 110 9.645z" fill="#dd2a2a"/><g data-name="Group 15917"><g data-name="Group 15916"><path data-name="Path 13838" d="M112.54 54.013v69.336a4.342 4.342 0 01-4.357 4.315H6.699a4.342 4.342 0 01-4.357-4.315V54.013h110.2zm-11.506 16.752l6.642-14.045H88.299l-6.642 14.045zm-37.439 0l6.642-14.045H50.861l-6.642 14.045zm-37.439 0l6.643-14.045H13.422L6.78 70.765z" fill="#f93a3a"/><path data-name="Path 13839" d="M107.675 56.678l-6.642 14.045H81.658L88.3 56.678z" fill="#fff"/><path data-name="Path 13840" d="M70.237 56.678l-6.642 14.045H44.22l6.642-14.045z" fill="#fff"/><path data-name="Path 13841" d="M32.798 56.678l-6.642 14.045H6.781l6.642-14.045z" fill="#fff"/></g></g><path data-name="Path 13842" d="M88.85 105.75c5.5 0 9.941-6.261 9.941-14s-4.442-14-9.941-14-9.941 6.261-9.941 14 4.442 14 9.941 14z" fill="#fff"/><path data-name="Path 13843" d="M66.513 105.75c5.5 0 9.941-6.261 9.941-14s-4.442-14-9.941-14-9.941 6.261-9.941 14 4.441 14 9.941 14z" fill="#fff"/><path data-name="Path 13844" d="M108.944 22.328l2.33 15.06-23.944 3.638-.423-2.623 19.118-2.915-8.715-12.9-.423-2.792 7.065-1.1a4.321 4.321 0 014.95 3.638z" fill="#dd2a2a"/><path data-name="Path 13845" d="M97.352 22.581l8.715 12.9-19.12 2.92-8.715-12.9z" fill="#fff"/><path data-name="Path 13846" d="M96.93 19.789l.423 2.792L78.232 25.5l8.715 12.9.423 2.623-37.016 5.626-.423-2.623 19.121-2.919-8.715-12.9-.423-2.792z" fill="#dd2a2a"/><path data-name="Path 13847" d="M60.337 28.208l8.715 12.9-19.121 2.919-8.715-12.9z" fill="#fff"/><path data-name="Path 13848" d="M59.914 25.458l.423 2.792-19.121 2.919 8.715 12.9.423 2.623-17.894 2.75-.423-2.665-8.715-12.9-19.125 2.921-.423-2.792 56.137-8.545z" fill="#dd2a2a"/><path data-name="Path 13849" d="M32.036 46.779l.423 2.665-30.078 4.569L.055 38.956a4.28 4.28 0 013.638-4.907h.085l.423 2.75 8.715 12.9 19.121-2.919z" fill="#dd2a2a"/><path data-name="Path 13850" d="M23.321 33.876l8.715 12.9-19.121 2.919-8.715-12.9z" fill="#fff"/><path data-name="Path 13851" d="M88.85 81.849a9.921 9.921 0 009.941 9.9 9.921 9.921 0 00-9.941 9.9 9.921 9.921 0 00-9.941-9.9 9.921 9.921 0 009.941-9.9z" fill="#231815"/><path data-name="Path 13852" d="M66.513 81.849a9.921 9.921 0 009.941 9.9 9.921 9.921 0 00-9.941 9.9 9.921 9.921 0 00-9.941-9.9 9.921 9.921 0 009.941-9.9z" fill="#231815"/><path data-name="Path 13853" d="M66.26 114.549a15.806 15.806 0 01-15.864-16.837 1.823 1.823 0 113.638.254 11.97 11.97 0 002.2 7.784 12.3 12.3 0 0017.048 3 1.825 1.825 0 112.073 3 15.929 15.929 0 01-9.1 2.834z"/><path data-name="Path 13854" d="M18.33 22.75l1.4 9.6 21.74-3.084-1.4-9.6a6.546 6.546 0 00-2.581-12.818 7.354 7.354 0 00-1.65.465 9.49 9.49 0 00-9.222-4.061 9.378 9.378 0 00-7.7 6.472 7.542 7.542 0 00-1.692 0 6.548 6.548 0 001.142 13.03z" fill="#fff"/><path data-name="Path 13855" d="M19.515 32.819a1.78 1.78 0 01-1.777-1.565l-1.185-8.165a8.4 8.4 0 01-6.938-7.065 8.375 8.375 0 017.149-9.434 4.66 4.66 0 00.761-.085A11.4 11.4 0 0136.35 3.84a4.766 4.766 0 01.761-.127 8.368 8.368 0 014.823 15.822l1.185 8.165a1.795 1.795 0 01-3.554.508l-1.4-9.6a1.783 1.783 0 011.354-1.988 4.729 4.729 0 00-1.861-9.265 4.166 4.166 0 00-1.185.338 1.782 1.782 0 01-2.2-.635 7.742 7.742 0 00-13.749 1.946 1.762 1.762 0 01-1.946 1.227 5.942 5.942 0 00-1.227 0 4.666 4.666 0 00-3.13 1.861 4.537 4.537 0 00-.888 3.511 4.734 4.734 0 004.865 4.061 1.828 1.828 0 011.861 1.565l1.4 9.6a1.808 1.808 0 01-1.523 2.031h-.254z"/><path data-name="Path 13856" d="M26.918 32.311a1.78 1.78 0 01-1.777-1.565l-.338-2.411a1.795 1.795 0 013.554-.508l.338 2.411a1.808 1.808 0 01-1.523 2.031h-.254z"/><path data-name="Path 13857" d="M34.152 31.254a1.78 1.78 0 01-1.777-1.565l-.338-2.411a1.808 1.808 0 011.523-2.031 1.785 1.785 0 012.031 1.523l.338 2.411a1.808 1.808 0 01-1.523 2.031h-.254z"/></g></svg>