<svg xmlns="http://www.w3.org/2000/svg" width="143.52" height="150"><defs><clipPath id="a"><path data-name="Rectangle 1322" transform="translate(92.91)" fill="none" d="M0 0h143.52v150H0z"/></clipPath></defs><g data-name="Group 15909" transform="translate(-92.91)" clip-path="url(#a)"><g data-name="Group 15908"><path data-name="Path 13776" d="M236.43 131.04V35.76a7.535 7.535 0 00-7.53-7.53h-60.18a7.535 7.535 0 00-7.53 7.53v95.31a7.535 7.535 0 007.53 7.53h60.18a7.554 7.554 0 007.53-7.53z" fill="#00aeff"/><path data-name="Path 13777" d="M226.41 131.04h-55.17a2.535 2.535 0 01-2.52-2.52V38.25a2.535 2.535 0 012.52-2.52h55.17a2.535 2.535 0 012.52 2.52v90.27a2.535 2.535 0 01-2.52 2.52z" fill="#056da0"/><path data-name="Path 13778" d="M223.89 92.82H174.6v5.34h49.29z" fill="#fff"/><path data-name="Path 13779" d="M223.89 102.66H174.6V108h49.29z" fill="#fff"/><path data-name="Path 13780" d="M223.89 112.5H174.6v5.34h49.29z" fill="#fff"/><path data-name="Path 13781" d="M181.8 19.02v9.24h20.73v-9.24a6.213 6.213 0 00-.66-12.39 5.646 5.646 0 00-1.59.21 8.981 8.981 0 00-16.14 0 5.646 5.646 0 00-1.59-.21 6.214 6.214 0 00-.69 12.39z" fill="#fff"/><path data-name="Path 13782" d="M127.32 149.28h-13.56a3.988 3.988 0 01-3.99-3.99v-30.24a3.99 3.99 0 117.98 0v26.25h9.57a3.99 3.99 0 010 7.98z" fill="#056da0"/><path data-name="Path 13783" d="M155.88 149.28h-13.59a3.988 3.988 0 01-3.99-3.99v-30.24a3.99 3.99 0 117.98 0v26.25h9.57a3.99 3.99 0 110 7.98z" fill="#056da0"/><path data-name="Path 13784" d="M187.95 52.92H99.84a6.965 6.965 0 00-6.96 6.96v55.65a6.965 6.965 0 006.96 6.96h88.08a6.965 6.965 0 006.96-6.96V59.88a6.965 6.965 0 00-6.96-6.96z" fill="#00aeff"/><path data-name="Path 13785" d="M202.53 29.73a1.485 1.485 0 01-1.5-1.5v-9.24a1.521 1.521 0 011.35-1.5 4.709 4.709 0 00-.51-9.39 5.746 5.746 0 00-1.23.15 1.534 1.534 0 01-1.74-.78 7.476 7.476 0 00-13.44 0 1.45 1.45 0 01-1.74.78 4.116 4.116 0 00-1.2-.15 4.709 4.709 0 00-.51 9.39 1.523 1.523 0 011.35 1.5v9.24a1.5 1.5 0 11-3 0v-8.01a7.72 7.72 0 012.19-15.12 7.311 7.311 0 01.81.03 10.453 10.453 0 0117.7 0c.27 0 .54-.03.81-.03a7.715 7.715 0 012.16 15.12v8.01a1.485 1.485 0 01-1.5 1.5z"/><path data-name="Path 13786" d="M188.82 30.21a1.485 1.485 0 01-1.5-1.5V26.4a1.5 1.5 0 113 0v2.31a1.485 1.485 0 01-1.5 1.5z"/><path data-name="Path 13787" d="M195.72 30.21a1.485 1.485 0 01-1.5-1.5V26.4a1.5 1.5 0 013 0v2.31a1.485 1.485 0 01-1.5 1.5z"/><path data-name="Path 13788" d="M187.95 62.22v51a2.311 2.311 0 01-2.31 2.31h-83.46a2.331 2.331 0 01-2.31-2.31v-51a2.33 2.33 0 012.31-2.31h83.46a2.33 2.33 0 012.31 2.31z" fill="#056da0"/><path data-name="Path 13789" d="M187.95 95.52v17.67a2.33 2.33 0 01-2.31 2.31h-83.46a2.33 2.33 0 01-2.31-2.31v-10.62l17.04-14.61a2.281 2.281 0 013 0l12.42 10.35 26.34-21.964a2.341 2.341 0 012.85-.09l26.46 19.26z" fill="#fff"/><path data-name="Path 13790" d="M204.87 50.55a13.26 13.26 0 11-23.58-8.34l23.46 6.27a11.8 11.8 0 01.18 2.07z" fill="#fff"/><g data-name="Group 15906"><path data-name="Path 13791" d="M197.94 55.65a6.93 6.93 0 10-6.93-6.93 6.933 6.933 0 006.93 6.93z" fill="#231815"/></g><path data-name="Path 13792" d="M204.87 50.55a13.275 13.275 0 1023.61-8.34l-23.46 6.27a11.8 11.8 0 00-.18 2.07z" fill="#fff"/><g data-name="Group 15907"><path data-name="Path 13793" d="M211.8 55.65a6.93 6.93 0 10-6.93-6.93 6.933 6.933 0 006.93 6.93z" fill="#231815"/></g><path data-name="Path 13794" d="M207.24 79.02a14.778 14.778 0 01-14.76-15.783 1.489 1.489 0 012.97.21 11.755 11.755 0 0018.48 10.41 1.507 1.507 0 011.74 2.46 14.714 14.714 0 01-8.46 2.67z"/><path data-name="Path 13795" d="M131.07 84.51a9.18 9.18 0 10-9.18-9.18 9.18 9.18 0 009.18 9.18z" fill="#00aeff"/></g></g></svg>