<svg width="1128" height="146" fill="none" xmlns="http://www.w3.org/2000/svg"><g clip-path="url(#clip0_88589_8693)"><path fill="#241A00" d="M-7-62h1142v386H-7z"/><circle cx="159" cy="171" r="197" fill="#F5A218"/><g clip-path="url(#clip1_88589_8693)"><path d="M289.357 61.76c-3.993 15.75-20.01 25.289-35.759 21.296-15.749-3.993-25.288-20.01-21.296-35.76 3.993-15.749 20.01-25.287 35.759-21.295 15.75 3.993 25.289 20.01 21.296 35.76z" fill="#fff"/><path d="M275.706 58.54c-2.084 8.222-10.527 13.25-18.749 11.166-8.221-2.084-13.249-10.528-11.165-18.749 2.084-8.221 10.527-13.25 18.749-11.165 8.221 2.084 13.249 10.527 11.165 18.748z" fill="#000"/></g><g clip-path="url(#clip2_88589_8693)"><path d="M241.055 62.415c-3.992 15.75-20.009 25.288-35.759 21.295-15.749-3.992-25.288-20.01-21.295-35.759 3.992-15.75 20.009-25.288 35.759-21.295 15.749 3.992 25.288 20.01 21.295 35.759z" fill="#fff"/><path d="M227.706 58.542c-2.084 8.222-10.527 13.25-18.749 11.166-8.221-2.084-13.249-10.528-11.165-18.749 2.084-8.221 10.527-13.25 18.749-11.165 8.221 2.084 13.249 10.527 11.165 18.748z" fill="#000"/></g><path d="M1170 48c0 61.304-49.7 111-111 111-61.304 0-111-49.696-111-111s49.696-111 111-111c61.3 0 111 49.696 111 111z" fill="#462A00"/><path d="M678 194.605c21.951-1.456 48.676-1.904 68.139-13.63 23.451-14.131 34.31-49.26 45.865-72.373 7.748-15.496 15.842-30.809 26.43-44.614 9.797-12.774 24.935-17.97 40.345-20.801 17.012-3.126 34.837 1.77 51.821 2.867 23.73 1.533 68.562 8.296 91.2.073 57.73-20.97 58.24-82.148 119.53-119.821s72.25-5.07 96.1 3.885" stroke="#F5A218" stroke-width="8" stroke-linecap="round"/><circle cx="1018.5" cy="36.5" r="11.5" fill="#FFDF91"/></g><defs><clipPath id="clip0_88589_8693"><path fill="#fff" d="M0 0h1128v146H0z"/></clipPath><clipPath id="clip1_88589_8693"><path fill="#fff" transform="rotate(14.225 44.556 969.224)" d="M0 0h58.859v58.859H0z"/></clipPath><clipPath id="clip2_88589_8693"><path fill="#fff" transform="rotate(14.225 17.783 776)" d="M0 0h58.859v58.859H0z"/></clipPath></defs></svg>